{
.appVersion = "3260";
.formatVersion = 3;
customParameters = (
{
name = vendorID;
value = "Sophia Wood";
},
{
name = panose;
value = (
0,
0,
0,
0,
0,
0,
0,
0,
0,
0
);
},
{
name = unicodeRanges;
value = (
0,
1,
2,
31,
38
);
},
{
name = fsType;
value = (
);
},
{
name = blueScale;
value = 0.037000000476837;
},
{
name = glyphOrder;
value = (
.notdef,
null,
space,
uni000A,
controlCR,
exclam,
quotedbl,
numbersign,
dollar,
percent,
ampersand,
quotesingle,
parenleft,
parenright,
plus,
comma,
hyphen,
period,
zero,
one,
two,
three,
four,
five,
six,
seven,
eight,
nine,
colon,
semicolon,
less,
equal,
greater,
question,
at,
A,
B,
C,
D,
E,
F,
G,
H,
I,
J,
K,
L,
M,
N,
O,
P,
Q,
R,
S,
T,
U,
V,
W,
X,
Y,
Z,
underscore,
a,
b,
c,
d,
e,
f,
g,
h,
i,
j,
k,
l,
m,
n,
o,
p,
q,
r,
s,
t,
u,
v,
w,
x,
y,
z,
asciitilde,
uni00A0,
uni00AD,
multiply,
divide,
minus
);
}
);
date = "2023-12-02 04:04:57 +0000";
familyName = Sluggly;
fontMaster = (
{
customParameters = (
{
name = typoAscender;
value = 970;
},
{
name = typoDescender;
value = -300;
},
{
name = typoLineGap;
value = 0;
},
{
name = winAscent;
value = 812;
},
{
name = winDescent;
value = 252;
},
{
name = hheaAscender;
value = 970;
},
{
name = hheaDescender;
value = -300;
},
{
name = strikeoutPosition;
value = 258;
},
{
name = strikeoutSize;
value = 49;
},
{
name = underlinePosition;
value = -125;
}
);
id = m01;
metricValues = (
{
pos = 970;
},
{
pos = 724;
},
{
pos = 500;
},
{
},
{
pos = -300;
},
{
}
);
name = Regular;
}
);
glyphs = (
{
glyphname = exclam;
layers = (
{
hints = (
{
horizontal = 1;
place = (70,12);
type = Stem;
},
{
place = (157,11);
type = Stem;
},
{
place = (153,11);
type = Stem;
},
{
place = (132,8);
type = Stem;
},
{
place = (107,11);
type = Stem;
},
{
place = (102,10);
type = Stem;
},
{
place = (100,49);
type = Stem;
},
{
place = (93.5,46.5);
type = Stem;
},
{
place = (48,42);
type = Stem;
}
);
layerId = m01;
shapes = (
{
closed = 1;
nodes = (
(166,149,o),
(167,154,o),
(165,158,cs),
(156,175,o),
(147,192,o),
(140,210,c),
(146,221,o),
(150,232,o),
(153,244,cs),
(155,250,o),
(159,285,o),
(160,291,cs),
(162,299,o),
(173,343,o),
(173,352,cs),
(177,397,o),
(162,443,o),
(156,488,cs),
(154,507,o),
(148,605,o),
(149,623,cs),
(149,637,o),
(146,650,o),
(144,663,cs),
(142,675,o),
(142,688,o),
(139,700,cs),
(130,726,l),
(126,724,o),
(119,722,o),
(118,716,c),
(113,701,o),
(103,626,o),
(102,609,cs),
(100,591,o),
(100,486,o),
(100,468,cs),
(101,431,o),
(97,393,o),
(92,356,cs),
(91,348,o),
(89,311,o),
(89,303,c),
(95,264,ls),
(97,243,o),
(91,221,o),
(92,200,cs),
(93,189,o),
(100,179,o),
(103,168,cs),
(106,159,o),
(104,149,o),
(102,140,cs),
(102,139,o),
(112,144,o),
(112,146,c),
(116,163,o),
(122,180,o),
(132,195,c),
(135,182,o),
(139,169,o),
(144,156,cs),
(145,153,o),
(148,145,o),
(151,144,cs),
(153,143,o),
(155,140,o),
(157,138,c),
(158,139,o),
(167,144,o),
(168,145,c)
);
},
{
closed = 1;
nodes = (
(57,-18,o),
(78,-31,o),
(94,-27,cs),
(107,-24,o),
(148,-4,o),
(157,5,c),
(160,7,o),
(163,15,o),
(164,18,c),
(166,32,o),
(170,64,o),
(159,73,cs),
(146,85,o),
(125,85,o),
(112,72,cs),
(106,66,o),
(104,54,o),
(112,50,c),
(116,47,o),
(123,46,o),
(127,49,c),
(130,50,o),
(136,53,o),
(133,53,cs),
(129,53,o),
(125,53,o),
(122,56,c),
(116,60,o),
(118,70,o),
(121,76,c),
(122,77,o),
(125,77,o),
(126,77,cs),
(134,76,o),
(147,69,o),
(150,62,cs),
(157,49,o),
(150,18,o),
(141,5,c),
(131,9,o),
(120,14,o),
(112,23,cs),
(106,29,o),
(103,38,o),
(100,46,cs),
(99,50,o),
(97,60,o),
(93,62,cs),
(91,63,o),
(88,63,o),
(90,65,c),
(90,66,o),
(98,70,o),
(98,70,c),
(81,62,o),
(65,51,o),
(53,37,cs),
(46,28,o),
(47,7,o),
(51,-2,cs)
);
}
);
width = 233;
}
);
note = exclam;
unicode = 33;
},
{
glyphname = quotedbl;
layers = (
{
hints = (
{
horizontal = 1;
place = (491,236);
type = Stem;
},
{
place = (197,36);
type = Stem;
},
{
place = (61,25);
type = Stem;
},
{
place = (56,13);
type = Stem;
},
{
place = (38,47.5);
type = Stem;
}
);
layerId = m01;
shapes = (
{
closed = 1;
nodes = (
(221,514,o),
(225,529,o),
(232,543,cs),
(238,556,o),
(232,617,o),
(233,632,cs),
(233,636,o),
(230,659,o),
(230,663,cs),
(231,675,o),
(236,713,o),
(231,723,cs),
(230,725,o),
(229,728,o),
(227,727,cs),
(225,726,o),
(218,723,o),
(218,721,c),
(217,720,o),
(215,715,o),
(215,714,c),
(211,705,o),
(208,658,o),
(206,648,cs),
(205,643,o),
(198,618,o),
(198,612,cs),
(197,586,o),
(195,559,o),
(197,532,cs),
(197,526,o),
(202,521,o),
(204,515,cs),
(207,508,o),
(206,499,o),
(205,491,c),
(208,493,o),
(217,495,o),
(218,499,cs)
);
},
{
closed = 1;
nodes = (
(38,557,o),
(41,536,o),
(42,533,c),
(42,530,o),
(41,519,o),
(43,517,cs),
(46,514,o),
(54,516,o),
(54,511,c),
(55,508,o),
(56,505,o),
(56,502,c),
(59,503,o),
(68,507,o),
(69,509,cs),
(70,511,o),
(69,520,o),
(69,522,c),
(79,537,ls),
(81,540,o),
(80,552,o),
(81,555,c),
(81,560,o),
(85,584,o),
(86,588,cs),
(88,603,o),
(87,619,o),
(85,634,cs),
(84,638,o),
(86,663,o),
(86,667,cs),
(85,675,o),
(75,710,o),
(72,718,c),
(71,719,o),
(73,722,o),
(72,721,cs),
(70,720,o),
(63,717,o),
(62,715,cs),
(60,712,o),
(61,698,o),
(61,694,cs),
(61,678,o),
(55,663,o),
(51,647,cs),
(50,643,o),
(46,615,o),
(44,611,c),
(40,594,o),
(36,577,o),
(38,560,cs)
);
}
);
width = 273;
}
);
note = quotedbl;
unicode = (34,171,187,8220,8221,8222,8223);
},
{
glyphname = numbersign;
layers = (
{
hints = (
{
horizontal = 1;
place = (442,13);
type = Stem;
},
{
horizontal = 1;
place = (410,21);
type = Stem;
},
{
horizontal = 1;
place = (407,33);
type = Stem;
},
{
horizontal = 1;
place = (268,23);
type = Stem;
},
{
horizontal = 1;
place = (237,10);
type = Stem;
},
{
horizontal = 1;
place = (215,33);
type = Stem;
},
{
horizontal = 1;
place = (210,43.5);
type = Stem;
},
{
horizontal = 1;
place = (210,38);
type = Stem;
},
{
horizontal = 1;
place = (-6,19.5);
type = Stem;
},
{
horizontal = 1;
place = (-24,22);
type = Stem;
},
{
place = (542,22);
type = Stem;
},
{
place = (498,20);
type = Stem;
},
{
place = (430,9);
type = Stem;
},
{
place = (309,22);
type = Stem;
},
{
place = (286,11);
type = Stem;
},
{
place = (274,23);
type = Stem;
},
{
place = (173,52);
type = Stem;
},
{
place = (162,25);
type = Stem;
}
);
layerId = m01;
shapes = (
{
closed = 1;
nodes = (
(150,18,o),
(157,42,o),
(166,66,c),
(164,48,o),
(162,29,o),
(162,11,c),
(155,2,o),
(163,-10,o),
(174,-5,cs),
(180,-2,o),
(183,4,o),
(180,11,c),
(185,14,o),
(187,21,o),
(189,27,cs),
(192,35,o),
(187,72,o),
(187,80,cs),
(187,86,o),
(187,116,o),
(188,122,cs),
(189,129,o),
(205,165,o),
(207,172,cs),
(210,184,o),
(214,197,o),
(217,210,c),
(252,208,o),
(288,208,o),
(322,213,c),
(318,189,o),
(292,51,o),
(287,27,cs),
(286,23,o),
(286,19,o),
(286,14,c),
(280,13,l),
(271,9,o),
(273,-4,o),
(282,-6,cs),
(293,-9,o),
(302,0,o),
(297,10,c),
(301,22,o),
(308,32,o),
(313,43,c),
(313,36,o),
(314,28,o),
(315,21,c),
(304,16,o),
(308,0,o),
(320,1,cs),
(329,2,o),
(336,11,o),
(331,19,c),
(329,20,o),
(331,27,o),
(331,29,cs),
(330,44,o),
(328,60,o),
(325,75,c),
(333,98,o),
(339,121,o),
(345,144,cs),
(352,170,o),
(360,196,o),
(366,222,c),
(366,224,o),
(368,223,o),
(370,224,c),
(376,224,o),
(407,231,o),
(413,232,cs),
(428,235,o),
(443,238,o),
(458,239,cs),
(471,240,o),
(485,237,o),
(498,235,c),
(500,222,o),
(520,223,o),
(518,237,c),
(518,247,o),
(507,250,o),
(500,243,c),
(481,248,o),
(461,247,o),
(441,247,c),
(462,255,o),
(483,265,o),
(505,271,c),
(516,263,o),
(529,275,o),
(521,286,cs),
(514,297,o),
(499,287,o),
(502,275,c),
(498,274,o),
(472,272,o),
(468,271,c),
(375,261,l),
(386,314,o),
(395,367,o),
(403,421,c),
(412,422,o),
(454,431,o),
(463,430,cs),
(481,429,o),
(499,421,o),
(517,420,c),
(520,408,o),
(535,407,o),
(538,418,cs),
(541,429,o),
(528,435,o),
(520,428,c),
(510,431,o),
(501,435,o),
(492,438,c),
(542,446,l),
(545,440,o),
(552,440,o),
(558,442,c),
(572,449,o),
(559,470,o),
(547,461,cs),
(545,460,o),
(543,455,o),
(542,455,cs),
(533,456,o),
(493,451,o),
(484,450,cs),
(479,450,o),
(474,451,o),
(469,450,c),
(461,450,o),
(414,447,o),
(407,446,c),
(421,522,o),
(437,598,o),
(439,676,c),
(439,676,o),
(440,677,o),
(441,677,c),
(440,677,o),
(440,678,o),
(440,678,c),
(437,677,o),
(430,674,o),
(430,671,cs),
(427,652,o),
(424,632,o),
(419,613,cs),
(388,514,ls),
(381,491,o),
(375,467,o),
(369,443,c),
(355,442,o),
(276,440,o),
(262,440,c),
(265,457,o),
(267,473,o),
(271,490,cs),
(276,516,o),
(282,543,o),
(284,570,cs),
(285,576,o),
(284,617,o),
(285,623,cs),
(286,630,o),
(295,664,o),
(294,671,cs),
(294,672,o),
(297,675,o),
(296,674,cs),
(294,673,o),
(287,670,o),
(286,668,c),
(284,666,o),
(282,655,o),
(281,652,cs),
(275,632,o),
(266,612,o),
(255,594,cs),
(249,585,o),
(232,538,o),
(229,527,cs),
(221,499,o),
(216,469,o),
(209,440,c),
(192,440,o),
(111,444,o),
(94,449,c),
(93,449,o),
(83,443,o),
(84,443,cs),
(87,442,o),
(104,437,o),
(106,436,c),
(119,433,o),
(190,415,o),
(203,413,c),
(198,391,o),
(176,270,o),
(173,248,c),
(137,249,o),
(101,251,o),
(66,247,cs),
(44,245,l),
(40,246,o),
(36,242,o),
(32,240,c),
(31,239,o),
(34,240,o),
(35,239,c),
(54,229,o),
(146,219,o),
(167,215,c),
(161,184,o),
(155,152,o),
(155,119,cs),
(155,112,o),
(147,71,o),
(146,64,cs),
(146,55,o),
(139,7,o),
(138,-2,c),
(128,-1,o),
(122,-11,o),
(128,-19,cs),
(136,-30,o),
(151,-20,o),
(145,-7,c)
);
},
{
closed = 1;
nodes = (
(225,250,l),
(228,270,o),
(251,388,o),
(255,407,c),
(290,403,o),
(327,404,o),
(362,412,c),
(357,392,o),
(334,276,o),
(330,257,c)
);
}
);
width = 600;
}
);
note = numbersign;
unicode = 35;
},
{
glyphname = dollar;
layers = (
{
hints = (
{
horizontal = 1;
place = (497,27);
type = Stem;
},
{
horizontal = 1;
place = (32,22);
type = Stem;
},
{
place = (368,45);
type = Stem;
},
{
place = (336,23);
type = Stem;
},
{
place = (336,11);
type = Stem;
},
{
place = (255,20);
type = Stem;
},
{
place = (216,22);
type = Stem;
},
{
place = (194,57);
type = Stem;
},
{
place = (185,68);
type = Stem;
},
{
place = (76,55);
type = Stem;
},
{
place = (65,12);
type = Stem;
}
);
layerId = m01;
shapes = (
{
closed = 1;
nodes = (
(238,-145,o),
(239,-145,o),
(239,-144,cs),
(237,-134,o),
(238,-90,o),
(238,-80,c),
(243,-93,o),
(249,-107,o),
(255,-119,c),
(253,-124,o),
(254,-129,o),
(255,-133,cs),
(260,-146,o),
(278,-141,o),
(275,-128,cs),
(274,-120,o),
(258,-86,o),
(255,-80,cs),
(250,-68,o),
(246,-55,o),
(242,-43,c),
(242,-41,o),
(245,-37,o),
(245,-35,cs),
(245,-20,ls),
(245,-13,o),
(252,26,o),
(252,32,c),
(294,38,o),
(332,61,o),
(367,84,cs),
(394,102,o),
(410,138,o),
(413,171,cs),
(417,205,o),
(416,242,o),
(402,274,cs),
(388,308,o),
(354,332,o),
(323,352,cs),
(298,368,o),
(274,385,o),
(251,404,c),
(249,453,o),
(251,503,o),
(258,552,cs),
(262,585,o),
(264,619,o),
(267,652,c),
(289,640,o),
(307,617,o),
(314,593,cs),
(317,583,o),
(338,533,o),
(341,524,c),
(333,520,o),
(335,509,o),
(340,501,cs),
(347,492,o),
(362,499,o),
(359,510,cs),
(358,512,o),
(360,512,o),
(360,513,c),
(351,533,o),
(347,555,o),
(347,577,c),
(349,573,o),
(363,553,o),
(366,550,c),
(361,543,o),
(365,532,o),
(369,526,cs),
(376,516,o),
(391,523,o),
(388,535,c),
(388,535,o),
(387,537,o),
(387,538,c),
(388,540,o),
(394,541,o),
(393,543,c),
(388,548,o),
(386,555,o),
(382,561,cs),
(349,601,l),
(348,603,o),
(347,610,o),
(347,612,c),
(341,636,o),
(322,658,o),
(301,670,cs),
(291,677,o),
(280,680,o),
(268,683,c),
(270,704,o),
(270,781,o),
(262,800,cs),
(261,802,o),
(257,808,o),
(257,810,c),
(258,812,l),
(254,810,o),
(248,807,o),
(247,802,c),
(244,797,o),
(241,769,o),
(240,762,cs),
(236,735,o),
(227,708,o),
(219,681,c),
(192,676,o),
(169,662,o),
(146,648,cs),
(119,631,o),
(100,603,o),
(88,574,cs),
(80,556,o),
(75,537,o),
(76,517,cs),
(78,479,o),
(93,444,o),
(120,416,cs),
(141,394,o),
(164,374,o),
(189,357,c),
(188,331,o),
(185,185,o),
(185,160,c),
(193,62,l),
(163,69,o),
(133,86,o),
(115,111,cs),
(103,127,o),
(93,145,o),
(87,164,cs),
(79,187,o),
(78,213,o),
(77,237,cs),
(77,240,o),
(79,244,o),
(77,243,cs),
(74,241,o),
(66,238,o),
(65,235,cs),
(63,227,o),
(54,182,o),
(53,174,cs),
(47,138,o),
(57,94,o),
(82,68,cs),
(93,57,o),
(108,50,o),
(122,45,cs),
(145,36,o),
(170,33,o),
(194,31,c),
(195,18,o),
(196,5,o),
(198,-7,c),
(199,-9,o),
(204,-18,o),
(205,-20,cs),
(213,-38,l),
(213,-40,o),
(215,-50,o),
(216,-52,cs),
(218,-57,o),
(222,-60,o),
(222,-67,cs),
(224,-91,o),
(221,-116,o),
(226,-140,c),
(212,-143,o),
(213,-164,o),
(228,-162,cs),
(235,-162,o),
(240,-154,o),
(238,-147,c)
);
},
{
closed = 1;
nodes = (
(127,580,o),
(128,599,o),
(134,615,cs),
(138,624,o),
(154,651,o),
(163,656,cs),
(171,661,o),
(204,664,o),
(214,664,c),
(197,596,o),
(196,525,o),
(194,455,c),
(168,481,o),
(145,513,o),
(135,548,cs),
(134,553,o),
(133,559,o),
(131,564,cs)
);
},
{
closed = 1;
nodes = (
(250,101,o),
(252,148,o),
(253,196,cs),
(254,211,o),
(253,302,o),
(253,317,c),
(284,300,o),
(316,282,o),
(338,254,cs),
(363,222,o),
(374,175,o),
(368,134,cs),
(366,117,o),
(361,100,o),
(351,86,c),
(349,82,o),
(338,69,o),
(334,67,cs),
(331,65,o),
(316,60,o),
(312,59,cs),
(292,54,o),
(272,53,o),
(251,54,c)
);
}
);
width = 466;
}
);
note = dollar;
unicode = 36;
},
{
glyphname = percent;
layers = (
{
hints = (
{
horizontal = 1;
place = (687,8);
type = Stem;
},
{
horizontal = 1;
place = (645,29);
type = Stem;
},
{
horizontal = 1;
place = (524,12);
type = Stem;
},
{
horizontal = 1;
place = (392,45);
type = Stem;
},
{
horizontal = 1;
place = (246,32);
type = Stem;
},
{
horizontal = 1;
place = (136,28);
type = Stem;
},
{
horizontal = 1;
place = (-5,42);
type = Stem;
},
{
horizontal = 1;
place = (-25,27);
type = Stem;
},
{
horizontal = 1;
place = (-25,24);
type = Stem;
},
{
place = (542,48);
type = Stem;
},
{
place = (427,44);
type = Stem;
},
{
place = (342,69);
type = Stem;
},
{
place = (256,73);
type = Stem;
},
{
place = (132,27);
type = Stem;
},
{
place = (110,9);
type = Stem;
},
{
place = (94,25);
type = Stem;
},
{
place = (43,51);
type = Stem;
}
);
layerId = m01;
shapes = (
{
closed = 1;
nodes = (
(149,-12,o),
(154,-6,o),
(155,-3,cs),
(168,32,o),
(185,66,o),
(206,97,c),
(213,104,ls),
(229,121,o),
(244,140,o),
(257,160,cs),
(302,228,o),
(334,304,o),
(369,377,cs),
(386,412,o),
(407,445,o),
(424,481,cs),
(431,495,o),
(468,580,o),
(475,594,cs),
(493,630,o),
(516,663,o),
(534,699,cs),
(536,704,o),
(545,723,o),
(548,726,c),
(544,724,o),
(540,722,o),
(538,719,cs),
(530,707,o),
(523,694,o),
(516,682,cs),
(500,655,o),
(389,504,o),
(372,477,cs),
(363,463,o),
(310,378,o),
(302,364,cs),
(245,266,o),
(204,159,o),
(143,63,c),
(141,57,l),
(137,50,o),
(130,44,o),
(128,37,c),
(128,33,o),
(125,30,o),
(123,27,cs),
(118,20,o),
(114,11,o),
(110,2,c),
(99,4,o),
(91,-5,o),
(94,-16,cs),
(99,-36,o),
(128,-18,o),
(116,-1,c),
(131,24,o),
(153,45,o),
(173,66,c),
(170,55,o),
(150,0,o),
(145,-10,c),
(132,-5,o),
(121,-20,o),
(133,-28,cs),
(143,-34,o),
(155,-25,o),
(150,-15,cs)
);
},
{
closed = 1;
nodes = (
(42,460,o),
(45,438,o),
(56,421,cs),
(62,411,o),
(73,404,o),
(84,400,cs),
(119,387,o),
(159,389,o),
(194,407,cs),
(207,414,o),
(272,451,o),
(283,460,cs),
(296,469,o),
(306,484,o),
(312,499,cs),
(320,517,o),
(327,537,o),
(328,557,cs),
(329,572,o),
(329,587,o),
(329,601,cs),
(328,614,o),
(324,630,o),
(313,638,cs),
(311,639,o),
(300,651,o),
(297,653,cs),
(290,659,o),
(281,663,o),
(272,666,cs),
(246,676,o),
(214,678,o),
(190,666,cs),
(183,662,o),
(151,645,o),
(146,639,c),
(136,630,o),
(133,593,o),
(132,579,cs),
(132,562,o),
(132,533,o),
(148,527,cs),
(163,520,o),
(184,526,o),
(199,536,c),
(191,539,o),
(181,538,o),
(174,542,c),
(171,545,o),
(168,548,o),
(165,552,cs),
(152,572,o),
(160,623,o),
(171,645,c),
(190,643,o),
(210,635,o),
(225,623,cs),
(233,617,o),
(241,610,o),
(245,601,cs),
(246,599,o),
(247,592,o),
(247,591,c),
(251,579,o),
(254,566,o),
(256,554,cs),
(260,530,o),
(238,459,o),
(226,437,c),
(198,433,o),
(166,433,o),
(141,447,cs),
(125,456,o),
(113,471,o),
(106,488,cs),
(93,521,o),
(89,560,o),
(98,594,cs),
(106,623,o),
(123,649,o),
(145,669,cs),
(155,678,o),
(168,690,o),
(181,687,c),
(184,687,o),
(183,685,o),
(183,685,c),
(185,686,o),
(192,689,o),
(193,691,cs),
(198,698,o),
(181,694,o),
(173,690,cs),
(148,677,o),
(125,659,o),
(107,638,cs),
(69,596,o),
(45,537,o),
(43,480,cs)
);
},
{
closed = 1;
nodes = (
(337,75,o),
(342,11,o),
(387,-2,cs),
(414,-9,o),
(446,-2,o),
(471,11,cs),
(480,16,o),
(528,43,o),
(537,49,cs),
(566,68,o),
(579,107,o),
(585,142,cs),
(592,177,o),
(594,216,o),
(580,249,cs),
(566,279,o),
(528,285,o),
(499,270,cs),
(489,265,o),
(447,242,o),
(439,234,cs),
(425,218,o),
(424,175,o),
(430,155,cs),
(434,139,o),
(451,132,o),
(466,139,cs),
(471,142,o),
(493,154,o),
(497,157,cs),
(499,159,o),
(501,162,o),
(498,163,cs),
(495,164,o),
(495,168,o),
(493,171,c),
(492,170,o),
(484,165,o),
(482,164,c),
(484,161,o),
(485,153,o),
(482,156,cs),
(466,176,o),
(470,223,o),
(480,246,c),
(502,245,o),
(528,229,o),
(535,208,cs),
(549,164,o),
(541,112,o),
(522,69,cs),
(517,58,o),
(511,46,o),
(503,37,c),
(484,35,o),
(470,39,o),
(454,50,cs),
(451,52,o),
(439,64,o),
(436,67,cs),
(423,82,o),
(418,104,o),
(415,124,cs),
(409,162,o),
(410,201,o),
(418,238,cs),
(424,262,o),
(433,287,o),
(451,305,cs),
(453,307,o),
(468,305,o),
(471,306,c),
(472,307,o),
(479,311,o),
(480,311,c),
(481,312,o),
(477,311,o),
(476,311,cs),
(471,311,o),
(465,315,o),
(461,313,cs),
(445,304,o),
(429,294,o),
(417,280,cs),
(404,266,o),
(394,250,o),
(384,233,cs),
(365,198,o),
(351,160,o),
(345,121,cs)
);
}
);
width = 634;
}
);
note = percent;
unicode = 37;
},
{
glyphname = ampersand;
layers = (
{
hints = (
{
horizontal = 1;
place = (687,34);
type = Stem;
},
{
horizontal = 1;
place = (407,22);
type = Stem;
},
{
horizontal = 1;
place = (399,25);
type = Stem;
},
{
horizontal = 1;
place = (8,45);
type = Stem;
},
{
place = (483,14);
type = Stem;
},
{
place = (433,20);
type = Stem;
},
{
place = (351,66);
type = Stem;
},
{
place = (145,39);
type = Stem;
},
{
place = (43,77);
type = Stem;
}
);
layerId = m01;
shapes = (
{
closed = 1;
nodes = (
(317,37,o),
(406,89,o),
(422,102,c),
(433,96,o),
(444,90,o),
(454,84,cs),
(458,82,o),
(476,67,o),
(479,65,cs),
(484,61,o),
(512,45,o),
(518,42,cs),
(521,41,o),
(526,46,o),
(529,48,cs),
(530,49,o),
(524,48,o),
(523,49,c),
(500,61,o),
(478,77,o),
(462,98,cs),
(456,105,o),
(450,113,o),
(443,120,c),
(464,141,o),
(479,168,o),
(491,196,cs),
(495,207,o),
(496,220,o),
(497,232,c),
(509,258,o),
(508,289,o),
(502,317,cs),
(496,344,o),
(495,374,o),
(501,401,c),
(503,406,o),
(506,410,o),
(506,415,cs),
(505,424,o),
(494,428,o),
(488,421,cs),
(481,414,o),
(482,402,o),
(492,399,c),
(479,358,o),
(485,313,o),
(483,270,c),
(482,274,o),
(474,291,o),
(473,295,cs),
(470,305,o),
(469,316,o),
(467,327,cs),
(464,344,o),
(453,359,o),
(453,376,cs),
(452,384,o),
(453,392,o),
(453,400,cs),
(453,404,o),
(451,409,o),
(453,412,cs),
(462,424,o),
(446,435,o),
(436,425,cs),
(430,419,o),
(433,409,o),
(441,407,c),
(440,401,o),
(438,396,o),
(437,390,cs),
(432,368,o),
(431,344,o),
(433,321,cs),
(434,306,o),
(439,291,o),
(440,276,cs),
(441,234,o),
(429,193,o),
(412,155,c),
(352,224,o),
(288,292,o),
(241,370,c),
(293,413,o),
(353,452,o),
(388,509,cs),
(403,533,o),
(412,561,o),
(417,589,cs),
(421,613,o),
(418,640,o),
(406,661,c),
(405,664,o),
(395,677,o),
(393,679,cs),
(378,696,o),
(359,712,o),
(337,718,cs),
(310,725,o),
(280,720,o),
(254,708,cs),
(245,704,o),
(199,678,o),
(191,672,cs),
(182,666,o),
(174,658,o),
(168,648,cs),
(157,629,o),
(148,609,o),
(145,588,cs),
(140,554,o),
(144,519,o),
(149,486,cs),
(156,439,o),
(171,393,o),
(192,350,c),
(152,320,o),
(112,287,o),
(83,246,cs),
(60,212,o),
(47,171,o),
(43,131,cs),
(41,111,o),
(39,91,o),
(45,72,cs),
(50,57,o),
(60,44,o),
(73,35,cs),
(98,18,o),
(129,11,o),
(158,8,cs),
(205,4,o),
(256,7,o),
(299,28,cs)
);
},
{
closed = 1;
nodes = (
(93,165,o),
(149,276,o),
(202,333,c),
(216,307,o),
(234,283,o),
(252,259,cs),
(282,221,o),
(315,184,o),
(352,153,cs),
(365,141,o),
(378,129,o),
(393,120,c),
(381,99,o),
(366,80,o),
(349,64,c),
(306,51,o),
(260,51,o),
(216,56,cs),
(185,60,o),
(150,73,o),
(134,99,cs)
);
},
{
closed = 1;
nodes = (
(182,589,o),
(184,614,o),
(193,637,cs),
(200,654,o),
(210,669,o),
(221,683,c),
(240,687,o),
(260,689,o),
(278,683,cs),
(303,676,o),
(329,660,o),
(340,636,cs),
(346,624,o),
(348,610,o),
(351,596,cs),
(357,557,o),
(343,515,o),
(324,481,cs),
(302,442,o),
(268,411,o),
(234,383,c),
(204,438,o),
(187,502,o),
(184,565,cs)
);
}
);
width = 574;
}
);
note = ampersand;
unicode = 38;
},
{
glyphname = quotesingle;
layers = (
{
hints = (
{
horizontal = 1;
place = (511,213);
type = Stem;
},
{
place = (67,16);
type = Stem;
},
{
place = (55,10);
type = Stem;
}
);
layerId = m01;
shapes = (
{
closed = 1;
nodes = (
(66,544,o),
(82,569,o),
(91,594,cs),
(97,609,o),
(99,625,o),
(100,641,cs),
(100,651,o),
(97,696,o),
(94,705,cs),
(93,707,o),
(83,715,o),
(83,717,c),
(82,719,o),
(79,720,o),
(78,721,cs),
(77,722,o),
(78,724,o),
(77,724,cs),
(74,723,o),
(68,721,o),
(67,718,c),
(67,711,o),
(53,687,o),
(50,681,cs),
(48,674,o),
(43,636,o),
(42,629,cs),
(38,613,o),
(36,595,o),
(35,578,cs),
(34,560,o),
(46,544,o),
(53,527,cs),
(55,522,o),
(55,517,o),
(55,511,cs),
(55,510,o),
(65,515,o),
(65,517,cs)
);
}
);
width = 135;
}
);
note = quotesingle;
unicode = (39,8216,8217,8218,8219,8249,8250);
},
{
glyphname = parenleft;
layers = (
{
hints = (
{
horizontal = 1;
place = (34.5,16.5);
type = Stem;
},
{
horizontal = 1;
place = (-10,21);
type = Stem;
},
{
place = (385,20);
type = Stem;
},
{
place = (364,27);
type = Stem;
},
{
place = (46,100);
type = Stem;
}
);
layerId = m01;
shapes = (
{
closed = 1;
nodes = (
(380,11,o),
(376,14,o),
(375,16,cs),
(369,29,o),
(337,32,o),
(324,34,c),
(382,35,l),
(385,34,o),
(384,30,o),
(385,27,cs),
(390,17,o),
(405,21,o),
(405,32,c),
(404,37,o),
(405,43,o),
(402,47,cs),
(398,53,o),
(389,52,o),
(385,46,cs),
(383,43,o),
(381,50,o),
(377,52,cs),
(324,73,ls),
(277,92,o),
(233,126,o),
(207,170,cs),
(196,189,o),
(182,208,o),
(174,228,cs),
(162,256,o),
(154,284,o),
(149,314,cs),
(142,363,o),
(149,415,o),
(162,463,cs),
(171,495,o),
(186,526,o),
(203,554,cs),
(236,609,o),
(280,657,o),
(331,696,cs),
(348,710,o),
(367,721,o),
(385,733,c),
(384,733,o),
(384,732,o),
(383,733,c),
(383,734,l),
(379,732,o),
(375,730,o),
(372,726,cs),
(371,725,o),
(367,722,o),
(365,722,c),
(321,696,o),
(277,668,o),
(237,636,cs),
(187,597,o),
(144,550,o),
(109,497,cs),
(72,439,o),
(47,369,o),
(46,300,cs),
(45,251,o),
(65,202,o),
(90,159,cs),
(111,123,o),
(139,87,o),
(176,67,cs),
(184,62,o),
(223,44,o),
(233,42,cs),
(236,41,o),
(253,38,o),
(256,36,cs),
(265,32,o),
(309,22,o),
(319,20,cs),
(325,19,o),
(358,9,o),
(364,8,c),
(357,-3,o),
(368,-11,o),
(381,-10,cs),
(394,-9,o),
(394,9,o),
(381,11,cs)
);
},
{
closed = 1;
nodes = (
(385,733,o),
(385,733,o),
(385,733,c)
);
}
);
width = 430;
}
);
note = parenleft;
unicode = 40;
},
{
glyphname = parenright;
layers = (
{
hints = (
{
horizontal = 1;
place = (25,7);
type = Stem;
},
{
horizontal = 1;
place = (5,27);
type = Stem;
},
{
horizontal = 1;
place = (-17,20);
type = Stem;
},
{
place = (246,80);
type = Stem;
},
{
place = (246,77);
type = Stem;
},
{
place = (26,20);
type = Stem;
}
);
layerId = m01;
shapes = (
{
closed = 1;
nodes = (
(91,1,o),
(94,2,o),
(95,4,c),
(123,28,o),
(153,50,o),
(178,77,cs),
(181,80,o),
(193,99,o),
(196,101,cs),
(227,123,o),
(252,153,o),
(274,183,cs),
(298,217,o),
(318,255,o),
(323,295,cs),
(329,347,o),
(326,402,o),
(313,453,cs),
(302,497,o),
(286,541,o),
(261,578,cs),
(253,589,o),
(213,632,o),
(202,640,cs),
(157,678,o),
(94,691,o),
(48,729,cs),
(44,732,o),
(38,728,o),
(34,725,c),
(36,719,o),
(42,715,o),
(46,711,cs),
(55,703,o),
(100,662,o),
(108,653,cs),
(118,641,o),
(162,569,o),
(171,556,cs),
(175,549,o),
(199,510,o),
(203,502,cs),
(224,458,o),
(237,409,o),
(242,360,cs),
(248,308,o),
(249,254,o),
(232,204,cs),
(219,164,o),
(193,127,o),
(165,96,cs),
(161,91,o),
(145,74,o),
(139,71,cs),
(109,58,o),
(78,44,o),
(51,25,c),
(51,25,o),
(52,25,o),
(51,24,c),
(51,19,o),
(47,20,o),
(46,25,cs),
(43,37,o),
(25,34,o),
(26,21,cs),
(27,6,o),
(45,-2,o),
(49,12,cs),
(50,15,o),
(54,16,o),
(56,18,cs),
(58,21,o),
(64,31,o),
(68,32,cs),
(103,45,o),
(135,64,o),
(167,83,c),
(160,70,o),
(151,57,o),
(140,46,cs),
(125,30,o),
(106,18,o),
(89,3,c),
(77,9,o),
(65,-4,o),
(74,-13,cs),
(84,-23,o),
(99,-11,o),
(92,0,cs)
);
}
);
width = 374;
}
);
note = parenright;
unicode = 41;
},
{
glyphname = plus;
layers = (
{
hints = (
{
horizontal = 1;
place = (324,19);
type = Stem;
},
{
horizontal = 1;
place = (324,10);
type = Stem;
},
{
horizontal = 1;
place = (299,10);
type = Stem;
},
{
horizontal = 1;
place = (288,9);
type = Stem;
},
{
horizontal = 1;
place = (268,50);
type = Stem;
},
{
horizontal = 1;
place = (104,19);
type = Stem;
},
{
horizontal = 1;
place = (95,22);
type = Stem;
},
{
place = (372,21);
type = Stem;
},
{
place = (370,23);
type = Stem;
},
{
place = (213,16);
type = Stem;
},
{
place = (185,44);
type = Stem;
},
{
place = (181,41);
type = Stem;
},
{
place = (171,20);
type = Stem;
}
);
layerId = m01;
shapes = (
{
closed = 1;
nodes = (
(193,105,o),
(192,111,o),
(188,115,c),
(190,123,o),
(200,146,o),
(206,152,c),
(208,153,o),
(213,157,o),
(213,155,c),
(216,144,o),
(219,134,o),
(223,123,c),
(212,128,o),
(202,115,o),
(210,107,cs),
(217,100,o),
(228,105,o),
(228,114,c),
(230,113,o),
(231,110,o),
(231,112,c),
(229,118,o),
(219,152,o),
(218,159,cs),
(218,160,o),
(222,161,o),
(222,162,c),
(224,165,o),
(229,178,o),
(229,182,cs),
(231,195,o),
(226,255,o),
(225,268,c),
(250,268,o),
(276,269,o),
(300,276,cs),
(314,280,o),
(325,287,o),
(337,295,cs),
(342,298,o),
(367,301,o),
(372,303,c),
(386,289,o),
(404,312,o),
(386,320,c),
(391,321,o),
(394,325,o),
(396,330,cs),
(400,344,o),
(378,349,o),
(374,334,c),
(371,334,o),
(357,332,o),
(354,331,c),
(343,331,o),
(332,334,o),
(322,333,c),
(319,332,o),
(304,328,o),
(302,327,cs),
(276,319,o),
(249,319,o),
(222,318,c),
(222,333,o),
(222,347,o),
(220,361,cs),
(219,374,o),
(201,443,o),
(198,456,cs),
(197,462,o),
(192,465,o),
(188,469,c),
(191,465,o),
(192,448,o),
(192,443,cs),
(192,438,o),
(189,425,o),
(186,421,cs),
(184,419,o),
(181,410,o),
(181,408,cs),
(180,396,o),
(177,329,o),
(178,317,c),
(152,316,o),
(125,316,o),
(100,309,cs),
(92,307,o),
(83,306,o),
(75,302,cs),
(65,297,o),
(36,294,o),
(25,297,c),
(24,298,o),
(31,289,o),
(33,288,c),
(46,286,o),
(60,288,o),
(74,286,cs),
(77,286,o),
(98,282,o),
(101,282,cs),
(109,281,o),
(117,281,o),
(125,280,cs),
(143,278,o),
(161,273,o),
(179,271,c),
(180,263,o),
(185,218,o),
(185,210,cs),
(186,196,o),
(191,182,o),
(188,169,cs),
(185,151,o),
(181,134,o),
(179,117,c),
(174,115,o),
(171,109,o),
(171,104,cs),
(172,94,o),
(186,91,o),
(191,101,cs)
);
},
{
closed = 1;
nodes = (
(355,310,o),
(362,319,o),
(364,320,cs),
(367,321,o),
(374,326,o),
(377,324,c),
(378,324,o),
(383,320,o),
(381,320,cs),
(376,320,o),
(372,317,o),
(370,312,c),
(365,310,o),
(359,309,o),
(354,309,c)
);
}
);
width = 425;
}
);
note = plus;
unicode = 43;
},
{
glyphname = comma;
layers = (
{
hints = (
{
horizontal = 1;
place = (66,18);
type = Stem;
},
{
horizontal = 1;
place = (-133,9);
type = Stem;
},
{
place = (93,36);
type = Stem;
},
{
place = (61,17);
type = Stem;
},
{
place = (24,21);
type = Stem;
}
);
layerId = m01;
shapes = (
{
closed = 1;
nodes = (
(87,-91,o),
(98,-77,o),
(106,-63,cs),
(121,-37,o),
(128,-6,o),
(129,24,cs),
(129,34,o),
(129,44,o),
(126,53,cs),
(120,77,o),
(94,91,o),
(71,81,cs),
(66,79,o),
(44,66,o),
(39,63,cs),
(24,53,o),
(18,26,o),
(24,8,cs),
(27,0,o),
(37,-6,o),
(45,-4,cs),
(51,-3,o),
(72,10,o),
(77,14,cs),
(84,19,o),
(81,31,o),
(78,40,c),
(76,43,o),
(72,40,o),
(69,39,c),
(67,37,o),
(61,35,o),
(61,31,cs),
(61,25,o),
(62,17,o),
(60,11,c),
(40,19,o),
(42,47,o),
(54,66,c),
(67,64,o),
(77,58,o),
(85,48,cs),
(104,21,o),
(85,-48,o),
(73,-78,cs),
(66,-93,o),
(56,-106,o),
(43,-116,cs),
(40,-119,o),
(34,-119,o),
(30,-116,c),
(28,-117,o),
(18,-123,o),
(16,-124,c),
(19,-128,l),
(20,-131,o),
(15,-133,o),
(17,-133,c),
(26,-129,o),
(65,-105,o),
(74,-100,cs)
);
}
);
width = 152;
}
);
note = comma;
unicode = 44;
},
{
glyphname = hyphen;
layers = (
{
hints = (
{
horizontal = 1;
place = (322,11);
type = Stem;
},
{
horizontal = 1;
place = (302,31);
type = Stem;
},
{
horizontal = 1;
place = (289,18);
type = Stem;
},
{
place = (461,22);
type = Stem;
},
{
place = (461,20);
type = Stem;
}
);
layerId = m01;
shapes = (
{
closed = 1;
nodes = (
(200,284,o),
(271,280,o),
(338,296,cs),
(349,299,o),
(402,302,o),
(414,302,cs),
(429,302,o),
(445,301,o),
(461,299,c),
(462,282,o),
(489,288,o),
(481,304,cs),
(478,312,o),
(467,313,o),
(462,306,c),
(434,309,o),
(405,311,o),
(377,308,c),
(389,312,o),
(449,330,o),
(461,331,c),
(464,320,o),
(480,318,o),
(483,330,cs),
(486,342,o),
(469,348,o),
(462,338,c),
(451,337,o),
(393,334,o),
(382,333,cs),
(356,333,o),
(331,336,o),
(305,336,cs),
(243,335,o),
(182,329,o),
(121,321,cs),
(92,317,o),
(65,311,o),
(37,308,cs),
(31,307,o),
(26,304,o),
(22,301,cs),
(20,300,o),
(17,298,o),
(18,298,c),
(20,297,o),
(29,291,o),
(31,291,c),
(36,289,o),
(70,286,o),
(75,285,cs),
(93,280,o),
(112,283,o),
(131,283,cs)
);
}
);
width = 503;
}
);
note = hyphen;
unicode = 45;
},
{
glyphname = period;
layers = (
{
hints = (
{
horizontal = 1;
place = (103,13);
type = Stem;
},
{
horizontal = 1;
place = (13,7);
type = Stem;
},
{
horizontal = 1;
place = (-9,19);
type = Stem;
},
{
place = (120,29);
type = Stem;
},
{
place = (86,13);
type = Stem;
},
{
place = (57,12);
type = Stem;
},
{
place = (26,16);
type = Stem;
}
);
layerId = m01;
shapes = (
{
closed = 1;
nodes = (
(92,-6,o),
(125,13,o),
(133,18,cs),
(145,26,o),
(151,45,o),
(149,60,cs),
(144,100,o),
(105,129,o),
(68,111,cs),
(55,104,o),
(39,96,o),
(32,83,cs),
(19,57,o),
(27,24,o),
(54,13,c),
(55,12,o),
(51,12,o),
(52,11,cs),
(56,7,o),
(60,5,o),
(63,1,cs),
(65,-3,o),
(65,-7,o),
(69,-9,cs),
(72,-10,o),
(80,-9,o),
(83,-8,cs)
);
},
{
closed = 1;
nodes = (
(52,97,o),
(56,103,o),
(58,103,cs),
(71,105,o),
(85,100,o),
(95,92,cs),
(117,73,o),
(128,36,o),
(113,11,c),
(101,10,o),
(90,8,o),
(79,10,cs),
(77,10,o),
(71,12,o),
(73,13,cs),
(76,14,o),
(87,21,o),
(90,22,c),
(101,30,o),
(101,51,o),
(96,64,cs),
(92,73,o),
(83,80,o),
(74,75,cs),
(67,72,o),
(59,68,o),
(57,61,cs),
(56,55,o),
(57,46,o),
(62,41,c),
(63,42,o),
(71,46,o),
(72,47,c),
(67,53,o),
(66,63,o),
(69,70,c),
(74,69,o),
(80,64,o),
(82,59,cs),
(87,47,o),
(87,32,o),
(81,20,c),
(45,22,o),
(31,65,o),
(51,95,cs)
);
}
);
width = 175;
}
);
note = period;
unicode = 46;
},
{
glyphname = zero;
layers = (
{
hints = (
{
horizontal = 1;
place = (718,12);
type = Stem;
},
{
horizontal = 1;
place = (615,36);
type = Stem;
},
{
horizontal = 1;
place = (615,31);
type = Stem;
},
{
place = (433,89);
type = Stem;
},
{
place = (243,28);
type = Stem;
},
{
place = (50,91.5);
type = Stem;
}
);
layerId = m01;
shapes = (
{
closed = 1;
nodes = (
(310,32,o),
(388,78,o),
(404,94,cs),
(425,114,o),
(441,140,o),
(454,166,cs),
(492,237,o),
(511,319,o),
(518,400,cs),
(522,439,o),
(525,481,o),
(513,520,cs),
(506,541,o),
(502,563,o),
(491,583,cs),
(487,591,o),
(480,597,o),
(473,603,cs),
(472,604,o),
(467,613,o),
(466,615,cs),
(462,621,o),
(439,648,o),
(434,653,c),
(424,667,o),
(415,682,o),
(402,692,cs),
(385,705,o),
(365,712,o),
(344,717,cs),
(320,722,o),
(294,728,o),
(269,724,c),
(266,732,o),
(254,732,o),
(248,724,cs),
(247,723,o),
(247,721,o),
(246,720,cs),
(238,712,o),
(246,700,o),
(257,703,c),
(264,702,o),
(271,711,o),
(271,718,c),
(277,717,o),
(303,708,o),
(309,705,cs),
(313,703,o),
(331,688,o),
(335,684,c),
(321,679,o),
(305,680,o),
(291,673,cs),
(281,667,o),
(270,660,o),
(262,651,c),
(249,660,o),
(240,639,o),
(244,624,cs),
(248,611,o),
(266,613,o),
(271,625,cs),
(275,633,o),
(274,643,o),
(266,646,c),
(269,651,o),
(280,665,o),
(285,668,cs),
(290,671,o),
(320,677,o),
(326,678,cs),
(329,679,o),
(337,681,o),
(339,679,c),
(340,677,o),
(341,679,o),
(343,677,cs),
(351,670,o),
(389,639,o),
(395,631,cs),
(407,615,o),
(416,596,o),
(422,577,cs),
(423,573,o),
(422,555,o),
(422,551,cs),
(422,543,o),
(428,506,o),
(429,499,cs),
(430,488,o),
(433,425,o),
(433,414,cs),
(433,341,o),
(421,268,o),
(404,197,cs),
(392,149,o),
(370,102,o),
(338,64,c),
(317,63,o),
(296,70,o),
(278,79,cs),
(246,96,o),
(218,123,o),
(197,152,cs),
(188,166,o),
(176,180,o),
(170,197,cs),
(159,226,o),
(148,255,o),
(144,286,cs),
(140,326,o),
(137,367,o),
(139,407,cs),
(140,444,o),
(145,482,o),
(153,518,cs),
(160,555,o),
(170,592,o),
(191,622,cs),
(208,649,o),
(237,668,o),
(266,680,cs),
(269,681,o),
(281,688,o),
(284,690,c),
(282,690,o),
(278,688,o),
(276,687,cs),
(212,659,o),
(150,611,o),
(118,549,cs),
(105,525,o),
(94,501,o),
(84,475,cs),
(61,415,o),
(47,348,o),
(50,283,cs),
(53,235,o),
(67,187,o),
(89,144,cs),
(108,110,o),
(131,75,o),
(164,54,cs),
(187,40,o),
(212,26,o),
(239,21,cs),
(255,18,o),
(273,18,o),
(288,24,cs)
);
}
);
width = 573;
}
);
note = zero;
unicode = 48;
},
{
glyphname = one;
layers = (
{
hints = (
{
horizontal = 1;
place = (6,33);
type = Stem;
},
{
place = (183,15);
type = Stem;
},
{
place = (177,23);
type = Stem;
},
{
place = (139,12);
type = Stem;
},
{
place = (131,23);
type = Stem;
},
{
place = (119,68);
type = Stem;
}
);
layerId = m01;
shapes = (
{
closed = 1;
nodes = (
(154,19,o),
(150,34,o),
(151,36,c),
(151,42,o),
(157,71,o),
(159,77,c),
(161,72,o),
(170,56,o),
(175,52,cs),
(179,49,o),
(184,48,o),
(188,42,c),
(188,41,o),
(189,40,o),
(188,40,c),
(179,33,o),
(181,15,o),
(192,12,cs),
(205,8,o),
(214,21,o),
(208,33,cs),
(207,35,o),
(205,37,o),
(203,39,c),
(201,40,o),
(198,50,o),
(197,52,cs),
(196,56,o),
(198,62,o),
(198,67,c),
(196,76,o),
(179,120,o),
(176,128,c),
(178,138,o),
(182,149,o),
(183,159,cs),
(185,184,o),
(185,210,o),
(184,235,cs),
(183,260,o),
(185,286,o),
(187,312,cs),
(188,329,o),
(188,420,o),
(187,437,cs),
(186,474,o),
(179,511,o),
(181,548,cs),
(182,569,o),
(189,590,o),
(193,611,cs),
(195,624,o),
(202,678,o),
(200,691,cs),
(200,696,o),
(193,697,o),
(188,696,cs),
(181,694,o),
(155,679,o),
(149,675,cs),
(130,663,o),
(56,603,o),
(41,586,cs),
(37,582,l),
(42,584,o),
(47,587,o),
(51,591,cs),
(65,604,o),
(145,669,o),
(160,680,cs),
(167,685,o),
(178,683,o),
(177,675,cs),
(174,655,o),
(166,636,o),
(160,617,cs),
(156,605,o),
(141,535,o),
(138,523,cs),
(128,487,o),
(121,450,o),
(119,412,cs),
(118,393,o),
(119,294,o),
(121,275,cs),
(129,229,ls),
(130,217,o),
(134,138,o),
(135,125,cs),
(137,106,o),
(135,86,o),
(138,67,cs),
(140,39,l),
(133,37,o),
(130,27,o),
(131,19,cs),
(132,3,o),
(153,1,o),
(154,17,cs)
);
}
);
width = 267;
}
);
note = one;
unicode = 49;
},
{
glyphname = two;
layers = (
{
hints = (
{
horizontal = 1;
place = (676,20);
type = Stem;
},
{
horizontal = 1;
place = (37,33);
type = Stem;
},
{
horizontal = 1;
place = (37,12);
type = Stem;
},
{
horizontal = 1;
place = (-4,43);
type = Stem;
},
{
place = (506,28);
type = Stem;
},
{
place = (486,48);
type = Stem;
},
{
place = (486,34);
type = Stem;
},
{
place = (84,13);
type = Stem;
}
);
layerId = m01;
shapes = (
{
closed = 1;
nodes = (
(212,-1,o),
(256,-2,o),
(299,4,cs),
(332,9,o),
(363,15,o),
(395,24,c),
(393,23,o),
(390,21,o),
(391,21,c),
(393,22,o),
(395,24,o),
(398,24,cs),
(429,28,o),
(461,30,o),
(492,38,c),
(497,40,o),
(502,43,o),
(506,45,c),
(509,37,o),
(518,34,o),
(524,40,cs),
(525,41,o),
(527,43,o),
(528,43,c),
(536,47,o),
(536,58,o),
(528,62,cs),
(526,63,o),
(525,65,o),
(524,66,cs),
(516,76,o),
(501,65,o),
(507,55,cs),
(508,53,o),
(507,49,o),
(505,49,c),
(494,45,o),
(432,34,o),
(420,32,c),
(448,43,o),
(474,58,o),
(499,74,c),
(509,73,o),
(520,76,o),
(520,86,c),
(525,92,o),
(522,101,o),
(515,104,cs),
(510,106,o),
(504,104,o),
(499,102,cs),
(488,98,o),
(482,85,o),
(490,78,cs),
(493,75,l),
(472,57,o),
(441,53,o),
(413,49,cs),
(380,45,o),
(203,39,o),
(169,39,cs),
(156,39,o),
(141,42,o),
(129,49,cs),
(122,53,o),
(120,67,o),
(121,74,cs),
(124,98,o),
(139,119,o),
(152,138,cs),
(175,170,o),
(201,200,o),
(228,228,cs),
(269,271,o),
(314,311,o),
(345,362,cs),
(375,411,o),
(401,465,o),
(412,522,cs),
(415,538,o),
(414,554,o),
(412,570,cs),
(409,584,o),
(406,598,o),
(401,611,cs),
(390,635,o),
(371,655,o),
(350,672,cs),
(320,694,o),
(277,700,o),
(240,696,cs),
(209,693,o),
(181,677,o),
(155,661,cs),
(134,649,o),
(114,633,o),
(103,612,cs),
(88,585,o),
(82,551,o),
(84,520,cs),
(85,509,o),
(86,496,o),
(93,488,c),
(94,488,o),
(102,493,o),
(103,493,c),
(96,498,o),
(97,509,o),
(97,517,cs),
(98,553,o),
(106,589,o),
(123,620,cs),
(134,639,o),
(150,655,o),
(168,667,cs),
(183,679,o),
(228,678,o),
(246,673,cs),
(266,668,o),
(283,655,o),
(298,642,cs),
(323,620,o),
(339,587,o),
(346,555,cs),
(353,519,o),
(349,481,o),
(337,447,cs),
(322,405,o),
(303,364,o),
(278,327,cs),
(259,298,o),
(235,273,o),
(210,248,cs),
(161,198,o),
(108,151,o),
(65,95,cs),
(51,75,o),
(37,49,o),
(41,25,cs),
(42,16,o),
(47,6,o),
(55,1,cs),
(74,-13,o),
(144,-6,o),
(168,-4,cs)
);
}
);
width = 559;
}
);
note = two;
unicode = 50;
},
{
glyphname = three;
layers = (
{
hints = (
{
horizontal = 1;
place = (671,36);
type = Stem;
},
{
horizontal = 1;
place = (172,13);
type = Stem;
},
{
horizontal = 1;
place = (159,26);
type = Stem;
},
{
horizontal = 1;
place = (8,44);
type = Stem;
},
{
horizontal = 1;
place = (3,49);
type = Stem;
},
{
place = (439,68);
type = Stem;
},
{
place = (424,71);
type = Stem;
},
{
place = (114,14);
type = Stem;
}
);
layerId = m01;
shapes = (
{
closed = 1;
nodes = (
(321,9,o),
(346,13,o),
(367,24,cs),
(381,31,o),
(449,69,o),
(462,79,cs),
(477,90,o),
(490,106,o),
(497,124,cs),
(511,159,o),
(509,200,o),
(501,236,cs),
(493,269,o),
(472,300,o),
(447,322,cs),
(405,359,o),
(346,379,o),
(290,385,c),
(317,395,o),
(422,456,o),
(444,474,cs),
(491,513,o),
(513,588,o),
(478,638,cs),
(459,665,o),
(429,683,o),
(399,694,cs),
(348,711,o),
(290,712,o),
(239,695,cs),
(227,690,o),
(175,661,o),
(164,654,cs),
(155,648,o),
(146,640,o),
(139,632,cs),
(128,618,o),
(109,581,o),
(114,564,cs),
(115,558,o),
(122,562,o),
(127,566,c),
(128,566,o),
(128,569,o),
(128,570,c),
(131,579,o),
(133,588,o),
(137,597,cs),
(143,614,o),
(152,631,o),
(164,645,cs),
(167,649,o),
(182,663,o),
(186,665,cs),
(197,671,o),
(238,672,o),
(250,671,cs),
(270,669,o),
(290,665,o),
(309,659,cs),
(365,644,o),
(431,593,o),
(424,536,cs),
(420,497,o),
(397,458,o),
(367,432,c),
(324,417,o),
(277,412,o),
(235,395,cs),
(224,391,o),
(177,363,o),
(167,356,c),
(166,356,o),
(169,353,o),
(171,354,c),
(186,353,l),
(213,348,o),
(241,346,o),
(267,340,cs),
(289,335,o),
(309,327,o),
(329,317,cs),
(345,308,o),
(360,300,o),
(374,288,cs),
(389,276,o),
(403,260,o),
(413,243,cs),
(419,235,o),
(422,225,o),
(426,215,cs),
(438,185,o),
(442,150,o),
(439,117,cs),
(437,95,o),
(425,74,o),
(411,57,c),
(366,48,o),
(318,51,o),
(274,64,cs),
(249,71,o),
(223,79,o),
(201,93,cs),
(194,97,o),
(167,116,o),
(161,123,cs),
(143,142,ls),
(133,154,o),
(125,168,o),
(113,178,c),
(116,186,o),
(108,199,o),
(100,198,cs),
(98,198,o),
(96,197,o),
(94,197,c),
(85,200,o),
(78,189,o),
(83,181,cs),
(87,176,o),
(95,167,o),
(102,169,c),
(109,154,o),
(107,136,o),
(107,120,c),
(95,134,o),
(89,154,o),
(74,165,cs),
(69,168,o),
(64,170,o),
(60,172,c),
(61,186,o),
(39,190,o),
(35,177,cs),
(34,173,o),
(32,170,o),
(33,167,cs),
(35,158,o),
(48,156,o),
(54,163,c),
(56,164,o),
(58,162,o),
(60,161,cs),
(68,155,o),
(71,143,o),
(75,134,cs),
(82,118,o),
(91,103,o),
(95,87,c),
(96,77,l),
(102,69,o),
(109,62,o),
(117,57,cs),
(119,56,o),
(122,56,o),
(123,54,c),
(129,48,o),
(134,41,o),
(140,36,cs),
(156,23,o),
(174,15,o),
(193,10,cs),
(227,1,o),
(263,1,o),
(297,6,cs)
);
}
);
width = 561;
}
);
note = three;
unicode = 51;
},
{
glyphname = four;
layers = (
{
hints = (
{
horizontal = 1;
place = (257,25);
type = Stem;
},
{
horizontal = 1;
place = (240,11);
type = Stem;
},
{
horizontal = 1;
place = (227,24);
type = Stem;
},
{
horizontal = 1;
place = (200,31);
type = Stem;
},
{
horizontal = 1;
place = (188,22);
type = Stem;
},
{
horizontal = 1;
place = (176,34);
type = Stem;
},
{
place = (470,20);
type = Stem;
},
{
place = (310,10);
type = Stem;
},
{
place = (303,48);
type = Stem;
},
{
place = (288,48);
type = Stem;
},
{
place = (33,45);
type = Stem;
}
);
layerId = m01;
shapes = (
{
closed = 1;
nodes = (
(320,15,o),
(316,58,o),
(315,65,cs),
(313,110,o),
(314,156,o),
(324,200,c),
(336,204,o),
(348,207,o),
(360,209,cs),
(398,213,o),
(434,227,o),
(470,240,c),
(468,225,o),
(488,221,o),
(490,236,cs),
(490,239,l),
(494,252,o),
(476,257,o),
(470,245,c),
(435,233,o),
(399,221,o),
(363,214,c),
(395,228,o),
(426,245,o),
(457,263,c),
(466,249,o),
(481,261,o),
(474,276,cs),
(468,289,o),
(448,280,o),
(454,268,cs),
(455,266,o),
(457,264,o),
(456,263,c),
(436,251,o),
(415,241,o),
(392,237,cs),
(384,236,o),
(338,231,o),
(329,231,c),
(330,237,o),
(336,274,o),
(336,280,cs),
(341,339,o),
(342,397,o),
(344,455,cs),
(344,466,o),
(349,532,o),
(350,543,cs),
(351,570,o),
(352,598,o),
(351,625,cs),
(351,628,o),
(349,643,o),
(348,645,c),
(348,652,o),
(347,680,o),
(344,686,c),
(338,693,ls),
(335,698,o),
(330,702,o),
(324,700,c),
(319,697,o),
(295,684,o),
(291,679,c),
(273,663,o),
(258,643,o),
(243,624,cs),
(214,587,o),
(192,545,o),
(172,502,c),
(170,496,o),
(152,458,o),
(150,452,cs),
(123,389,o),
(85,331,o),
(55,269,cs),
(50,259,o),
(33,219,o),
(33,207,cs),
(33,202,o),
(36,197,o),
(40,194,cs),
(55,181,o),
(76,177,o),
(95,176,cs),
(113,174,o),
(209,187,o),
(226,188,cs),
(248,189,o),
(269,189,o),
(290,193,c),
(291,180,o),
(294,168,o),
(296,155,cs),
(299,135,o),
(299,115,o),
(301,94,cs),
(302,81,o),
(311,15,o),
(310,1,cs),
(310,0,o),
(320,6,o),
(320,7,cs)
);
},
{
closed = 1;
nodes = (
(78,242,o),
(108,297,o),
(116,312,cs),
(134,345,o),
(153,379,o),
(170,412,cs),
(235,540,ls),
(244,558,o),
(291,658,o),
(302,675,c),
(304,677,o),
(303,673,o),
(303,670,cs),
(301,652,o),
(299,634,o),
(297,616,c),
(291,591,l),
(289,567,o),
(287,543,o),
(287,519,cs),
(287,487,o),
(290,455,o),
(288,423,cs),
(285,358,o),
(280,292,o),
(288,227,c),
(259,224,o),
(231,219,o),
(202,215,cs),
(182,213,o),
(108,206,o),
(89,213,cs),
(85,214,o),
(78,220,o),
(78,225,cs)
);
}
);
width = 516;
}
);
note = four;
unicode = 52;
},
{
glyphname = five;
layers = (
{
hints = (
{
horizontal = 1;
place = (439,37);
type = Stem;
},
{
horizontal = 1;
place = (217,22);
type = Stem;
},
{
horizontal = 1;
place = (214,25);
type = Stem;
},
{
horizontal = 1;
place = (34,40);
type = Stem;
},
{
place = (420.5,13.5);
type = Stem;
},
{
place = (401,84);
type = Stem;
},
{
place = (112,49);
type = Stem;
}
);
layerId = m01;
shapes = (
{
closed = 1;
nodes = (
(317,50,o),
(374,84,o),
(385,92,cs),
(402,105,o),
(418,120,o),
(432,137,cs),
(443,149,o),
(453,162,o),
(460,176,cs),
(486,226,o),
(491,288,o),
(479,342,cs),
(474,367,o),
(463,391,o),
(448,412,cs),
(439,424,o),
(427,435,o),
(416,445,cs),
(404,456,o),
(388,463,o),
(372,470,cs),
(338,483,o),
(297,474,o),
(265,457,cs),
(232,440,o),
(199,421,o),
(171,397,c),
(164,398,o),
(160,402,o),
(159,410,cs),
(157,422,o),
(162,492,o),
(161,505,cs),
(160,546,o),
(157,588,o),
(166,628,cs),
(168,636,o),
(173,657,o),
(179,661,cs),
(182,663,o),
(193,664,o),
(195,665,c),
(206,667,o),
(265,671,o),
(275,672,cs),
(324,675,o),
(373,680,o),
(421,691,c),
(420,689,l),
(427,693,o),
(439,700,o),
(431,700,cs),
(425,699,o),
(388,694,o),
(382,694,cs),
(356,692,o),
(331,692,o),
(306,689,cs),
(290,688,o),
(211,676,o),
(195,671,cs),
(189,669,o),
(169,658,o),
(165,654,cs),
(160,649,o),
(158,643,o),
(156,638,cs),
(131,567,o),
(126,490,o),
(115,416,cs),
(113,402,o),
(107,378,o),
(119,372,cs),
(126,368,o),
(135,370,o),
(142,373,cs),
(151,378,o),
(193,402,o),
(201,408,cs),
(212,416,o),
(222,425,o),
(232,434,c),
(253,440,o),
(277,441,o),
(297,434,cs),
(311,429,o),
(323,419,o),
(334,409,cs),
(370,377,o),
(384,325,o),
(393,278,cs),
(401,232,o),
(406,181,o),
(390,137,cs),
(381,112,o),
(363,92,o),
(344,74,c),
(310,69,o),
(272,71,o),
(240,83,cs),
(211,94,o),
(187,115,o),
(166,137,cs),
(164,139,o),
(156,147,o),
(155,149,cs),
(143,171,o),
(130,193,o),
(122,217,c),
(129,220,o),
(132,227,o),
(128,233,cs),
(120,244,o),
(103,240,o),
(100,227,cs),
(98,219,o),
(104,214,o),
(111,214,c),
(112,193,o),
(119,173,o),
(125,153,c),
(109,169,o),
(94,187,o),
(79,205,cs),
(76,209,o),
(68,215,o),
(69,220,cs),
(71,227,o),
(66,233,o),
(58,233,c),
(56,232,o),
(54,231,o),
(52,231,cs),
(43,231,o),
(36,226,o),
(38,218,c),
(39,216,o),
(38,214,o),
(38,213,cs),
(37,200,o),
(50,194,o),
(62,199,c),
(72,179,o),
(76,155,o),
(88,135,cs),
(98,115,o),
(115,100,o),
(131,85,c),
(134,83,o),
(155,71,o),
(158,68,c),
(158,68,o),
(161,64,o),
(161,63,c),
(174,48,o),
(193,37,o),
(213,34,cs),
(243,30,o),
(277,31,o),
(305,45,cs)
);
}
);
width = 532;
}
);
note = five;
unicode = 53;
},
{
glyphname = six;
layers = (
{
hints = (
{
horizontal = 1;
place = (462,17);
type = Stem;
},
{
horizontal = 1;
place = (449,30);
type = Stem;
},
{
horizontal = 1;
place = (427,17);
type = Stem;
},
{
horizontal = 1;
place = (423,21);
type = Stem;
},
{
horizontal = 1;
place = (346,22);
type = Stem;
},
{
horizontal = 1;
place = (346,18);
type = Stem;
},
{
horizontal = 1;
place = (14,49);
type = Stem;
},
{
place = (412,73);
type = Stem;
},
{
place = (202,29);
type = Stem;
},
{
place = (49,92);
type = Stem;
}
);
layerId = m01;
shapes = (
{
closed = 1;
nodes = (
(310,33,o),
(371,69,o),
(382,75,cs),
(411,94,o),
(431,125,o),
(448,154,cs),
(463,180,o),
(472,210,o),
(480,239,cs),
(484,257,o),
(486,275,o),
(485,293,cs),
(485,307,o),
(484,321,o),
(478,333,cs),
(462,366,o),
(434,394,o),
(403,415,cs),
(383,428,o),
(361,441,o),
(337,444,c),
(329,446,o),
(286,444,o),
(279,444,c),
(265,446,o),
(250,451,o),
(239,458,cs),
(236,460,o),
(234,461,o),
(231,462,c),
(232,468,o),
(229,473,o),
(223,475,c),
(205,493,o),
(191,449,o),
(216,449,c),
(218,444,o),
(223,439,o),
(228,436,cs),
(242,429,o),
(260,431,o),
(275,427,c),
(266,424,o),
(258,420,o),
(249,416,cs),
(227,404,o),
(204,390,o),
(191,368,c),
(180,373,o),
(167,363,o),
(174,353,cs),
(184,338,o),
(203,349,o),
(195,364,c),
(205,380,o),
(219,393,o),
(233,405,cs),
(247,416,o),
(267,421,o),
(285,423,cs),
(287,423,o),
(291,420,o),
(293,419,cs),
(328,402,o),
(359,376,o),
(381,344,cs),
(386,338,o),
(399,310,o),
(401,303,cs),
(403,297,o),
(409,262,o),
(410,255,cs),
(411,247,o),
(412,209,o),
(412,201,cs),
(410,178,o),
(401,157,o),
(392,137,cs),
(379,110,o),
(362,85,o),
(342,63,c),
(303,58,o),
(258,67,o),
(228,93,cs),
(198,119,o),
(173,154,o),
(160,192,cs),
(148,229,o),
(141,267,o),
(141,306,cs),
(140,338,o),
(144,370,o),
(148,402,cs),
(157,466,o),
(182,529,o),
(218,583,cs),
(229,600,o),
(244,615,o),
(258,629,cs),
(270,642,o),
(325,691,o),
(340,699,cs),
(345,702,o),
(351,704,o),
(356,708,c),
(329,699,o),
(245,630,o),
(224,612,cs),
(180,575,o),
(141,531,o),
(110,483,cs),
(88,447,o),
(75,405,o),
(63,365,cs),
(52,327,o),
(49,287,o),
(49,248,cs),
(49,218,o),
(52,187,o),
(61,158,cs),
(71,126,o),
(87,97,o),
(107,71,cs),
(121,53,o),
(139,37,o),
(159,28,cs),
(181,18,o),
(205,15,o),
(229,14,cs),
(253,14,o),
(278,17,o),
(299,28,cs)
);
}
);
width = 526;
}
);
note = six;
unicode = 54;
},
{
glyphname = seven;
layers = (
{
hints = (
{
horizontal = 1;
place = (698,15);
type = Stem;
},
{
horizontal = 1;
place = (667,8);
type = Stem;
},
{
place = (350,33);
type = Stem;
},
{
place = (113,24);
type = Stem;
},
{
place = (49,22);
type = Stem;
}
);
layerId = m01;
shapes = (
{
closed = 1;
nodes = (
(83,11,o),
(93,22,o),
(101,35,cs),
(122,66,l),
(118,51,o),
(115,35,o),
(118,19,c),
(109,12,o),
(111,-1,o),
(123,-2,cs),
(134,-3,o),
(142,10,o),
(134,18,cs),
(132,20,o),
(135,24,o),
(137,26,c),
(141,36,o),
(142,86,o),
(144,96,cs),
(144,98,o),
(149,105,o),
(150,106,c),
(159,122,o),
(167,137,o),
(173,153,cs),
(182,176,o),
(235,316,o),
(245,338,cs),
(253,358,o),
(298,474,o),
(307,493,cs),
(320,522,o),
(334,551,o),
(349,579,c),
(355,596,l),
(366,618,o),
(392,668,o),
(380,689,cs),
(377,694,o),
(375,701,o),
(370,705,cs),
(363,711,o),
(352,712,o),
(342,713,cs),
(334,713,o),
(288,708,o),
(280,707,cs),
(210,700,o),
(141,681,o),
(70,675,cs),
(66,675,o),
(46,674,o),
(42,672,c),
(40,672,o),
(33,667,o),
(32,667,c),
(38,669,o),
(45,667,o),
(51,667,cs),
(75,666,o),
(98,668,o),
(122,671,cs),
(188,679,o),
(253,693,o),
(318,698,cs),
(326,698,o),
(335,698,o),
(341,694,cs),
(357,684,o),
(348,656,o),
(341,639,cs),
(329,611,o),
(312,585,o),
(294,560,cs),
(270,526,o),
(248,492,o),
(229,456,cs),
(182,368,o),
(148,273,o),
(117,178,cs),
(113,166,o),
(93,99,o),
(91,86,cs),
(88,71,o),
(83,56,o),
(80,42,cs),
(79,36,o),
(68,14,o),
(65,9,c),
(47,13,o),
(42,-15,o),
(60,-13,cs),
(69,-12,o),
(74,-5,o),
(71,4,c)
);
}
);
width = 413;
}
);
note = seven;
unicode = 55;
},
{
glyphname = eight;
layers = (
{
hints = (
{
horizontal = 1;
place = (682,17);
type = Stem;
},
{
horizontal = 1;
place = (363,12);
type = Stem;
},
{
horizontal = 1;
place = (330,23);
type = Stem;
},
{
horizontal = 1;
place = (29,25);
type = Stem;
},
{
place = (335,46);
type = Stem;
},
{
place = (302,35);
type = Stem;
},
{
place = (165,24);
type = Stem;
},
{
place = (119,12);
type = Stem;
},
{
place = (69,17);
type = Stem;
},
{
place = (60,40);
type = Stem;
},
{
place = (55,31);
type = Stem;
}
);
layerId = m01;
shapes = (
{
closed = 1;
nodes = (
(278,37,o),
(310,55,o),
(340,74,cs),
(350,80,o),
(360,88,o),
(366,98,cs),
(373,108,o),
(376,120,o),
(378,132,cs),
(387,178,o),
(374,229,o),
(353,270,cs),
(343,291,o),
(275,382,o),
(262,400,cs),
(260,402,o),
(247,413,o),
(244,415,c),
(278,445,o),
(310,481,o),
(326,524,cs),
(347,582,o),
(342,664,o),
(287,692,cs),
(268,702,o),
(243,701,o),
(222,695,cs),
(189,686,o),
(158,670,o),
(131,650,cs),
(104,630,o),
(86,599,o),
(73,568,cs),
(62,545,o),
(57,517,o),
(63,492,cs),
(71,462,o),
(93,436,o),
(118,418,cs),
(128,411,o),
(186,383,o),
(196,377,c),
(190,373,o),
(184,369,o),
(178,365,c),
(175,362,l),
(183,366,o),
(190,372,o),
(197,376,c),
(206,371,o),
(215,364,o),
(223,357,cs),
(247,339,o),
(266,315,o),
(283,290,cs),
(314,245,o),
(334,190,o),
(335,135,cs),
(336,110,o),
(332,80,o),
(314,62,c),
(274,50,o),
(228,53,o),
(188,65,cs),
(168,71,o),
(149,82,o),
(132,93,cs),
(120,101,o),
(97,140,o),
(92,154,cs),
(85,176,o),
(81,201,o),
(86,224,cs),
(90,241,o),
(98,258,o),
(110,272,cs),
(123,288,o),
(142,299,o),
(157,313,cs),
(163,318,o),
(168,324,o),
(173,330,c),
(185,327,o),
(194,343,o),
(185,350,cs),
(173,360,o),
(158,343,o),
(169,332,c),
(161,323,o),
(153,314,o),
(143,306,cs),
(127,291,o),
(107,280,o),
(92,264,c),
(105,285,o),
(116,306,o),
(126,328,c),
(129,332,o),
(134,343,o),
(132,348,cs),
(131,351,o),
(130,354,o),
(131,357,cs),
(131,358,o),
(133,362,o),
(134,363,c),
(137,375,o),
(121,380,o),
(114,370,cs),
(110,364,o),
(113,357,o),
(119,354,c),
(119,353,ls),
(119,344,o),
(106,311,o),
(102,303,cs),
(93,282,o),
(82,261,o),
(71,241,c),
(70,240,o),
(69,233,o),
(69,232,c),
(50,195,o),
(53,148,o),
(64,108,cs),
(67,95,o),
(87,61,o),
(98,53,cs),
(120,38,o),
(147,33,o),
(173,29,cs),
(197,26,o),
(221,26,o),
(244,30,cs)
);
},
{
closed = 1;
nodes = (
(112,604,o),
(124,629,o),
(142,649,cs),
(144,652,o),
(157,665,o),
(160,667,c),
(163,668,o),
(178,674,o),
(182,675,cs),
(197,679,o),
(214,683,o),
(230,682,cs),
(242,680,o),
(254,676,o),
(263,668,cs),
(278,655,o),
(290,638,o),
(296,619,cs),
(305,587,o),
(303,552,o),
(295,520,cs),
(292,506,o),
(288,491,o),
(281,478,cs),
(271,456,o),
(256,436,o),
(240,419,c),
(211,437,o),
(179,450,o),
(149,469,cs),
(142,473,o),
(121,495,o),
(116,502,cs),
(100,526,o),
(96,553,o),
(104,579,cs)
);
}
);
width = 430;
}
);
note = eight;
unicode = 56;
},
{
glyphname = nine;
layers = (
{
hints = (
{
horizontal = 1;
place = (651,30);
type = Stem;
},
{
horizontal = 1;
place = (280,12);
type = Stem;
},
{
place = (357,95);
type = Stem;
},
{
place = (134,30);
type = Stem;
},
{
place = (44,43);
type = Stem;
}
);
layerId = m01;
shapes = (
{
closed = 1;
nodes = (
(166,-11,o),
(172,-5,o),
(177,2,cs),
(183,10,o),
(213,57,o),
(218,66,c),
(221,69,o),
(231,87,o),
(234,90,cs),
(296,148,o),
(359,211,o),
(400,286,cs),
(414,312,o),
(424,341,o),
(434,370,cs),
(440,386,o),
(445,402,o),
(448,419,cs),
(454,448,o),
(453,479,o),
(448,508,cs),
(442,547,o),
(431,589,o),
(407,620,cs),
(387,647,o),
(355,665,o),
(323,676,cs),
(310,681,o),
(296,681,o),
(282,681,cs),
(253,682,o),
(224,676,o),
(198,663,cs),
(166,646,o),
(134,628,o),
(110,602,cs),
(84,575,o),
(67,540,o),
(54,504,cs),
(45,480,o),
(44,452,o),
(44,426,cs),
(45,381,o),
(73,333,o),
(111,308,cs),
(146,286,o),
(193,273,o),
(233,285,c),
(239,286,o),
(262,299,o),
(267,302,c),
(262,301,o),
(257,298,o),
(252,295,cs),
(240,287,o),
(208,298,o),
(194,302,cs),
(171,310,o),
(149,323,o),
(133,341,cs),
(106,371,o),
(91,414,o),
(87,454,cs),
(84,497,o),
(94,542,o),
(115,580,cs),
(126,599,o),
(139,619,o),
(156,634,c),
(158,635,o),
(168,644,o),
(170,645,cs),
(181,651,o),
(217,654,o),
(229,651,cs),
(240,649,o),
(249,644,o),
(259,639,cs),
(289,622,o),
(313,592,o),
(327,560,cs),
(337,537,o),
(345,514,o),
(349,489,cs),
(357,445,o),
(361,399,o),
(357,354,cs),
(354,325,o),
(345,297,o),
(334,270,cs),
(304,194,o),
(253,127,o),
(195,69,cs),
(187,61,o),
(139,18,o),
(132,9,c),
(124,17,o),
(113,12,o),
(108,2,cs),
(104,-8,o),
(115,-17,o),
(124,-11,cs),
(129,-7,o),
(135,0,o),
(133,7,c),
(160,26,o),
(185,46,o),
(209,68,c),
(202,56,o),
(160,-2,o),
(155,-14,c),
(153,-16,o),
(151,-13,o),
(149,-12,cs),
(138,-7,o),
(129,-20,o),
(137,-28,cs),
(144,-35,l),
(156,-43,o),
(171,-28,o),
(161,-18,c)
);
}
);
width = 498;
}
);
note = nine;
unicode = 57;
},
{
glyphname = colon;
layers = (
{
hints = (
{
horizontal = 1;
place = (497,12);
type = Stem;
},
{
horizontal = 1;
place = (480,9);
type = Stem;
},
{
horizontal = 1;
place = (440,7);
type = Stem;
},
{
horizontal = 1;
place = (386.5,16.5);
type = Stem;
},
{
horizontal = 1;
place = (110,18);
type = Stem;
},
{
horizontal = 1;
place = (87,11);
type = Stem;
},
{
horizontal = 1;
place = (3,46);
type = Stem;
},
{
horizontal = 1;
place = (3,19);
type = Stem;
},
{
place = (128,22);
type = Stem;
},
{
place = (122,20);
type = Stem;
},
{
place = (96,10.5);
type = Stem;
},
{
place = (79,11);
type = Stem;
},
{
place = (45,25);
type = Stem;
},
{
place = (39,24);
type = Stem;
}
);
layerId = m01;
shapes = (
{
closed = 1;
nodes = (
(99,388,o),
(125,403,o),
(131,407,cs),
(137,411,o),
(140,419,o),
(142,426,cs),
(146,442,o),
(142,461,o),
(134,475,cs),
(130,481,o),
(124,489,o),
(116,489,cs),
(108,488,o),
(89,476,o),
(83,470,cs),
(77,464,o),
(76,456,o),
(79,449,cs),
(80,445,o),
(83,441,o),
(86,440,c),
(88,440,o),
(93,440,o),
(94,439,cs),
(97,437,o),
(102,442,o),
(105,444,cs),
(106,445,o),
(102,446,o),
(100,447,cs),
(79,460,o),
(96,494,o),
(112,474,cs),
(126,455,o),
(125,424,o),
(114,403,c),
(106,404,o),
(98,407,o),
(91,411,cs),
(63,431,o),
(64,471,o),
(86,497,c),
(93,497,o),
(101,496,o),
(107,494,c),
(109,494,o),
(117,499,o),
(118,500,c),
(117,501,o),
(108,508,o),
(106,509,cs),
(104,510,o),
(102,509,o),
(100,508,cs),
(96,506,o),
(74,493,o),
(70,490,cs),
(50,475,o),
(38,437,o),
(49,413,cs),
(52,406,o),
(64,390,o),
(70,387,cs),
(77,384,o),
(86,384,o),
(93,386,cs)
);
},
{
closed = 1;
nodes = (
(44,27,o),
(69,3,o),
(91,3,c),
(96,2,o),
(102,4,o),
(107,7,cs),
(115,11,o),
(140,24,o),
(145,31,cs),
(154,46,o),
(152,74,o),
(140,87,cs),
(132,96,o),
(115,101,o),
(104,95,cs),
(99,93,o),
(83,84,o),
(80,80,cs),
(74,70,o),
(84,48,o),
(96,49,cs),
(95,49,o),
(96,47,o),
(96,47,c),
(98,48,o),
(105,51,o),
(106,53,cs),
(107,57,l),
(108,58,o),
(105,60,o),
(104,61,cs),
(99,66,o),
(95,81,o),
(97,87,c),
(104,88,o),
(112,86,o),
(118,81,cs),
(132,69,o),
(130,39,o),
(121,22,c),
(110,24,o),
(81,42,o),
(73,50,cs),
(57,66,o),
(60,94,o),
(76,111,c),
(78,114,o),
(93,109,o),
(97,110,cs),
(98,110,o),
(107,111,o),
(108,112,c),
(111,112,o),
(120,119,o),
(123,120,c),
(124,121,o),
(125,126,o),
(124,127,cs),
(122,129,o),
(113,128,o),
(110,128,c),
(93,125,o),
(78,116,o),
(63,107,cs),
(43,94,o),
(33,69,o),
(39,47,cs)
);
}
);
width = 187;
}
);
note = colon;
unicode = 58;
},
{
glyphname = semicolon;
layers = (
{
hints = (
{
horizontal = 1;
place = (501,8);
type = Stem;
},
{
horizontal = 1;
place = (489,20);
type = Stem;
},
{
horizontal = 1;
place = (438,13);
type = Stem;
},
{
horizontal = 1;
place = (391,20);
type = Stem;
},
{
horizontal = 1;
place = (81,20);
type = Stem;
},
{
horizontal = 1;
place = (71,30);
type = Stem;
},
{
horizontal = 1;
place = (20,14);
type = Stem;
},
{
horizontal = 1;
place = (-6,14);
type = Stem;
},
{
place = (131,28);
type = Stem;
},
{
place = (123,26);
type = Stem;
},
{
place = (115,44);
type = Stem;
},
{
place = (115,16);
type = Stem;
},
{
place = (66,19);
type = Stem;
},
{
place = (65,23);
type = Stem;
},
{
place = (36,23);
type = Stem;
}
);
layerId = m01;
shapes = (
{
closed = 1;
nodes = (
(112,399,o),
(138,414,o),
(142,417,cs),
(154,424,o),
(152,450,o),
(149,463,cs),
(147,473,o),
(144,483,o),
(138,491,cs),
(133,496,o),
(127,500,o),
(120,501,cs),
(117,502,o),
(127,506,o),
(125,506,c),
(111,510,o),
(94,510,o),
(81,504,c),
(77,501,o),
(58,490,o),
(54,487,cs),
(40,476,o),
(34,453,o),
(36,434,cs),
(41,400,o),
(77,381,o),
(108,397,cs)
);
},
{
closed = 1;
nodes = (
(33,43,o),
(40,21,o),
(51,8,cs),
(60,-3,o),
(77,-10,o),
(91,-6,cs),
(96,-5,o),
(115,7,o),
(120,10,cs),
(128,15,o),
(130,26,o),
(131,35,c),
(135,5,o),
(129,-28,o),
(117,-55,cs),
(110,-71,o),
(101,-85,o),
(91,-98,cs),
(85,-105,o),
(58,-134,o),
(54,-142,cs),
(53,-145,o),
(56,-152,o),
(57,-155,c),
(60,-153,o),
(70,-150,o),
(71,-147,cs),
(75,-132,o),
(88,-121,o),
(98,-110,cs),
(115,-91,o),
(132,-73,o),
(143,-51,cs),
(157,-22,o),
(164,14,o),
(156,45,cs),
(152,63,o),
(142,83,o),
(126,92,cs),
(113,99,o),
(95,105,o),
(82,98,cs),
(65,89,o),
(46,77,o),
(39,59,cs)
);
},
{
closed = 1;
nodes = (
(57,72,o),
(64,82,o),
(71,90,cs),
(73,92,o),
(81,91,o),
(84,90,c),
(92,89,o),
(100,86,o),
(107,81,c),
(102,80,o),
(84,70,o),
(80,67,cs),
(70,61,o),
(65,52,o),
(65,41,cs),
(65,38,o),
(67,33,o),
(65,36,cs),
(60,43,o),
(56,53,o),
(57,62,cs)
);
},
{
closed = 1;
nodes = (
(68,443,o),
(72,437,o),
(77,438,cs),
(83,439,o),
(89,446,o),
(96,446,cs),
(98,446,o),
(104,450,o),
(106,452,cs),
(105,451,o),
(103,453,o),
(103,452,c),
(100,451,o),
(96,448,o),
(93,450,cs),
(82,458,o),
(83,477,o),
(91,489,c),
(96,489,o),
(102,487,o),
(107,483,cs),
(125,470,o),
(127,433,o),
(120,411,c),
(106,411,o),
(91,413,o),
(79,421,cs),
(54,437,o),
(53,472,o),
(71,495,c),
(76,497,o),
(100,501,o),
(105,501,c),
(99,498,o),
(77,486,o),
(73,481,cs),
(65,472,o),
(63,459,o),
(66,448,cs)
);
},
{
closed = 1;
nodes = (
(82,20,o),
(87,20,o),
(87,20,c),
(91,21,o),
(108,31,o),
(111,33,cs),
(113,34,o),
(108,37,o),
(106,36,c),
(106,36,o),
(104,34,o),
(103,34,c),
(89,39,o),
(83,58,o),
(92,71,c),
(120,72,o),
(119,34,o),
(107,8,c),
(98,9,o),
(90,14,o),
(82,19,c)
);
}
);
width = 194;
}
);
note = semicolon;
unicode = 59;
},
{
glyphname = less;
layers = (
{
hints = (
{
horizontal = 1;
place = (132,20);
type = Stem;
},
{
horizontal = 1;
place = (99,20);
type = Stem;
},
{
place = (307,22);
type = Stem;
},
{
place = (287,21);
type = Stem;
}
);
layerId = m01;
shapes = (
{
closed = 1;
nodes = (
(282,137,o),
(264,154,o),
(242,165,c),
(264,161,o),
(286,156,o),
(307,148,c),
(304,141,o),
(309,134,o),
(316,132,cs),
(327,129,o),
(334,144,o),
(324,151,cs),
(320,154,o),
(316,152,o),
(311,152,cs),
(309,152,o),
(302,157,o),
(300,158,c),
(297,161,o),
(296,165,o),
(293,167,cs),
(288,170,o),
(258,180,o),
(253,182,cs),
(246,185,o),
(240,188,o),
(233,190,cs),
(195,203,o),
(157,222,o),
(124,247,cs),
(117,253,o),
(108,260,o),
(107,270,cs),
(105,280,o),
(123,297,o),
(131,305,cs),
(161,332,o),
(198,352,o),
(231,376,cs),
(260,398,o),
(284,425,o),
(310,451,cs),
(315,457,o),
(319,463,o),
(325,469,c),
(322,469,o),
(315,470,o),
(313,468,cs),
(309,464,o),
(307,459,o),
(304,456,cs),
(302,454,o),
(291,447,o),
(289,445,c),
(273,435,o),
(177,392,o),
(160,383,cs),
(144,375,o),
(130,364,o),
(114,357,cs),
(88,346,o),
(62,332,o),
(44,311,cs),
(40,306,o),
(33,291,o),
(33,285,cs),
(33,282,o),
(37,275,o),
(38,273,cs),
(46,254,o),
(66,243,o),
(81,229,cs),
(88,223,o),
(94,214,o),
(102,209,cs),
(125,195,o),
(151,189,o),
(178,183,cs),
(182,182,o),
(203,176,o),
(208,175,c),
(223,169,o),
(279,129,o),
(292,118,c),
(283,113,o),
(287,100,o),
(297,99,cs),
(310,98,o),
(313,116,o),
(300,119,c)
);
}
);
width = 362;
}
);
note = less;
unicode = 60;
},
{
glyphname = equal;
layers = (
{
hints = (
{
horizontal = 1;
place = (407,11);
type = Stem;
},
{
horizontal = 1;
place = (391,7);
type = Stem;
},
{
horizontal = 1;
place = (206,11.5);
type = Stem;
},
{
horizontal = 1;
place = (204,7);
type = Stem;
},
{
place = (438,19);
type = Stem;
},
{
place = (431,21);
type = Stem;
}
);
layerId = m01;
shapes = (
{
closed = 1;
nodes = (
(287,372,o),
(310,379,o),
(334,382,cs),
(352,385,o),
(369,391,o),
(387,391,cs),
(393,391,o),
(424,387,o),
(431,388,c),
(435,382,l),
(442,376,o),
(453,381,o),
(452,390,cs),
(452,402,o),
(439,408,o),
(433,398,c),
(419,398,o),
(405,401,o),
(392,401,c),
(400,406,o),
(411,408,o),
(421,410,c),
(430,403,o),
(444,409,o),
(441,420,cs),
(438,431,o),
(420,430,o),
(418,419,c),
(413,418,o),
(387,416,o),
(382,417,c),
(348,418,l),
(321,416,o),
(294,409,o),
(268,411,cs),
(257,411,o),
(198,409,o),
(187,409,cs),
(142,411,l),
(136,412,o),
(109,410,o),
(103,409,cs),
(93,406,o),
(83,402,o),
(74,398,cs),
(63,394,o),
(36,388,o),
(26,393,c),
(30,389,o),
(34,384,o),
(40,383,cs),
(43,383,o),
(61,384,o),
(64,383,c),
(89,382,o),
(113,372,o),
(138,370,cs),
(143,369,o),
(174,367,o),
(180,367,cs),
(191,367,o),
(252,368,o),
(262,369,cs)
);
},
{
closed = 1;
nodes = (
(27,210,o),
(32,204,o),
(33,203,cs),
(34,202,o),
(36,204,o),
(37,204,cs),
(42,203,o),
(70,202,o),
(75,201,cs),
(99,195,o),
(124,196,o),
(148,194,cs),
(170,191,o),
(293,190,o),
(316,190,cs),
(327,190,o),
(372,194,o),
(383,199,cs),
(387,201,o),
(389,203,o),
(392,205,cs),
(394,206,o),
(401,206,o),
(403,206,cs),
(414,206,o),
(426,208,o),
(437,209,c),
(443,199,o),
(456,203,o),
(457,215,cs),
(458,227,o),
(443,230,o),
(438,219,c),
(405,216,l),
(402,215,o),
(406,217,o),
(408,220,c),
(414,225,o),
(417,233,o),
(424,237,cs),
(426,238,o),
(428,240,o),
(430,239,cs),
(440,235,o),
(450,243,o),
(446,253,cs),
(441,263,o),
(425,260,o),
(424,250,cs),
(424,247,o),
(419,247,o),
(417,246,cs),
(413,245,o),
(393,244,o),
(390,243,c),
(387,243,o),
(373,239,o),
(371,238,c),
(339,232,o),
(156,233,o),
(125,230,cs),
(104,227,o),
(82,224,o),
(64,214,cs),
(59,211,o),
(37,211,o),
(30,211,cs),
(29,211,o),
(25,213,o),
(26,212,cs)
);
}
);
width = 485;
}
);
note = equal;
unicode = 61;
},
{
glyphname = greater;
layers = (
{
hints = (
{
horizontal = 1;
place = (111,24);
type = Stem;
},
{
horizontal = 1;
place = (93,20);
type = Stem;
},
{
place = (48,22);
type = Stem;
},
{
place = (30,22);
type = Stem;
},
{
place = (30,17);
type = Stem;
}
);
layerId = m01;
shapes = (
{
closed = 1;
nodes = (
(70,101,o),
(73,101,o),
(75,102,c),
(81,111,o),
(117,133,o),
(127,138,cs),
(136,143,o),
(145,147,o),
(154,153,cs),
(158,156,o),
(178,161,o),
(182,163,c),
(207,171,o),
(228,189,o),
(250,203,cs),
(269,215,o),
(289,226,o),
(305,242,cs),
(310,246,o),
(315,251,o),
(319,257,cs),
(326,271,o),
(324,294,o),
(312,303,cs),
(277,329,o),
(241,353,o),
(204,375,cs),
(191,383,o),
(120,416,o),
(106,421,cs),
(89,428,o),
(71,431,o),
(54,439,c),
(43,439,l),
(64,430,o),
(85,420,o),
(101,403,cs),
(103,401,o),
(113,387,o),
(115,384,cs),
(121,375,o),
(155,353,o),
(164,347,cs),
(190,332,o),
(218,319,o),
(244,303,cs),
(248,301,o),
(263,294,o),
(266,291,cs),
(270,286,o),
(267,272,o),
(265,266,cs),
(260,249,o),
(243,239,o),
(229,230,cs),
(208,215,o),
(188,198,o),
(166,184,cs),
(153,175,o),
(139,169,o),
(124,163,cs),
(98,153,o),
(70,147,o),
(47,131,c),
(35,143,o),
(23,125,o),
(35,114,cs),
(43,106,o),
(55,114,o),
(52,125,c),
(59,131,o),
(69,134,o),
(78,137,cs),
(94,143,o),
(111,145,o),
(128,148,c),
(106,138,o),
(86,125,o),
(69,109,c),
(62,118,o),
(47,114,o),
(48,103,cs),
(49,91,o),
(67,90,o),
(70,101,c)
);
}
);
width = 356;
}
);
note = greater;
unicode = 62;
},
{
glyphname = question;
layers = (
{
hints = (
{
horizontal = 1;
place = (712,18);
type = Stem;
},
{
horizontal = 1;
place = (88,12);
type = Stem;
},
{
horizontal = 1;
place = (-28,21);
type = Stem;
},
{
place = (317,58);
type = Stem;
},
{
place = (199,22);
type = Stem;
},
{
place = (170,21);
type = Stem;
},
{
place = (149,15);
type = Stem;
},
{
place = (112,35);
type = Stem;
}
);
layerId = m01;
shapes = (
{
closed = 1;
nodes = (
(141,175,o),
(157,195,o),
(174,214,c),
(172,197,o),
(166,177,o),
(174,162,cs),
(177,157,o),
(181,153,o),
(184,148,c),
(185,148,o),
(193,153,o),
(195,154,c),
(191,164,o),
(192,176,o),
(191,187,cs),
(191,196,o),
(188,230,o),
(192,238,cs),
(196,248,o),
(200,259,o),
(203,270,cs),
(206,283,o),
(230,331,o),
(238,342,cs),
(250,361,o),
(266,378,o),
(279,396,cs),
(307,433,o),
(331,473,o),
(350,516,cs),
(367,554,o),
(381,598,o),
(375,640,cs),
(368,690,o),
(306,728,o),
(256,730,cs),
(203,732,o),
(148,706,o),
(107,671,cs),
(85,653,o),
(66,629,o),
(50,605,cs),
(44,597,o),
(30,578,o),
(34,569,c),
(34,567,o),
(35,563,o),
(37,564,c),
(38,564,o),
(45,568,o),
(46,569,c),
(46,570,l),
(38,581,o),
(53,600,o),
(61,611,cs),
(81,640,o),
(105,666,o),
(132,688,cs),
(161,711,o),
(205,718,o),
(240,707,cs),
(269,697,o),
(312,655,o),
(317,625,cs),
(323,591,o),
(317,555,o),
(306,522,cs),
(291,475,o),
(265,431,o),
(237,391,cs),
(217,361,o),
(192,334,o),
(176,302,cs),
(169,286,o),
(150,229,o),
(151,212,cs),
(152,206,o),
(152,199,o),
(148,194,cs),
(117,148,ls),
(116,147,o),
(126,153,o),
(126,154,c)
);
},
{
closed = 1;
nodes = (
(112,-3,o),
(121,-26,o),
(139,-28,cs),
(153,-31,o),
(168,-29,o),
(181,-24,cs),
(187,-21,o),
(211,-8,o),
(216,-4,cs),
(226,5,o),
(220,33,o),
(216,46,cs),
(214,57,o),
(211,70,o),
(202,77,cs),
(198,80,o),
(192,81,o),
(187,81,c),
(178,79,o),
(158,68,o),
(153,61,cs),
(147,54,o),
(148,42,o),
(154,35,c),
(155,35,o),
(163,32,o),
(163,32,c),
(167,34,o),
(176,37,o),
(172,38,cs),
(170,39,o),
(167,40,o),
(167,43,c),
(164,51,o),
(161,67,o),
(169,71,cs),
(175,75,o),
(187,69,o),
(190,62,cs),
(198,48,o),
(204,8,o),
(199,-7,c),
(193,-7,o),
(187,-4,o),
(182,-1,cs),
(172,6,o),
(162,13,o),
(156,22,cs),
(147,35,o),
(146,52,o),
(147,67,cs),
(148,73,o),
(150,86,o),
(154,88,cs),
(161,92,o),
(171,84,o),
(177,79,c),
(178,80,o),
(187,84,o),
(188,85,c),
(185,89,o),
(178,100,o),
(174,100,c),
(171,101,o),
(169,100,o),
(167,99,cs),
(161,95,o),
(134,80,o),
(129,75,cs),
(116,59,o),
(111,35,o),
(112,14,cs)
);
}
);
width = 413;
}
);
note = question;
unicode = 63;
},
{
glyphname = at;
layers = (
{
hints = (
{
horizontal = 1;
place = (586,45);
type = Stem;
},
{
horizontal = 1;
place = (455,10);
type = Stem;
},
{
horizontal = 1;
place = (109,43);
type = Stem;
},
{
horizontal = 1;
place = (44,11);
type = Stem;
},
{
horizontal = 1;
place = (36,19);
type = Stem;
},
{
horizontal = 1;
place = (32,12);
type = Stem;
},
{
horizontal = 1;
place = (-19,23);
type = Stem;
},
{
horizontal = 1;
place = (-84,14);
type = Stem;
},
{
horizontal = 1;
place = (-100,30);
type = Stem;
},
{
place = (653,75);
type = Stem;
},
{
place = (592,28);
type = Stem;
},
{
place = (436,77);
type = Stem;
},
{
place = (227,85);
type = Stem;
},
{
place = (47,92.5);
type = Stem;
},
{
place = (47,88);
type = Stem;
}
);
layerId = m01;
shapes = (
{
closed = 1;
nodes = (
(431,-83,o),
(433,-84,o),
(435,-84,cs),
(454,-84,o),
(519,-46,o),
(537,-38,cs),
(562,-27,o),
(590,-21,o),
(616,-12,c),
(620,-26,o),
(645,-18,o),
(641,-4,c),
(641,-3,o),
(646,-2,o),
(646,-1,c),
(643,1,ls),
(642,2,o),
(642,4,o),
(641,5,c),
(632,4,ls),
(628,4,o),
(615,-1,o),
(612,-3,c),
(586,-12,o),
(561,-23,o),
(537,-35,cs),
(521,-44,o),
(460,-78,o),
(441,-78,c),
(469,-65,o),
(497,-48,o),
(523,-31,cs),
(551,-11,o),
(577,11,o),
(604,33,c),
(605,33,o),
(607,32,o),
(609,32,cs),
(615,31,o),
(621,37,o),
(620,43,cs),
(619,50,o),
(611,53,o),
(605,55,cs),
(594,58,o),
(586,43,o),
(596,36,cs),
(599,34,o),
(604,35,o),
(602,33,c),
(580,20,o),
(561,3,o),
(541,-12,cs),
(533,-18,o),
(489,-49,o),
(481,-54,cs),
(475,-58,o),
(450,-66,o),
(443,-67,cs),
(406,-74,o),
(367,-70,o),
(330,-62,cs),
(281,-50,o),
(236,-18,o),
(202,20,cs),
(199,23,o),
(188,37,o),
(186,40,cs),
(163,77,o),
(147,119,o),
(140,162,cs),
(133,209,o),
(133,257,o),
(139,304,cs),
(152,403,o),
(203,491,o),
(283,551,cs),
(299,563,o),
(366,580,o),
(386,583,cs),
(416,587,o),
(447,587,o),
(477,580,cs),
(518,571,o),
(559,549,o),
(587,519,cs),
(612,492,o),
(634,460,o),
(645,425,cs),
(656,389,o),
(654,351,o),
(653,313,cs),
(653,305,o),
(650,257,o),
(649,248,cs),
(647,228,o),
(645,207,o),
(639,187,cs),
(631,158,o),
(614,131,o),
(595,108,c),
(586,109,o),
(576,111,o),
(568,116,cs),
(556,123,o),
(547,136,o),
(541,150,cs),
(536,163,o),
(531,178,o),
(528,193,cs),
(521,233,o),
(516,274,o),
(513,314,cs),
(512,332,o),
(493,417,o),
(496,435,c),
(495,435,o),
(494,435,o),
(494,436,c),
(488,433,o),
(465,420,o),
(461,417,cs),
(442,400,o),
(438,331,o),
(436,306,cs),
(434,268,o),
(426,230,o),
(411,195,cs),
(404,179,o),
(394,164,o),
(382,152,cs),
(379,149,o),
(372,151,o),
(369,152,cs),
(344,157,o),
(324,181,o),
(316,205,cs),
(310,223,o),
(310,244,o),
(312,263,cs),
(315,305,o),
(322,348,o),
(340,386,cs),
(345,397,o),
(366,430,o),
(376,436,cs),
(388,443,o),
(435,455,o),
(449,455,c),
(455,454,ls),
(457,454,o),
(463,458,o),
(465,460,c),
(463,463,l),
(461,470,o),
(449,466,o),
(441,465,cs),
(407,458,o),
(376,440,o),
(346,421,cs),
(314,401,o),
(288,369,o),
(269,336,cs),
(247,297,o),
(216,189,o),
(231,147,cs),
(235,135,o),
(244,122,o),
(256,117,cs),
(283,105,o),
(317,107,o),
(343,120,cs),
(353,125,o),
(403,155,o),
(412,161,cs),
(425,169,o),
(435,181,o),
(444,193,c),
(446,172,o),
(450,152,o),
(457,132,cs),
(462,117,o),
(471,101,o),
(485,92,cs),
(504,78,o),
(530,73,o),
(553,79,cs),
(565,82,o),
(610,109,o),
(621,115,cs),
(640,128,o),
(655,147,o),
(668,166,cs),
(683,188,o),
(692,214,o),
(700,239,cs),
(716,289,o),
(726,343,o),
(728,396,cs),
(729,428,o),
(729,461,o),
(718,491,cs),
(705,526,o),
(680,558,o),
(651,580,cs),
(625,599,o),
(597,616,o),
(566,624,cs),
(518,636,o),
(465,632,o),
(418,617,cs),
(357,599,o),
(302,565,o),
(248,533,cs),
(207,509,o),
(170,478,o),
(140,442,cs),
(111,408,o),
(90,367,o),
(73,325,cs),
(39,239,o),
(38,141,o),
(70,54,cs),
(88,5,o),
(130,-34,o),
(175,-60,cs),
(191,-69,o),
(208,-78,o),
(225,-84,cs),
(254,-95,o),
(286,-99,o),
(316,-100,cs),
(355,-102,o),
(395,-98,o),
(431,-83,c)
);
},
{
closed = 1;
nodes = (
(622,44,l),
(621,44,o),
(621,44,o),
(620,43,c)
);
}
);
width = 778;
}
);
note = at;
unicode = 64;
},
{
glyphname = A;
layers = (
{
hints = (
{
horizontal = 1;
place = (335,8);
type = Stem;
},
{
horizontal = 1;
place = (312,17);
type = Stem;
},
{
horizontal = 1;
place = (307.5,9.5);
type = Stem;
},
{
horizontal = 1;
place = (278,45);
type = Stem;
},
{
horizontal = 1;
place = (30,9);
type = Stem;
},
{
horizontal = 1;
place = (9,10);
type = Stem;
},
{
place = (629,15);
type = Stem;
},
{
place = (625,19);
type = Stem;
},
{
place = (579,22);
type = Stem;
},
{
place = (389,22);
type = Stem;
},
{
place = (389,16);
type = Stem;
},
{
place = (383,22);
type = Stem;
}
);
layerId = m01;
shapes = (
{
closed = 1;
nodes = (
(97,19,o),
(112,27,o),
(120,40,cs),
(134,61,o),
(138,87,o),
(146,111,cs),
(153,132,o),
(194,262,o),
(202,283,c),
(219,286,o),
(236,289,o),
(253,293,cs),
(260,295,o),
(301,309,o),
(309,312,cs),
(316,314,o),
(346,308,o),
(354,307,cs),
(366,306,o),
(378,307,o),
(390,308,c),
(392,309,o),
(395,304,o),
(397,303,cs),
(405,300,o),
(413,307,o),
(411,315,cs),
(407,328,o),
(390,328,o),
(389,314,c),
(371,318,o),
(352,321,o),
(334,320,c),
(351,326,o),
(367,334,o),
(385,340,c),
(390,334,o),
(398,334,o),
(402,340,cs),
(410,350,o),
(401,362,o),
(389,356,cs),
(385,354,o),
(383,348,o),
(383,343,c),
(369,339,o),
(356,334,o),
(342,331,cs),
(335,330,o),
(327,326,o),
(320,329,cs),
(317,331,o),
(303,329,o),
(299,329,cs),
(289,328,o),
(228,327,o),
(217,326,c),
(241,396,o),
(267,465,o),
(295,532,cs),
(309,566,o),
(324,601,o),
(346,630,c),
(347,630,l),
(376,608,o),
(406,498,o),
(416,463,cs),
(431,412,o),
(433,359,o),
(440,306,cs),
(441,299,o),
(444,255,o),
(446,248,cs),
(450,224,o),
(455,200,o),
(462,177,cs),
(473,135,o),
(476,91,o),
(491,50,cs),
(497,35,o),
(515,26,o),
(531,30,c),
(533,30,o),
(536,32,o),
(538,32,cs),
(558,35,o),
(575,50,o),
(587,66,cs),
(603,88,o),
(616,111,o),
(629,134,c),
(646,130,o),
(650,156,o),
(633,155,cs),
(624,154,o),
(620,144,o),
(625,137,c),
(602,105,o),
(589,65,o),
(558,40,cs),
(555,38,o),
(544,36,o),
(547,38,cs),
(558,44,o),
(567,54,o),
(573,65,cs),
(584,88,o),
(591,114,o),
(597,139,c),
(607,148,o),
(596,165,o),
(585,157,cs),
(576,150,o),
(577,136,o),
(589,135,c),
(580,102,o),
(567,68,o),
(545,40,c),
(544,38,o),
(535,40,o),
(533,43,cs),
(530,47,o),
(527,65,o),
(526,69,cs),
(516,118,o),
(511,168,o),
(511,217,cs),
(512,277,o),
(502,335,o),
(498,394,cs),
(496,431,o),
(490,467,o),
(484,503,cs),
(478,544,o),
(470,585,o),
(450,620,cs),
(439,640,o),
(413,672,o),
(390,668,cs),
(378,666,o),
(336,639,o),
(326,633,cs),
(306,621,o),
(290,603,o),
(277,584,cs),
(238,523,o),
(212,453,o),
(190,384,cs),
(187,377,o),
(171,330,o),
(168,323,c),
(139,320,o),
(109,319,o),
(80,312,cs),
(63,308,o),
(46,303,o),
(29,302,cs),
(26,302,o),
(18,297,o),
(16,296,c),
(24,295,o),
(30,291,o),
(37,287,cs),
(43,284,o),
(75,284,o),
(82,283,cs),
(107,278,o),
(133,277,o),
(159,278,c),
(156,263,o),
(140,169,o),
(137,153,cs),
(131,127,o),
(128,99,o),
(120,73,cs),
(114,54,o),
(106,34,o),
(92,19,c),
(73,15,o),
(50,22,o),
(36,36,cs),
(32,41,o),
(29,47,o),
(26,52,c),
(25,52,o),
(17,48,o),
(16,47,c),
(20,40,o),
(23,33,o),
(28,28,cs),
(40,15,o),
(67,4,o),
(84,12,cs)
);
}
);
width = 651;
}
);
note = A;
unicode = (65,192,193,194,195,196,197);
},
{
glyphname = B;
layers = (
{
hints = (
{
horizontal = 1;
place = (638,21);
type = Stem;
},
{
horizontal = 1;
place = (492,17);
type = Stem;
},
{
horizontal = 1;
place = (399,19);
type = Stem;
},
{
horizontal = 1;
place = (377,9);
type = Stem;
},
{
horizontal = 1;
place = (363,55);
type = Stem;
},
{
horizontal = 1;
place = (304,18);
type = Stem;
},
{
horizontal = 1;
place = (154,18);
type = Stem;
},
{
horizontal = 1;
place = (8,21);
type = Stem;
},
{
horizontal = 1;
place = (2,38.5);
type = Stem;
},
{
horizontal = 1;
place = (2,35);
type = Stem;
},
{
place = (484.5,52.5);
type = Stem;
},
{
place = (429,37);
type = Stem;
},
{
place = (383,33);
type = Stem;
},
{
place = (289,18);
type = Stem;
},
{
place = (248,22);
type = Stem;
},
{
place = (158,21);
type = Stem;
},
{
place = (146,35);
type = Stem;
},
{
place = (112,7);
type = Stem;
},
{
place = (82,22);
type = Stem;
},
{
place = (69,11);
type = Stem;
},
{
place = (39,22);
type = Stem;
}
);
layerId = m01;
shapes = (
{
closed = 1;
nodes = (
(331,414,o),
(360,430,o),
(388,448,cs),
(410,462,o),
(429,480,o),
(445,500,cs),
(471,534,o),
(473,591,o),
(452,628,cs),
(439,651,o),
(416,669,o),
(392,680,cs),
(372,689,o),
(351,695,o),
(330,698,cs),
(309,701,o),
(288,700,o),
(267,698,cs),
(206,693,o),
(145,679,o),
(87,660,cs),
(85,659,o),
(70,653,o),
(67,651,c),
(63,668,o),
(37,656,o),
(47,642,cs),
(53,633,o),
(69,639,o),
(68,650,c),
(79,655,o),
(92,659,o),
(104,662,cs),
(161,677,o),
(221,688,o),
(279,681,cs),
(317,677,o),
(356,660,o),
(385,635,cs),
(414,611,o),
(429,569,o),
(429,532,cs),
(429,514,o),
(425,496,o),
(414,483,cs),
(403,468,o),
(389,455,o),
(375,443,cs),
(369,438,o),
(363,434,o),
(356,431,cs),
(318,416,o),
(272,413,o),
(233,427,cs),
(211,435,o),
(191,454,o),
(183,477,cs),
(176,495,o),
(179,518,o),
(185,537,cs),
(189,549,o),
(209,579,o),
(221,585,c),
(222,586,o),
(232,589,o),
(234,589,c),
(255,595,o),
(280,589,o),
(298,576,cs),
(308,569,o),
(318,559,o),
(322,547,cs),
(324,540,o),
(324,532,o),
(322,524,cs),
(320,516,o),
(314,508,o),
(308,502,cs),
(299,495,o),
(276,506,o),
(265,509,cs),
(262,510,o),
(256,505,o),
(254,503,c),
(257,499,o),
(260,493,o),
(266,492,cs),
(276,489,o),
(288,490,o),
(298,495,cs),
(314,504,o),
(332,514,o),
(341,531,cs),
(358,566,o),
(332,609,o),
(293,612,cs),
(277,613,o),
(261,608,o),
(247,601,cs),
(239,598,o),
(203,577,o),
(196,572,cs),
(175,556,o),
(161,528,o),
(158,502,cs),
(157,481,o),
(158,461,o),
(164,441,cs),
(168,429,o),
(175,417,o),
(185,410,cs),
(196,403,o),
(210,401,o),
(222,399,cs),
(248,394,o),
(275,396,o),
(300,404,cs)
);
},
{
closed = 1;
nodes = (
(55,27,o),
(60,33,o),
(61,38,cs),
(61,44,o),
(72,77,o),
(74,84,c),
(78,65,o),
(85,47,o),
(91,29,c),
(85,28,o),
(80,22,o),
(82,16,cs),
(85,6,o),
(98,6,o),
(102,16,c),
(102,16,o),
(104,17,o),
(104,18,c),
(100,32,o),
(79,93,o),
(80,109,cs),
(80,123,o),
(95,195,o),
(98,209,cs),
(105,242,o),
(105,277,o),
(118,309,cs),
(120,316,o),
(125,350,o),
(126,358,cs),
(129,377,o),
(132,458,o),
(127,478,cs),
(122,500,o),
(119,524,o),
(119,547,cs),
(119,558,o),
(122,624,o),
(122,635,c),
(120,634,o),
(113,630,o),
(112,629,cs),
(111,628,o),
(114,626,o),
(114,625,cs),
(114,615,o),
(113,605,o),
(112,596,cs),
(109,555,o),
(109,515,o),
(101,475,cs),
(96,451,o),
(95,426,o),
(91,401,cs),
(89,386,o),
(74,299,o),
(73,284,c),
(74,270,l),
(73,235,o),
(67,200,o),
(69,164,cs),
(70,150,o),
(64,88,o),
(61,74,cs),
(55,48,l),
(38,56,o),
(32,25,o),
(50,27,cs)
);
},
{
closed = 1;
nodes = (
(162,88,o),
(182,47,o),
(214,22,cs),
(228,12,o),
(245,4,o),
(263,2,cs),
(290,0,o),
(318,8,o),
(342,20,cs),
(367,33,o),
(390,48,o),
(414,62,cs),
(460,89,o),
(504,127,o),
(528,175,cs),
(534,185,o),
(537,197,o),
(537,209,cs),
(538,239,o),
(530,270,o),
(514,295,cs),
(494,326,o),
(461,347,o),
(428,364,cs),
(388,386,o),
(338,392,o),
(293,386,cs),
(284,385,o),
(276,381,o),
(268,381,c),
(266,384,o),
(261,386,o),
(257,385,cs),
(243,382,o),
(245,364,o),
(260,363,cs),
(267,363,o),
(272,369,o),
(270,377,c),
(304,383,o),
(341,376,o),
(372,362,cs),
(397,351,o),
(419,333,o),
(438,313,cs),
(458,292,o),
(477,266,o),
(484,237,cs),
(488,221,o),
(487,204,o),
(485,188,cs),
(483,172,o),
(479,156,o),
(472,143,cs),
(452,105,o),
(419,74,o),
(385,48,cs),
(382,46,o),
(369,42,o),
(366,41,cs),
(350,37,o),
(332,36,o),
(316,40,cs),
(294,44,o),
(273,56,o),
(255,69,cs),
(222,90,o),
(192,122,o),
(181,159,cs),
(177,174,o),
(178,190,o),
(182,204,cs),
(192,241,o),
(219,273,o),
(249,296,cs),
(253,299,o),
(269,303,o),
(274,304,cs),
(291,307,o),
(309,302,o),
(325,296,cs),
(350,286,o),
(370,261,o),
(380,236,cs),
(384,223,o),
(389,209,o),
(386,196,cs),
(384,190,o),
(378,176,o),
(373,174,c),
(366,169,o),
(343,170,o),
(335,172,c),
(332,172,o),
(320,176,o),
(317,178,cs),
(312,181,o),
(309,186,o),
(307,192,c),
(312,192,o),
(316,196,o),
(320,198,c),
(318,198,o),
(309,198,o),
(307,197,cs),
(300,193,o),
(288,189,o),
(289,181,cs),
(294,159,o),
(317,149,o),
(339,154,cs),
(348,156,o),
(384,177,o),
(393,182,cs),
(404,189,o),
(414,202,o),
(416,216,cs),
(418,233,o),
(402,272,o),
(390,285,cs),
(371,307,o),
(340,324,o),
(312,322,cs),
(281,319,o),
(254,301,o),
(228,285,cs),
(194,264,o),
(167,229,o),
(153,192,cs),
(145,172,o),
(144,148,o),
(151,127,cs)
);
}
);
width = 565;
}
);
note = B;
unicode = 66;
},
{
glyphname = C;
layers = (
{
hints = (
{
horizontal = 1;
place = (694,8);
type = Stem;
},
{
horizontal = 1;
place = (679,7);
type = Stem;
},
{
horizontal = 1;
place = (674,12);
type = Stem;
},
{
horizontal = 1;
place = (7,24);
type = Stem;
},
{
place = (456,8);
type = Stem;
},
{
place = (444,8);
type = Stem;
},
{
place = (421,20);
type = Stem;
},
{
place = (397,8);
type = Stem;
},
{
place = (373,20);
type = Stem;
},
{
place = (39,64);
type = Stem;
}
);
layerId = m01;
shapes = (
{
closed = 1;
nodes = (
(309,18,o),
(344,40,o),
(379,61,cs),
(409,79,o),
(431,112,o),
(446,144,cs),
(454,161,o),
(459,180,o),
(464,198,c),
(465,199,o),
(456,194,o),
(456,193,c),
(446,162,o),
(433,132,o),
(414,106,cs),
(399,85,o),
(379,66,o),
(358,50,cs),
(351,45,o),
(319,36,o),
(310,34,cs),
(274,27,o),
(232,31,o),
(200,49,cs),
(190,55,o),
(162,88,o),
(156,98,cs),
(144,116,o),
(133,136,o),
(126,156,cs),
(105,217,o),
(102,283,o),
(103,347,cs),
(104,424,o),
(116,504,o),
(149,573,cs),
(163,603,o),
(184,631,o),
(209,653,cs),
(236,677,o),
(281,685,o),
(316,674,cs),
(335,669,o),
(352,654,o),
(364,638,cs),
(391,604,o),
(401,556,o),
(397,514,cs),
(396,499,o),
(391,486,o),
(387,472,c),
(370,475,o),
(367,453,o),
(384,452,cs),
(393,451,o),
(398,461,o),
(393,468,c),
(396,485,o),
(403,501,o),
(405,517,cs),
(409,556,o),
(401,598,o),
(381,631,cs),
(371,647,o),
(359,663,o),
(343,672,cs),
(318,688,o),
(283,690,o),
(256,680,cs),
(241,675,o),
(227,667,o),
(213,659,cs),
(216,661,o),
(225,668,o),
(234,674,cs),
(190,644,ls),
(143,610,o),
(112,556,o),
(90,502,cs),
(57,424,o),
(42,337,o),
(39,252,cs),
(38,219,o),
(41,184,o),
(52,153,cs),
(63,122,o),
(83,95,o),
(100,66,cs),
(106,57,o),
(110,45,o),
(120,39,cs),
(145,23,o),
(175,11,o),
(206,7,cs),
(227,5,o),
(248,6,o),
(269,10,cs)
);
},
{
closed = 1;
nodes = (
(234,674,ls),
(242,679,o),
(250,685,o),
(253,686,cs),
(254,686,o),
(254,687,o),
(255,687,c),
(264,690,o),
(275,692,o),
(285,694,cs),
(312,699,o),
(341,697,o),
(365,686,cs),
(398,671,o),
(427,641,o),
(440,607,cs),
(450,579,o),
(442,547,o),
(432,519,c),
(420,520,o),
(415,502,o),
(427,497,cs),
(438,492,o),
(446,507,o),
(437,516,c),
(449,546,o),
(458,581,o),
(448,612,cs),
(432,661,o),
(383,699,o),
(332,702,cs),
(308,703,o),
(283,700,o),
(261,690,c),
(260,689,o),
(258,688,o),
(255,687,c)
);
}
);
width = 497;
}
);
note = C;
unicode = (67,199);
},
{
glyphname = D;
layers = (
{
hints = (
{
horizontal = 1;
place = (680,32);
type = Stem;
},
{
horizontal = 1;
place = (487,11);
type = Stem;
},
{
horizontal = 1;
place = (351,22);
type = Stem;
},
{
horizontal = 1;
place = (230,22);
type = Stem;
},
{
horizontal = 1;
place = (28,34);
type = Stem;
},
{
horizontal = 1;
place = (-13,21);
type = Stem;
},
{
place = (468,61);
type = Stem;
},
{
place = (412,19);
type = Stem;
},
{
place = (318,12);
type = Stem;
},
{
place = (134,37);
type = Stem;
},
{
place = (129,19);
type = Stem;
},
{
place = (83,10);
type = Stem;
}
);
layerId = m01;
shapes = (
{
closed = 1;
nodes = (
(313,90,o),
(367,124,o),
(415,166,cs),
(444,192,o),
(473,221,o),
(492,255,cs),
(516,300,o),
(529,353,o),
(529,405,cs),
(529,423,o),
(527,441,o),
(525,459,cs),
(517,518,o),
(491,580,o),
(448,621,cs),
(415,651,o),
(379,679,o),
(339,697,cs),
(309,711,o),
(274,712,o),
(241,712,cs),
(180,710,o),
(114,701,o),
(62,667,c),
(99,686,o),
(145,684,o),
(186,680,cs),
(255,672,o),
(327,645,o),
(378,597,cs),
(399,577,o),
(419,555,o),
(431,528,cs),
(446,493,o),
(456,456,o),
(464,418,cs),
(466,405,o),
(468,346,o),
(468,334,cs),
(466,301,o),
(462,268,o),
(449,238,cs),
(433,202,o),
(405,172,o),
(376,146,cs),
(348,121,o),
(318,98,o),
(287,77,c),
(285,75,o),
(272,70,o),
(269,69,cs),
(249,61,o),
(225,59,o),
(203,62,cs),
(198,62,o),
(183,63,o),
(180,66,c),
(176,68,o),
(172,80,o),
(171,85,cs),
(165,124,o),
(197,267,o),
(208,304,cs),
(225,363,o),
(252,422,o),
(295,464,cs),
(298,467,o),
(312,480,o),
(315,482,cs),
(334,493,o),
(365,487,o),
(380,471,cs),
(406,444,o),
(419,400,o),
(412,364,cs),
(403,321,o),
(379,281,o),
(345,252,c),
(321,249,o),
(305,271,o),
(305,295,cs),
(305,314,o),
(311,333,o),
(318,351,c),
(334,349,o),
(334,374,o),
(318,373,cs),
(310,372,o),
(307,363,o),
(311,355,c),
(302,342,o),
(295,328,o),
(290,313,cs),
(285,298,o),
(277,252,o),
(282,238,cs),
(285,229,o),
(297,227,o),
(306,230,cs),
(320,233,o),
(364,259,o),
(375,268,cs),
(406,295,o),
(427,336,o),
(431,376,cs),
(435,409,o),
(426,447,o),
(404,473,cs),
(395,484,o),
(382,495,o),
(368,498,cs),
(336,504,o),
(283,464,o),
(262,439,cs),
(222,393,o),
(194,335,o),
(177,276,cs),
(159,216,o),
(147,154,o),
(138,91,cs),
(136,79,o),
(130,45,o),
(137,35,cs),
(140,30,o),
(152,28,o),
(158,28,cs),
(193,26,o),
(227,42,o),
(258,59,cs)
);
},
{
closed = 1;
nodes = (
(22,11,o),
(27,3,o),
(35,4,cs),
(43,4,o),
(48,13,o),
(45,20,c),
(53,34,o),
(61,49,o),
(67,64,cs),
(74,84,o),
(78,106,o),
(83,127,c),
(84,109,o),
(83,24,o),
(88,6,c),
(81,-2,o),
(86,-14,o),
(97,-13,cs),
(109,-12,o),
(110,5,o),
(98,8,c),
(94,21,o),
(94,77,o),
(93,91,cs),
(93,101,o),
(88,149,o),
(91,160,cs),
(100,191,o),
(113,220,o),
(122,250,cs),
(137,306,o),
(146,363,o),
(149,421,c),
(148,504,ls),
(148,556,o),
(141,608,o),
(132,660,cs),
(132,661,o),
(122,656,o),
(122,654,c),
(123,651,o),
(129,633,o),
(129,629,c),
(138,577,o),
(140,523,o),
(137,470,cs),
(135,443,o),
(128,416,o),
(123,390,cs),
(110,328,o),
(89,268,o),
(74,206,cs),
(64,169,o),
(65,129,o),
(60,91,cs),
(57,68,o),
(52,45,o),
(41,24,c),
(35,28,o),
(28,25,o),
(25,18,cs)
);
}
);
width = 562;
}
);
note = D;
unicode = 68;
},
{
glyphname = E;
layers = (
{
hints = (
{
horizontal = 1;
place = (677,10);
type = Stem;
},
{
horizontal = 1;
place = (666,7);
type = Stem;
},
{
horizontal = 1;
place = (646,27);
type = Stem;
},
{
horizontal = 1;
place = (397,20);
type = Stem;
},
{
horizontal = 1;
place = (380,23);
type = Stem;
},
{
horizontal = 1;
place = (376,8);
type = Stem;
},
{
horizontal = 1;
place = (367,10);
type = Stem;
},
{
horizontal = 1;
place = (356,21);
type = Stem;
},
{
horizontal = 1;
place = (50,22);
type = Stem;
},
{
horizontal = 1;
place = (30,20);
type = Stem;
},
{
horizontal = 1;
place = (18,9);
type = Stem;
},
{
horizontal = 1;
place = (7,20);
type = Stem;
},
{
horizontal = 1;
place = (7,18);
type = Stem;
},
{
place = (396,18);
type = Stem;
},
{
place = (393,20);
type = Stem;
},
{
place = (390,17);
type = Stem;
},
{
place = (386,21);
type = Stem;
},
{
place = (359,22);
type = Stem;
},
{
place = (115,9);
type = Stem;
},
{
place = (106.5,31);
type = Stem;
},
{
place = (104,31);
type = Stem;
},
{
place = (104,19);
type = Stem;
},
{
place = (90,21);
type = Stem;
}
);
layerId = m01;
shapes = (
{
closed = 1;
nodes = (
(114,78,o),
(119,109,o),
(122,140,cs),
(123,162,o),
(122,184,o),
(123,206,cs),
(123,227,o),
(130,345,o),
(132,366,c),
(137,362,o),
(158,360,o),
(165,359,cs),
(197,356,o),
(229,357,o),
(261,362,cs),
(275,365,o),
(290,367,o),
(303,372,c),
(321,368,o),
(340,365,o),
(359,367,c),
(360,353,o),
(380,353,o),
(381,366,cs),
(382,378,o),
(366,382,o),
(360,371,c),
(346,372,o),
(333,377,o),
(320,380,c),
(329,384,o),
(359,401,o),
(368,401,c),
(376,391,o),
(392,400,o),
(387,411,cs),
(382,422,o),
(365,417,o),
(367,405,cs),
(367,402,o),
(364,405,o),
(361,404,cs),
(358,403,o),
(355,402,o),
(352,403,c),
(333,403,o),
(226,399,o),
(207,398,cs),
(202,398,o),
(174,393,o),
(169,392,cs),
(157,390,o),
(146,390,o),
(135,389,c),
(139,428,o),
(141,467,o),
(140,506,cs),
(139,515,o),
(136,559,o),
(134,567,cs),
(131,581,o),
(125,653,o),
(124,666,c),
(138,666,o),
(151,661,o),
(163,656,cs),
(181,650,o),
(200,646,o),
(219,646,cs),
(256,648,o),
(293,653,o),
(328,663,c),
(329,663,o),
(333,665,o),
(334,665,cs),
(342,666,o),
(376,662,o),
(383,661,c),
(384,654,o),
(390,650,o),
(397,650,c),
(410,652,o),
(410,670,o),
(397,671,cs),
(393,671,o),
(389,670,o),
(386,667,c),
(374,669,o),
(362,670,o),
(350,671,c),
(362,675,o),
(374,680,o),
(387,685,c),
(388,685,o),
(389,682,o),
(390,681,cs),
(402,669,o),
(415,690,o),
(402,700,cs),
(393,706,o),
(383,697,o),
(386,687,c),
(365,680,o),
(342,672,o),
(319,671,cs),
(304,671,o),
(289,677,o),
(273,678,cs),
(224,683,o),
(174,673,o),
(124,673,c),
(124,684,o),
(123,696,o),
(124,707,c),
(121,705,o),
(114,704,o),
(115,700,cs),
(116,691,o),
(115,682,o),
(115,673,c),
(109,673,o),
(72,671,o),
(65,672,cs),
(61,673,l),
(55,670,o),
(48,668,o),
(54,667,c),
(115,667,l),
(116,643,o),
(121,620,o),
(120,596,cs),
(119,569,o),
(112,542,o),
(109,515,cs),
(105,471,o),
(103,428,o),
(104,384,c),
(83,383,o),
(62,380,o),
(41,380,c),
(36,381,l),
(35,380,o),
(27,376,o),
(26,375,c),
(37,376,o),
(88,379,o),
(99,377,c),
(101,376,o),
(104,376,o),
(104,373,cs),
(105,350,o),
(107,208,o),
(109,185,cs),
(110,157,o),
(113,129,o),
(109,102,cs),
(107,84,o),
(105,67,o),
(101,50,c),
(87,50,o),
(85,31,o),
(99,30,cs),
(110,28,o),
(115,40,o),
(107,48,c)
);
},
{
closed = 1;
nodes = (
(55,12,o),
(60,14,o),
(66,14,cs),
(72,14,o),
(95,13,o),
(101,10,cs),
(121,-1,o),
(146,-2,o),
(169,0,cs),
(182,1,o),
(195,4,o),
(209,5,cs),
(243,7,o),
(279,5,o),
(312,15,cs),
(315,16,o),
(327,21,o),
(330,21,cs),
(350,21,o),
(370,20,o),
(390,18,cs),
(392,18,o),
(392,15,o),
(393,13,cs),
(397,0,o),
(414,7,o),
(413,20,cs),
(412,32,o),
(396,35,o),
(391,24,c),
(374,26,o),
(358,27,o),
(341,27,c),
(348,30,o),
(389,50,o),
(396,54,c),
(406,43,o),
(421,58,o),
(411,69,cs),
(401,78,o),
(388,65,o),
(395,54,c),
(390,52,o),
(364,39,o),
(358,37,cs),
(317,26,o),
(273,22,o),
(231,28,cs),
(194,33,o),
(157,24,o),
(120,21,cs),
(112,20,o),
(70,20,o),
(62,17,cs),
(58,16,o),
(54,14,o),
(50,12,c)
);
}
);
width = 445;
}
);
note = E;
unicode = (69,200,201,202,203);
},
{
glyphname = F;
kernRight = F;
layers = (
{
hints = (
{
horizontal = 1;
place = (691,22);
type = Stem;
},
{
horizontal = 1;
place = (664,11);
type = Stem;
},
{
horizontal = 1;
place = (650,14);
type = Stem;
},
{
horizontal = 1;
place = (649,15);
type = Stem;
},
{
horizontal = 1;
place = (649,12);
type = Stem;
},
{
horizontal = 1;
place = (642,27.5);
type = Stem;
},
{
horizontal = 1;
place = (636,21);
type = Stem;
},
{
horizontal = 1;
place = (415,21);
type = Stem;
},
{
horizontal = 1;
place = (395,9);
type = Stem;
},
{
horizontal = 1;
place = (377,27);
type = Stem;
},
{
horizontal = 1;
place = (377,10);
type = Stem;
},
{
horizontal = 1;
place = (-7,20);
type = Stem;
},
{
place = (368,21);
type = Stem;
},
{
place = (147,11);
type = Stem;
},
{
place = (146,23);
type = Stem;
},
{
place = (144,16);
type = Stem;
},
{
place = (107,47);
type = Stem;
},
{
place = (102,52);
type = Stem;
},
{
place = (82,22);
type = Stem;
}
);
layerId = m01;
shapes = (
{
closed = 1;
nodes = (
(105,-6,o),
(106,4,o),
(98,9,c),
(104,30,o),
(112,50,o),
(121,70,c),
(131,86,l),
(133,75,o),
(150,23,o),
(155,13,c),
(145,10,o),
(143,-2,o),
(152,-7,cs),
(159,-10,o),
(168,-7,o),
(169,1,cs),
(169,3,o),
(171,2,o),
(171,3,c),
(157,37,o),
(151,73,o),
(139,107,c),
(149,146,o),
(152,187,o),
(154,228,cs),
(156,273,o),
(169,316,o),
(173,361,c),
(206,365,o),
(238,373,o),
(271,377,cs),
(280,379,o),
(290,377,o),
(299,377,cs),
(365,377,l),
(365,377,o),
(367,378,o),
(368,378,c),
(369,379,o),
(368,376,o),
(368,374,cs),
(370,363,o),
(386,362,o),
(389,373,cs),
(393,385,o),
(377,393,o),
(370,383,c),
(357,383,o),
(343,384,o),
(332,390,cs),
(327,393,o),
(321,394,o),
(315,395,c),
(334,403,o),
(354,409,o),
(372,420,c),
(378,409,o),
(394,415,o),
(391,427,cs),
(387,442,o),
(367,436,o),
(371,421,c),
(363,419,o),
(315,401,o),
(306,399,c),
(306,399,o),
(306,400,o),
(305,400,c),
(295,410,o),
(255,400,o),
(241,401,cs),
(219,403,ls),
(204,404,o),
(190,403,o),
(176,401,c),
(177,411,o),
(177,474,o),
(178,484,cs),
(180,513,o),
(181,542,o),
(177,570,cs),
(175,585,o),
(175,601,o),
(167,614,cs),
(164,619,o),
(161,643,o),
(160,650,c),
(175,650,o),
(261,642,o),
(275,642,cs),
(289,642,o),
(343,654,o),
(356,659,cs),
(359,660,o),
(371,656,o),
(374,655,c),
(393,652,o),
(412,652,o),
(431,650,cs),
(433,650,o),
(435,652,o),
(434,650,cs),
(429,639,o),
(443,631,o),
(451,639,cs),
(459,648,o),
(450,661,o),
(440,656,c),
(436,655,o),
(425,657,o),
(421,657,c),
(404,660,o),
(386,661,o),
(368,664,c),
(377,668,o),
(426,691,o),
(435,696,c),
(443,685,o),
(459,694,o),
(453,706,cs),
(446,720,o),
(426,711,o),
(434,697,c),
(424,694,o),
(415,689,o),
(405,685,cs),
(392,680,o),
(378,676,o),
(364,675,cs),
(295,673,o),
(227,660,o),
(158,664,c),
(158,671,o),
(155,700,o),
(156,707,c),
(147,701,ls),
(146,700,o),
(147,698,o),
(147,697,cs),
(145,664,l),
(126,664,o),
(107,662,o),
(88,661,cs),
(82,661,o),
(51,663,o),
(45,662,cs),
(43,662,o),
(38,658,o),
(36,657,c),
(38,657,ls),
(45,657,o),
(72,654,o),
(79,651,cs),
(89,648,o),
(133,649,o),
(144,649,c),
(141,631,o),
(142,613,o),
(136,596,cs),
(127,571,o),
(125,544,o),
(120,517,cs),
(116,494,o),
(116,470,o),
(113,446,cs),
(112,427,o),
(108,409,o),
(107,390,c),
(96,388,o),
(47,376,o),
(37,376,cs),
(36,376,o),
(26,370,o),
(27,370,cs),
(31,371,o),
(34,371,o),
(34,370,c),
(43,374,o),
(69,363,o),
(79,361,cs),
(87,359,o),
(95,356,o),
(104,355,c),
(102,326,o),
(99,297,o),
(104,268,cs),
(112,225,o),
(104,181,o),
(102,137,cs),
(101,123,o),
(93,73,o),
(99,60,cs),
(103,51,o),
(92,19,o),
(90,9,c),
(74,2,o),
(84,-21,o),
(98,-12,c)
);
},
{
closed = 1;
nodes = (
(32,369,o),
(33,369,o),
(34,370,c),
(34,370,o),
(34,369,o),
(32,368,c)
);
},
{
closed = 1;
nodes = (
(34,656,o),
(35,656,o),
(36,657,c),
(36,656,o),
(35,656,o),
(35,656,c)
);
}
);
width = 468;
}
);
note = F;
unicode = 70;
},
{
glyphname = G;
layers = (
{
hints = (
{
horizontal = 1;
place = (676,40);
type = Stem;
},
{
horizontal = 1;
place = (372,21);
type = Stem;
},
{
horizontal = 1;
place = (368,12);
type = Stem;
},
{
horizontal = 1;
place = (-6,42);
type = Stem;
},
{
place = (542,21);
type = Stem;
},
{
place = (442,20);
type = Stem;
},
{
place = (438,9);
type = Stem;
},
{
place = (313,17);
type = Stem;
},
{
place = (40,71);
type = Stem;
}
);
layerId = m01;
shapes = (
{
closed = 1;
nodes = (
(309,27,o),
(361,57,o),
(369,63,cs),
(401,83,o),
(427,114,o),
(443,148,cs),
(455,173,o),
(461,201,o),
(462,228,cs),
(462,230,o),
(466,232,o),
(466,233,cs),
(464,242,o),
(467,251,o),
(471,260,cs),
(489,294,l),
(493,307,o),
(498,319,o),
(502,331,cs),
(507,351,o),
(524,368,o),
(543,376,c),
(554,365,o),
(570,379,o),
(560,390,cs),
(550,399,o),
(534,388,o),
(542,377,c),
(524,366,o),
(506,353,o),
(490,340,cs),
(475,327,o),
(463,310,o),
(453,293,c),
(451,299,o),
(448,304,o),
(444,308,cs),
(428,325,o),
(407,338,o),
(385,347,cs),
(370,354,o),
(354,359,o),
(340,368,c),
(341,381,o),
(325,384,o),
(317,375,cs),
(307,365,o),
(319,351,o),
(330,359,c),
(339,352,o),
(397,321,o),
(406,315,cs),
(418,307,o),
(430,298,o),
(436,285,cs),
(442,271,o),
(443,255,o),
(442,241,cs),
(442,214,o),
(437,188,o),
(427,163,cs),
(408,119,o),
(374,82,o),
(338,49,c),
(309,39,o),
(276,37,o),
(245,36,cs),
(230,36,o),
(215,38,o),
(202,44,cs),
(178,55,o),
(157,75,o),
(146,98,cs),
(129,133,o),
(123,172,o),
(116,211,cs),
(107,269,o),
(111,330,o),
(120,389,cs),
(128,433,o),
(137,478,o),
(156,518,cs),
(183,576,o),
(219,631,o),
(264,676,c),
(281,678,o),
(299,676,o),
(315,671,cs),
(331,666,o),
(347,656,o),
(360,645,cs),
(368,639,o),
(395,606,o),
(401,597,cs),
(402,595,o),
(411,588,o),
(412,586,cs),
(423,568,o),
(428,546,o),
(432,525,cs),
(434,513,o),
(437,501,o),
(438,489,cs),
(438,488,o),
(447,493,o),
(447,495,cs),
(444,519,o),
(445,543,o),
(447,568,cs),
(448,576,o),
(457,620,o),
(457,628,cs),
(456,640,o),
(443,667,o),
(435,675,cs),
(425,685,o),
(414,695,o),
(402,700,cs),
(382,710,o),
(359,716,o),
(337,716,cs),
(327,717,o),
(317,714,o),
(309,709,cs),
(297,703,o),
(236,668,o),
(225,661,cs),
(171,623,o),
(134,564,o),
(104,506,cs),
(54,412,o),
(39,300,o),
(40,193,cs),
(40,174,o),
(41,155,o),
(45,136,cs),
(53,99,o),
(70,64,o),
(92,34,cs),
(100,23,o),
(113,14,o),
(125,8,cs),
(140,0,o),
(157,-6,o),
(173,-6,cs),
(216,-5,o),
(261,3,o),
(299,23,c)
);
}
);
width = 575;
}
);
note = G;
unicode = 71;
},
{
glyphname = H;
layers = (
{
hints = (
{
horizontal = 1;
place = (688,24);
type = Stem;
},
{
horizontal = 1;
place = (344.5,7.5);
type = Stem;
},
{
horizontal = 1;
place = (332,33);
type = Stem;
},
{
horizontal = 1;
place = (329,12);
type = Stem;
},
{
horizontal = 1;
place = (318,47);
type = Stem;
},
{
horizontal = 1;
place = (312,29);
type = Stem;
},
{
place = (543,22);
type = Stem;
},
{
place = (514,19);
type = Stem;
},
{
place = (509,24);
type = Stem;
},
{
place = (470,16);
type = Stem;
},
{
place = (440,33);
type = Stem;
},
{
place = (438.5,34.5);
type = Stem;
},
{
place = (164,18);
type = Stem;
},
{
place = (134,10);
type = Stem;
},
{
place = (122,23);
type = Stem;
},
{
place = (88,21);
type = Stem;
}
);
layerId = m01;
shapes = (
{
closed = 1;
nodes = (
(184,-7,o),
(185,6,o),
(175,10,c),
(170,22,o),
(167,34,o),
(162,46,cs),
(158,56,o),
(142,88,o),
(145,100,cs),
(149,115,o),
(155,130,o),
(158,146,cs),
(164,182,o),
(166,217,o),
(172,252,cs),
(174,263,o),
(182,321,o),
(182,332,c),
(191,331,o),
(236,329,o),
(244,327,cs),
(269,321,o),
(296,318,o),
(322,318,cs),
(331,318,o),
(384,319,o),
(394,320,cs),
(410,321,o),
(425,326,o),
(440,332,c),
(441,329,o),
(442,310,o),
(443,306,c),
(446,266,o),
(456,227,o),
(464,187,cs),
(465,182,o),
(476,149,o),
(477,143,cs),
(480,122,o),
(480,100,o),
(484,79,cs),
(488,59,o),
(495,38,o),
(505,19,c),
(506,18,o),
(503,13,o),
(505,14,c),
(507,16,o),
(514,18,o),
(515,21,c),
(518,40,o),
(503,125,o),
(500,145,cs),
(499,153,o),
(498,199,o),
(497,207,cs),
(494,223,o),
(475,313,o),
(473,329,c),
(488,323,o),
(501,315,o),
(516,312,c),
(535,312,ls),
(538,312,o),
(543,312,o),
(543,309,cs),
(542,300,o),
(553,294,o),
(560,299,cs),
(571,306,o),
(564,322,o),
(550,318,cs),
(546,317,o),
(541,321,o),
(537,324,cs),
(531,328,o),
(499,338,o),
(491,340,c),
(473,341,ls),
(472,341,o),
(472,346,o),
(473,347,c),
(489,355,o),
(504,362,o),
(520,369,c),
(534,356,o),
(554,377,o),
(537,385,cs),
(527,390,o),
(514,381,o),
(519,371,c),
(503,365,o),
(489,356,o),
(473,354,c),
(476,400,o),
(486,446,o),
(491,493,cs),
(494,522,o),
(493,551,o),
(491,579,cs),
(490,584,o),
(486,613,o),
(486,618,cs),
(486,630,o),
(490,642,o),
(494,654,cs),
(499,671,o),
(507,686,o),
(514,703,c),
(519,700,o),
(522,700,o),
(527,703,cs),
(536,707,o),
(534,721,o),
(523,722,cs),
(514,723,o),
(507,717,o),
(509,708,c),
(498,685,o),
(487,663,o),
(478,640,c),
(475,656,o),
(470,672,o),
(465,688,c),
(465,690,o),
(461,701,o),
(461,703,cs),
(460,714,o),
(447,716,o),
(441,707,cs),
(436,698,o),
(443,687,o),
(452,688,c),
(457,674,o),
(473,633,o),
(468,619,c),
(468,619,o),
(470,620,o),
(470,619,c),
(462,596,o),
(459,571,o),
(455,547,cs),
(450,519,o),
(441,491,o),
(440,463,cs),
(440,428,o),
(437,394,o),
(437,359,c),
(370,367,o),
(302,365,o),
(234,365,cs),
(227,365,o),
(191,359,o),
(184,358,c),
(185,379,o),
(184,484,o),
(182,505,cs),
(181,514,o),
(171,560,o),
(169,569,cs),
(167,574,o),
(165,578,o),
(163,584,cs),
(152,619,o),
(147,657,o),
(144,694,cs),
(144,696,o),
(134,690,o),
(134,688,cs),
(137,650,o),
(137,610,o),
(130,571,cs),
(127,557,o),
(114,479,o),
(112,465,cs),
(112,459,o),
(112,425,o),
(111,419,c),
(111,397,o),
(109,374,o),
(107,352,c),
(80,352,o),
(52,353,o),
(24,356,cs),
(23,356,o),
(13,351,o),
(14,350,c),
(24,350,o),
(33,347,o),
(42,346,cs),
(64,344,o),
(85,344,o),
(107,343,c),
(106,314,o),
(108,285,o),
(114,256,cs),
(122,212,o),
(119,167,o),
(120,122,cs),
(120,118,o),
(122,94,o),
(122,89,c),
(113,53,l),
(108,41,o),
(101,30,o),
(98,18,c),
(86,17,o),
(84,1,o),
(95,-4,cs),
(106,-9,o),
(113,5,o),
(106,15,c),
(108,24,o),
(130,62,o),
(134,70,c),
(141,48,o),
(153,27,o),
(164,7,c),
(158,-2,o),
(165,-14,o),
(175,-11,cs)
);
}
);
width = 596;
}
);
note = H;
unicode = 72;
},
{
glyphname = I;
layers = (
{
hints = (
{
horizontal = 1;
place = (686,22);
type = Stem;
},
{
horizontal = 1;
place = (670,16);
type = Stem;
},
{
horizontal = 1;
place = (666,20);
type = Stem;
},
{
horizontal = 1;
place = (662,11);
type = Stem;
},
{
horizontal = 1;
place = (70,20);
type = Stem;
},
{
horizontal = 1;
place = (48,22);
type = Stem;
},
{
horizontal = 1;
place = (29,22);
type = Stem;
},
{
horizontal = 1;
place = (22,11);
type = Stem;
},
{
horizontal = 1;
place = (15,13);
type = Stem;
},
{
place = (348,21);
type = Stem;
},
{
place = (333,20);
type = Stem;
},
{
place = (332,23);
type = Stem;
},
{
place = (191,21);
type = Stem;
},
{
place = (164,10.5);
type = Stem;
},
{
place = (163,9.5);
type = Stem;
},
{
place = (162,12.5);
type = Stem;
},
{
place = (125,19);
type = Stem;
}
);
layerId = m01;
shapes = (
{
closed = 1;
nodes = (
(146,66,o),
(150,67,o),
(151,68,c),
(162,86,o),
(169,106,o),
(177,125,c),
(182,108,o),
(187,92,o),
(194,75,c),
(186,67,o),
(193,53,o),
(204,56,cs),
(215,59,o),
(214,73,o),
(204,78,c),
(196,98,o),
(189,119,o),
(182,141,c),
(189,158,o),
(196,229,o),
(195,248,cs),
(193,296,o),
(191,345,o),
(183,393,cs),
(181,409,o),
(177,425,o),
(175,441,cs),
(166,514,o),
(179,588,o),
(174,661,c),
(201,659,o),
(228,657,o),
(254,663,c),
(256,664,o),
(265,667,o),
(267,667,cs),
(282,666,o),
(296,663,o),
(311,662,cs),
(333,662,l),
(326,652,o),
(335,641,o),
(347,646,cs),
(356,650,o),
(354,664,o),
(344,666,cs),
(343,666,o),
(346,667,o),
(344,667,cs),
(323,669,o),
(302,673,o),
(281,673,c),
(298,680,o),
(314,686,o),
(332,692,c),
(336,686,o),
(345,683,o),
(351,689,cs),
(357,695,o),
(356,706,o),
(347,708,cs),
(339,710,o),
(331,705,o),
(330,697,c),
(320,693,o),
(311,689,o),
(300,688,cs),
(285,686,o),
(269,690,o),
(254,690,cs),
(227,690,o),
(200,689,o),
(173,687,c),
(173,694,o),
(172,702,o),
(172,709,c),
(173,711,o),
(163,705,o),
(163,704,cs),
(164,686,l),
(144,685,o),
(58,685,o),
(39,677,c),
(25,668,l),
(32,668,o),
(74,669,o),
(82,670,cs),
(109,671,o),
(137,666,o),
(164,662,c),
(163,636,o),
(163,611,o),
(162,585,cs),
(162,569,o),
(158,473,o),
(157,457,cs),
(156,430,o),
(151,403,o),
(149,375,cs),
(146,349,o),
(152,208,o),
(153,181,cs),
(153,178,o),
(158,162,o),
(158,159,cs),
(159,150,o),
(157,140,o),
(157,131,cs),
(157,109,o),
(153,87,o),
(144,67,c),
(133,76,o),
(119,64,o),
(128,52,cs),
(135,41,o),
(153,52,o),
(147,64,cs)
);
},
{
closed = 1;
nodes = (
(13,22,o),
(36,21,o),
(39,20,cs),
(58,13,o),
(145,16,o),
(166,15,cs),
(179,15,o),
(236,22,o),
(249,25,cs),
(281,34,o),
(315,25,o),
(348,29,c),
(350,22,o),
(357,19,o),
(363,22,cs),
(371,26,o),
(371,37,o),
(363,41,cs),
(357,44,o),
(350,40,o),
(348,33,c),
(282,33,l),
(309,42,o),
(336,55,o),
(360,70,c),
(370,65,o),
(379,74,o),
(375,84,cs),
(369,97,o),
(349,89,o),
(355,76,c),
(356,75,o),
(360,70,o),
(359,70,c),
(351,65,o),
(343,60,o),
(334,57,cs),
(328,55,o),
(306,50,o),
(300,51,cs),
(297,51,o),
(294,52,o),
(292,52,cs),
(271,48,o),
(250,46,o),
(229,44,cs),
(177,38,o),
(125,42,o),
(73,35,cs),
(54,32,o),
(36,28,o),
(16,28,c),
(16,28,o),
(20,31,o),
(19,31,c),
(13,29,o),
(4,25,o),
(10,23,cs)
);
}
);
width = 391;
}
);
note = I;
unicode = (73,204,205,206,207);
},
{
glyphname = J;
layers = (
{
hints = (
{
horizontal = 1;
place = (680.5,33.5);
type = Stem;
},
{
horizontal = 1;
place = (661,14);
type = Stem;
},
{
horizontal = 1;
place = (24,33);
type = Stem;
},
{
place = (384,48);
type = Stem;
},
{
place = (340,42);
type = Stem;
},
{
place = (88,22);
type = Stem;
},
{
place = (78,9);
type = Stem;
},
{
place = (72,15);
type = Stem;
},
{
place = (35,16);
type = Stem;
},
{
place = (21,30);
type = Stem;
}
);
layerId = m01;
shapes = (
{
closed = 1;
nodes = (
(200,27,o),
(231,35,o),
(260,44,cs),
(292,55,o),
(322,72,o),
(350,90,cs),
(382,108,o),
(405,142,o),
(416,176,cs),
(426,209,o),
(428,243,o),
(432,277,cs),
(436,312,o),
(433,347,o),
(430,382,cs),
(424,438,o),
(418,494,o),
(404,548,cs),
(402,557,o),
(385,606,o),
(382,615,cs),
(379,625,o),
(382,636,o),
(386,646,c),
(392,647,o),
(414,649,o),
(419,651,c),
(423,654,o),
(449,668,o),
(453,671,cs),
(457,674,o),
(460,682,o),
(460,687,cs),
(460,690,o),
(458,693,o),
(457,697,cs),
(457,700,o),
(450,704,o),
(447,705,c),
(439,711,o),
(408,714,o),
(398,714,cs),
(377,715,o),
(355,716,o),
(333,713,cs),
(232,696,ls),
(217,693,o),
(134,676,o),
(119,675,cs),
(113,675,o),
(93,676,o),
(88,674,cs),
(85,672,o),
(76,669,o),
(80,668,c),
(83,666,o),
(104,663,o),
(107,661,c),
(120,657,o),
(170,667,o),
(184,668,cs),
(229,674,o),
(273,681,o),
(318,682,cs),
(327,682,o),
(373,679,o),
(382,679,c),
(418,672,l),
(420,671,o),
(423,669,o),
(421,668,c),
(406,667,o),
(392,657,o),
(379,650,cs),
(364,641,o),
(346,630,o),
(340,614,cs),
(337,604,o),
(338,594,o),
(337,584,cs),
(335,565,o),
(340,546,o),
(340,527,cs),
(341,515,o),
(354,451,o),
(356,439,cs),
(362,397,o),
(365,354,o),
(376,313,cs),
(382,288,o),
(386,262,o),
(384,236,cs),
(382,209,o),
(376,183,o),
(370,157,cs),
(362,127,o),
(347,96,o),
(324,77,c),
(288,63,o),
(252,57,o),
(214,57,cs),
(186,57,o),
(157,61,o),
(133,75,cs),
(119,82,o),
(107,94,o),
(97,107,cs),
(85,124,o),
(86,148,o),
(87,169,cs),
(88,183,o),
(96,248,o),
(100,262,c),
(114,266,o),
(114,288,o),
(99,286,cs),
(87,285,o),
(83,270,o),
(93,263,c),
(85,237,o),
(83,210,o),
(78,183,c),
(75,195,o),
(58,240,o),
(51,250,cs),
(49,253,o),
(44,256,o),
(46,259,c),
(60,272,o),
(42,293,o),
(27,282,cs),
(16,275,o),
(21,254,o),
(33,253,cs),
(37,252,o),
(34,245,o),
(35,241,cs),
(35,239,o),
(39,232,o),
(40,230,cs),
(51,210,o),
(64,191,o),
(70,169,cs),
(73,156,o),
(72,142,o),
(72,128,cs),
(72,125,o),
(69,123,o),
(72,125,c),
(72,105,o),
(73,82,o),
(85,66,cs),
(90,60,o),
(96,54,o),
(101,47,cs),
(112,32,o),
(150,21,o),
(169,24,cs)
);
}
);
width = 496;
}
);
note = J;
unicode = 74;
},
{
glyphname = K;
layers = (
{
hints = (
{
horizontal = 1;
place = (44,21);
type = Stem;
},
{
horizontal = 1;
place = (-4,21);
type = Stem;
},
{
horizontal = 1;
place = (-5,21);
type = Stem;
},
{
place = (481,21);
type = Stem;
},
{
place = (101,12);
type = Stem;
},
{
place = (87,99);
type = Stem;
},
{
place = (87,60);
type = Stem;
},
{
place = (84,58);
type = Stem;
},
{
place = (80,21);
type = Stem;
},
{
place = (75,42);
type = Stem;
},
{
place = (61,10);
type = Stem;
},
{
place = (43,23);
type = Stem;
}
);
layerId = m01;
shapes = (
{
closed = 1;
nodes = (
(466,8,o),
(458,20,o),
(447,16,c),
(438,25,o),
(390,78,o),
(381,87,c),
(412,70,o),
(446,59,o),
(480,52,c),
(487,35,o),
(511,49,o),
(499,62,c),
(493,67,o),
(484,66,o),
(481,59,c),
(450,68,o),
(418,80,o),
(393,101,cs),
(380,112,o),
(311,173,o),
(299,186,cs),
(295,190,o),
(270,218,o),
(265,222,c),
(254,234,o),
(211,274,o),
(205,289,cs),
(204,292,o),
(195,304,o),
(194,307,cs),
(192,312,o),
(187,332,o),
(186,338,c),
(185,367,o),
(194,396,o),
(205,423,cs),
(228,484,o),
(268,537,o),
(304,591,cs),
(331,631,o),
(369,662,o),
(398,700,c),
(403,705,l),
(397,702,o),
(391,697,o),
(387,692,cs),
(350,648,o),
(308,606,o),
(268,564,cs),
(217,511,o),
(171,451,o),
(142,384,c),
(139,405,o),
(132,425,o),
(128,446,cs),
(125,462,o),
(116,476,o),
(110,490,cs),
(106,501,o),
(102,511,o),
(100,522,cs),
(93,552,o),
(69,692,o),
(71,723,cs),
(71,725,o),
(61,719,o),
(61,718,cs),
(63,706,o),
(66,638,o),
(68,626,cs),
(72,588,o),
(81,550,o),
(83,512,cs),
(87,462,o),
(84,411,o),
(85,361,cs),
(87,258,ls),
(87,241,o),
(77,147,o),
(75,130,cs),
(74,113,o),
(80,94,o),
(76,78,cs),
(74,72,o),
(59,40,o),
(58,33,c),
(57,31,o),
(58,27,o),
(56,28,cs),
(45,31,o),
(38,16,o),
(48,9,cs),
(59,1,o),
(72,15,o),
(62,25,c),
(67,36,o),
(94,88,o),
(101,98,c),
(99,71,o),
(98,44,o),
(96,17,c),
(84,23,o),
(75,8,o),
(84,-1,cs),
(89,-7,o),
(99,-4,o),
(101,4,c),
(101,8,l),
(102,9,o),
(103,9,o),
(103,10,cs),
(104,13,o),
(108,28,o),
(108,31,cs),
(111,59,o),
(109,88,o),
(113,117,cs),
(113,119,o),
(117,124,o),
(117,126,c),
(127,146,o),
(132,169,o),
(138,191,cs),
(143,209,o),
(145,228,o),
(147,247,c),
(163,225,o),
(181,205,o),
(201,186,cs),
(208,180,o),
(246,157,o),
(255,152,cs),
(258,150,o),
(276,138,o),
(279,136,cs),
(327,112,ls),
(331,110,o),
(349,102,o),
(353,99,cs),
(367,86,o),
(380,73,o),
(393,59,cs),
(397,55,o),
(415,30,o),
(418,26,cs),
(425,19,o),
(433,13,o),
(441,7,c),
(440,-4,o),
(453,-10,o),
(460,-1,cs)
);
}
);
width = 507;
}
);
note = K;
unicode = 75;
},
{
glyphname = L;
layers = (
{
hints = (
{
horizontal = 1;
place = (76,24);
type = Stem;
},
{
horizontal = 1;
place = (28,9.5);
type = Stem;
},
{
horizontal = 1;
place = (18,24);
type = Stem;
},
{
horizontal = 1;
place = (18,19.5);
type = Stem;
},
{
place = (401,24);
type = Stem;
},
{
place = (100,10);
type = Stem;
},
{
place = (59,58);
type = Stem;
},
{
place = (59,55.5);
type = Stem;
}
);
layerId = m01;
shapes = (
{
closed = 1;
nodes = (
(229,13,o),
(245,18,o),
(248,18,cs),
(277,18,o),
(306,20,o),
(335,24,cs),
(357,28,o),
(379,32,o),
(401,35,c),
(405,26,o),
(415,27,o),
(422,34,cs),
(431,42,o),
(421,56,o),
(410,51,cs),
(406,49,o),
(401,45,o),
(400,40,c),
(387,39,o),
(311,36,o),
(298,35,c),
(330,48,o),
(359,65,o),
(389,82,c),
(396,69,o),
(415,79,o),
(409,93,c),
(408,94,o),
(411,95,o),
(411,95,c),
(410,95,o),
(409,94,o),
(408,94,c),
(400,107,o),
(383,97,o),
(388,83,c),
(370,72,o),
(292,45,o),
(271,42,cs),
(228,37,o),
(181,51,o),
(147,76,cs),
(127,91,o),
(120,119,o),
(116,143,cs),
(113,163,o),
(114,268,o),
(113,288,cs),
(111,344,o),
(117,399,o),
(117,455,cs),
(117,460,o),
(121,486,o),
(121,491,cs),
(120,503,ls),
(119,534,o),
(122,566,o),
(115,596,cs),
(108,627,o),
(111,660,o),
(110,692,cs),
(110,699,o),
(108,707,o),
(107,714,cs),
(107,715,o),
(97,710,o),
(97,708,cs),
(98,702,o),
(100,695,o),
(100,689,cs),
(100,664,o),
(79,549,o),
(73,524,cs),
(68,506,o),
(69,487,o),
(64,469,cs),
(59,450,o),
(62,431,o),
(61,412,cs),
(60,372,o),
(58,333,o),
(59,293,cs),
(59,247,o),
(55,200,o),
(56,154,cs),
(56,135,o),
(60,116,o),
(63,98,cs),
(66,80,o),
(75,61,o),
(90,51,cs),
(116,34,o),
(146,19,o),
(177,14,cs),
(193,12,o),
(210,10,o),
(226,13,c)
);
}
);
width = 430;
}
);
note = L;
unicode = 76;
},
{
glyphname = M;
layers = (
{
hints = (
{
horizontal = 1;
place = (643,10.5);
type = Stem;
},
{
horizontal = 1;
place = (59,19);
type = Stem;
},
{
place = (627,13);
type = Stem;
},
{
place = (574,90);
type = Stem;
},
{
place = (260.5,49.5);
type = Stem;
},
{
place = (240,70);
type = Stem;
}
);
layerId = m01;
shapes = (
{
closed = 1;
nodes = (
(31,21,o),
(31,25,o),
(32,26,c),
(54,105,o),
(71,186,o),
(91,266,cs),
(102,307,o),
(114,347,o),
(124,389,cs),
(133,428,o),
(180,607,o),
(198,643,c),
(200,642,l),
(208,634,o),
(204,598,o),
(206,587,cs),
(210,559,o),
(208,531,o),
(210,504,cs),
(211,490,o),
(222,409,o),
(223,395,cs),
(224,358,o),
(241,322,o),
(240,284,cs),
(240,269,o),
(240,253,o),
(244,238,cs),
(245,234,o),
(256,207,o),
(257,203,cs),
(264,169,ls),
(268,137,o),
(274,104,o),
(288,75,cs),
(293,64,o),
(311,58,o),
(323,59,cs),
(329,60,o),
(351,74,o),
(356,77,cs),
(363,82,o),
(375,108,o),
(378,116,cs),
(382,123,o),
(401,164,o),
(404,171,cs),
(425,221,o),
(518,522,o),
(536,572,cs),
(549,607,o),
(563,640,o),
(582,672,cs),
(583,674,o),
(586,669,o),
(587,667,cs),
(589,664,o),
(588,660,o),
(588,656,cs),
(589,646,o),
(589,599,o),
(588,589,cs),
(582,537,o),
(578,483,o),
(575,430,cs),
(573,396,o),
(571,361,o),
(574,326,cs),
(574,323,o),
(578,305,o),
(578,303,cs),
(579,298,o),
(579,276,o),
(580,271,cs),
(581,267,o),
(584,263,o),
(586,259,cs),
(587,257,o),
(589,244,o),
(590,242,c),
(591,236,o),
(601,220,o),
(605,216,cs),
(607,214,o),
(611,213,o),
(612,210,c),
(614,184,o),
(609,157,o),
(617,132,cs),
(619,126,o),
(625,96,o),
(626,90,cs),
(630,73,o),
(630,54,o),
(628,37,c),
(616,37,o),
(612,22,o),
(623,17,cs),
(635,12,o),
(646,25,o),
(636,34,c),
(639,45,o),
(640,94,o),
(640,104,cs),
(638,127,ls),
(636,139,o),
(637,152,o),
(636,164,c),
(640,156,o),
(644,148,o),
(650,142,cs),
(659,134,o),
(691,88,o),
(698,78,c),
(689,65,o),
(707,51,o),
(716,64,cs),
(720,71,o),
(716,79,o),
(709,81,c),
(694,108,o),
(677,135,o),
(673,165,cs),
(670,184,o),
(656,201,o),
(657,221,cs),
(658,229,o),
(656,239,o),
(660,247,cs),
(662,253,o),
(665,278,o),
(665,285,cs),
(665,291,o),
(663,297,o),
(663,303,cs),
(664,309,o),
(665,315,o),
(665,321,cs),
(665,323,o),
(664,336,o),
(663,339,c),
(662,351,o),
(664,364,o),
(664,377,cs),
(665,406,o),
(656,567,o),
(654,596,cs),
(653,612,o),
(639,668,o),
(632,681,cs),
(626,691,o),
(610,696,o),
(600,691,cs),
(592,687,o),
(556,666,o),
(549,660,cs),
(531,644,o),
(519,621,o),
(508,600,cs),
(465,515,o),
(438,423,o),
(408,333,cs),
(398,303,o),
(358,167,o),
(358,135,c),
(357,127,o),
(348,95,o),
(343,85,c),
(344,86,o),
(344,88,o),
(344,89,cs),
(346,109,o),
(337,129,o),
(332,148,cs),
(328,162,o),
(326,177,o),
(322,191,cs),
(314,218,o),
(311,247,o),
(310,276,cs),
(310,297,o),
(303,317,o),
(302,337,cs),
(301,352,o),
(296,421,o),
(293,435,cs),
(288,452,o),
(287,470,o),
(284,488,cs),
(281,505,o),
(277,522,o),
(275,539,cs),
(273,555,o),
(255,611,o),
(247,624,cs),
(241,634,o),
(237,646,o),
(227,652,cs),
(222,655,o),
(214,657,o),
(209,655,cs),
(204,653,o),
(185,642,o),
(181,638,cs),
(156,614,o),
(125,500,o),
(116,466,cs),
(110,442,o),
(103,418,o),
(98,393,cs),
(93,371,o),
(72,239,o),
(68,217,cs),
(60,159,o),
(46,103,o),
(31,47,cs),
(28,36,o),
(25,25,o),
(21,15,c),
(23,16,o),
(30,19,o),
(31,20,c)
);
}
);
width = 747;
}
);
note = M;
unicode = 77;
},
{
glyphname = N;
layers = (
{
hints = (
{
horizontal = 1;
place = (671,35);
type = Stem;
},
{
place = (482,8);
type = Stem;
},
{
place = (479,45);
type = Stem;
},
{
place = (446,44);
type = Stem;
},
{
place = (412.5,31.5);
type = Stem;
},
{
place = (66,14);
type = Stem;
},
{
place = (59,47.5);
type = Stem;
}
);
layerId = m01;
shapes = (
{
closed = 1;
nodes = (
(81,38,o),
(80,48,o),
(80,53,cs),
(80,142,o),
(95,230,o),
(102,318,cs),
(105,348,o),
(109,536,o),
(111,566,cs),
(113,586,o),
(117,606,o),
(121,625,c),
(134,590,o),
(139,552,o),
(158,519,cs),
(200,442,ls),
(216,415,o),
(236,389,o),
(249,361,cs),
(258,343,o),
(268,327,o),
(277,310,cs),
(288,288,o),
(351,163,o),
(364,142,cs),
(379,117,o),
(395,89,o),
(419,70,cs),
(426,65,o),
(430,57,o),
(436,51,cs),
(442,46,o),
(451,44,o),
(459,41,cs),
(463,40,o),
(467,39,o),
(470,41,cs),
(476,44,o),
(502,59,o),
(507,63,cs),
(522,75,o),
(524,127,o),
(524,146,c),
(525,153,o),
(527,192,o),
(528,198,cs),
(529,214,o),
(520,280,o),
(517,295,cs),
(506,338,o),
(506,382,o),
(503,426,cs),
(501,445,o),
(501,464,o),
(502,482,cs),
(503,491,o),
(502,500,o),
(501,509,cs),
(500,516,o),
(490,547,o),
(490,554,cs),
(491,596,o),
(509,638,o),
(523,678,c),
(527,680,o),
(529,684,o),
(531,687,cs),
(539,697,o),
(523,711,o),
(512,704,c),
(506,702,o),
(502,697,o),
(504,691,c),
(504,688,ls),
(503,682,o),
(508,677,o),
(514,677,c),
(509,665,o),
(503,654,o),
(498,642,cs),
(490,620,o),
(485,596,o),
(482,573,c),
(452,635,ls),
(449,641,o),
(442,668,o),
(440,674,c),
(448,682,o),
(443,700,o),
(431,703,c),
(424,710,o),
(414,707,o),
(413,698,c),
(412,696,o),
(411,687,o),
(412,685,c),
(413,678,o),
(424,671,o),
(431,671,c),
(432,665,o),
(439,634,o),
(439,628,cs),
(439,616,o),
(446,551,o),
(446,539,cs),
(446,533,o),
(452,502,o),
(453,496,cs),
(455,484,o),
(459,431,o),
(458,419,cs),
(457,406,o),
(455,333,o),
(455,319,cs),
(456,294,o),
(450,268,o),
(450,243,cs),
(450,233,o),
(458,186,o),
(460,176,cs),
(464,160,o),
(472,146,o),
(476,131,cs),
(479,115,o),
(479,99,o),
(479,83,c),
(470,98,o),
(470,116,o),
(465,132,cs),
(445,196,o),
(413,255,o),
(383,314,cs),
(373,333,o),
(362,350,o),
(353,369,cs),
(340,395,o),
(323,419,o),
(311,446,cs),
(301,465,o),
(292,485,o),
(280,503,cs),
(256,539,o),
(237,577,o),
(215,615,cs),
(210,624,o),
(186,666,o),
(178,674,cs),
(171,681,o),
(152,684,o),
(142,680,cs),
(136,678,o),
(108,661,o),
(102,657,cs),
(99,655,o),
(95,654,o),
(92,650,cs),
(69,621,o),
(60,503,o),
(59,466,cs),
(57,439,o),
(51,317,o),
(56,291,cs),
(61,268,o),
(67,245,o),
(69,222,cs),
(71,181,o),
(69,141,o),
(66,100,cs),
(65,88,o),
(60,43,o),
(64,32,cs),
(66,27,o),
(72,33,o),
(77,36,cs)
);
}
);
width = 581;
}
);
note = N;
unicode = (78,209);
},
{
glyphname = O;
layers = (
{
hints = (
{
horizontal = 1;
place = (693,9);
type = Stem;
},
{
horizontal = 1;
place = (638,9);
type = Stem;
},
{
horizontal = 1;
place = (612,24);
type = Stem;
},
{
horizontal = 1;
place = (-5,47.5);
type = Stem;
},
{
place = (438,44);
type = Stem;
},
{
place = (202,21);
type = Stem;
},
{
place = (201,22);
type = Stem;
},
{
place = (40,46);
type = Stem;
}
);
layerId = m01;
shapes = (
{
closed = 1;
nodes = (
(281,16,o),
(350,56,o),
(362,64,cs),
(390,83,o),
(413,111,o),
(430,140,cs),
(449,173,o),
(461,210,o),
(470,247,cs),
(490,327,o),
(482,412,o),
(466,493,cs),
(458,536,o),
(439,577,o),
(416,614,cs),
(414,618,o),
(399,633,o),
(396,636,cs),
(371,664,o),
(335,687,o),
(298,695,cs),
(288,697,o),
(236,698,o),
(226,698,cs),
(224,698,o),
(223,697,o),
(222,696,c),
(221,696,o),
(219,698,o),
(218,699,cs),
(212,705,o),
(202,702,o),
(201,693,cs),
(201,686,l),
(197,674,o),
(215,668,o),
(220,679,cs),
(222,683,o),
(224,688,o),
(223,693,c),
(230,693,o),
(269,692,o),
(277,691,cs),
(289,690,o),
(301,686,o),
(312,681,cs),
(329,675,o),
(345,667,o),
(358,655,cs),
(367,647,o),
(375,637,o),
(382,627,c),
(350,641,o),
(313,652,o),
(279,647,cs),
(259,644,o),
(240,641,o),
(222,633,c),
(211,644,o),
(195,626,o),
(206,616,cs),
(216,605,o),
(230,620,o),
(223,632,c),
(234,636,o),
(246,637,o),
(258,638,cs),
(276,638,o),
(293,629,o),
(310,624,cs),
(320,621,o),
(353,608,o),
(360,602,cs),
(367,595,o),
(376,590,o),
(384,584,cs),
(392,578,o),
(397,570,o),
(404,563,cs),
(417,551,o),
(424,533,o),
(427,516,cs),
(452,394,o),
(435,259,o),
(387,144,cs),
(372,106,o),
(346,71,o),
(315,43,c),
(299,40,o),
(283,38,o),
(267,42,cs),
(238,48,o),
(213,66,o),
(190,84,cs),
(144,123,o),
(114,182,o),
(96,240,cs),
(83,284,o),
(81,331,o),
(86,377,cs),
(94,455,o),
(120,534,o),
(164,599,cs),
(169,606,o),
(197,638,o),
(202,644,c),
(187,637,o),
(145,593,o),
(135,580,cs),
(101,535,o),
(79,482,o),
(61,429,cs),
(51,397,o),
(38,266,o),
(40,233,cs),
(43,198,o),
(51,164,o),
(63,131,cs),
(74,100,o),
(88,69,o),
(110,45,cs),
(127,25,o),
(150,9,o),
(174,0,cs),
(204,-11,o),
(240,-5,o),
(268,10,cs)
);
}
);
width = 522;
}
);
note = O;
unicode = (79,210,211,212,213,214,216);
},
{
glyphname = P;
layers = (
{
hints = (
{
horizontal = 1;
place = (666,12);
type = Stem;
},
{
horizontal = 1;
place = (665,7);
type = Stem;
},
{
horizontal = 1;
place = (664,14);
type = Stem;
},
{
horizontal = 1;
place = (297,35);
type = Stem;
},
{
horizontal = 1;
place = (281,7);
type = Stem;
},
{
horizontal = 1;
place = (11,31);
type = Stem;
},
{
place = (382,85);
type = Stem;
},
{
place = (176,39);
type = Stem;
},
{
place = (176,27);
type = Stem;
},
{
place = (138,29);
type = Stem;
},
{
place = (122,8.5);
type = Stem;
},
{
place = (119,10);
type = Stem;
},
{
place = (119,9);
type = Stem;
},
{
place = (88,15);
type = Stem;
},
{
place = (82,25);
type = Stem;
}
);
layerId = m01;
shapes = (
{
closed = 1;
nodes = (
(108,27,o),
(106,36,o),
(103,39,c),
(105,48,o),
(111,56,o),
(113,66,cs),
(115,77,o),
(118,88,o),
(120,99,c),
(122,90,o),
(138,54,o),
(142,47,c),
(133,37,o),
(140,19,o),
(153,17,cs),
(166,16,o),
(171,32,o),
(163,43,cs),
(162,45,o),
(156,48,o),
(155,50,cs),
(148,69,o),
(148,91,o),
(141,110,cs),
(139,115,o),
(127,127,o),
(129,132,cs),
(131,141,o),
(143,181,o),
(144,190,cs),
(151,251,o),
(151,312,o),
(150,374,cs),
(149,405,o),
(153,437,o),
(150,468,cs),
(149,484,o),
(132,564,o),
(128,580,cs),
(125,593,o),
(126,651,o),
(128,664,c),
(132,664,o),
(151,664,o),
(155,663,cs),
(159,662,o),
(163,660,o),
(168,659,cs),
(171,659,o),
(187,657,o),
(191,656,cs),
(203,652,o),
(216,651,o),
(227,643,c),
(247,635,l),
(254,631,o),
(289,615,o),
(295,610,cs),
(309,599,o),
(359,561,o),
(366,545,cs),
(375,525,o),
(384,504,o),
(382,482,cs),
(381,468,o),
(380,454,o),
(378,440,cs),
(375,426,o),
(368,412,o),
(362,398,cs),
(359,392,o),
(352,376,o),
(345,374,cs),
(325,367,o),
(222,332,o),
(203,322,cs),
(201,321,o),
(199,323,o),
(197,325,c),
(186,344,o),
(168,321,o),
(181,302,cs),
(191,288,o),
(212,305,o),
(203,320,c),
(232,328,o),
(261,329,o),
(289,338,c),
(267,316,o),
(240,300,o),
(215,282,c),
(212,289,o),
(201,291,o),
(194,285,c),
(189,279,o),
(191,267,o),
(198,264,cs),
(207,260,o),
(218,271,o),
(216,281,c),
(246,303,o),
(280,321,o),
(308,346,c),
(309,346,o),
(309,347,o),
(310,347,c),
(325,355,o),
(399,397,o),
(413,408,cs),
(431,422,o),
(444,441,o),
(456,461,cs),
(466,476,o),
(467,497,o),
(467,516,cs),
(467,523,o),
(458,550,o),
(454,556,cs),
(439,583,l),
(429,596,o),
(424,612,o),
(414,624,cs),
(411,628,o),
(398,643,o),
(394,645,cs),
(383,652,o),
(340,672,o),
(327,673,cs),
(279,678,o),
(230,683,o),
(182,679,cs),
(175,678,o),
(136,678,o),
(129,677,c),
(130,685,o),
(130,693,o),
(132,701,c),
(128,699,o),
(121,698,o),
(122,694,c),
(122,688,o),
(122,683,o),
(121,677,c),
(111,676,o),
(55,672,o),
(45,672,c),
(44,671,o),
(34,666,o),
(35,666,cs),
(83,667,ls),
(95,667,o),
(107,665,o),
(119,665,c),
(115,639,o),
(115,613,o),
(112,587,cs),
(110,574,o),
(91,507,o),
(88,494,cs),
(77,448,o),
(72,400,o),
(72,353,cs),
(72,314,o),
(67,276,o),
(70,238,cs),
(70,224,o),
(72,160,o),
(77,147,cs),
(82,131,o),
(87,114,o),
(88,97,cs),
(89,91,o),
(88,57,o),
(88,52,cs),
(88,49,o),
(93,42,o),
(92,42,c),
(82,39,o),
(78,22,o),
(86,15,cs),
(94,7,o),
(106,11,o),
(107,23,cs)
);
}
);
width = 486;
}
);
note = P;
unicode = 80;
},
{
glyphname = Q;
layers = (
{
hints = (
{
horizontal = 1;
place = (669,12);
type = Stem;
},
{
horizontal = 1;
place = (639,23);
type = Stem;
},
{
horizontal = 1;
place = (30,36);
type = Stem;
},
{
horizontal = 1;
place = (-197,27);
type = Stem;
},
{
place = (612,24);
type = Stem;
},
{
place = (581,26);
type = Stem;
},
{
place = (446,57);
type = Stem;
},
{
place = (446,54);
type = Stem;
},
{
place = (295,10);
type = Stem;
},
{
place = (206,21);
type = Stem;
},
{
place = (199,10);
type = Stem;
},
{
place = (145,23);
type = Stem;
},
{
place = (44.5,32.5);
type = Stem;
}
);
layerId = m01;
shapes = (
{
closed = 1;
nodes = (
(607,-233,o),
(612,-221,o),
(603,-215,cs),
(602,-214,o),
(596,-212,o),
(595,-211,cs),
(580,-190,o),
(568,-168,o),
(558,-145,c),
(564,-150,o),
(604,-175,o),
(611,-179,c),
(612,-179,o),
(612,-182,o),
(612,-183,cs),
(611,-195,o),
(625,-203,o),
(632,-193,cs),
(642,-179,o),
(632,-163,o),
(616,-170,c),
(596,-156,o),
(574,-144,o),
(554,-130,c),
(550,-117,o),
(540,-106,o),
(534,-94,cs),
(529,-82,o),
(490,-41,o),
(481,-31,cs),
(469,-19,o),
(461,-4,o),
(450,10,cs),
(445,17,o),
(439,24,o),
(434,30,cs),
(418,49,o),
(395,59,o),
(379,77,c),
(404,91,o),
(429,106,o),
(446,129,cs),
(457,145,o),
(492,213,o),
(496,233,cs),
(508,291,o),
(501,352,o),
(500,412,cs),
(500,449,o),
(487,485,o),
(472,519,cs),
(468,530,o),
(440,567,o),
(431,575,cs),
(403,600,o),
(379,630,o),
(352,656,cs),
(348,660,o),
(330,670,o),
(325,672,cs),
(290,686,o),
(248,682,o),
(211,676,cs),
(210,676,o),
(209,677,o),
(209,677,c),
(208,676,o),
(201,672,o),
(199,671,cs),
(198,670,o),
(201,669,o),
(203,669,cs),
(217,671,o),
(233,672,o),
(247,668,cs),
(257,665,o),
(300,637,o),
(309,633,c),
(315,629,o),
(322,627,o),
(327,624,cs),
(342,614,o),
(357,602,o),
(366,587,cs),
(378,567,o),
(383,544,o),
(390,523,cs),
(392,518,o),
(395,494,o),
(396,490,cs),
(397,485,o),
(404,460,o),
(406,455,cs),
(416,425,o),
(426,395,o),
(440,366,cs),
(443,358,o),
(445,350,o),
(446,342,cs),
(451,307,o),
(452,271,o),
(448,237,cs),
(446,219,o),
(440,203,o),
(438,186,cs),
(437,179,o),
(439,171,o),
(437,165,cs),
(430,138,o),
(414,113,o),
(394,93,cs),
(389,88,o),
(384,82,o),
(378,80,c),
(374,85,o),
(353,111,o),
(350,116,cs),
(340,131,o),
(307,187,o),
(305,204,c),
(304,204,o),
(296,199,o),
(295,199,c),
(306,173,o),
(320,148,o),
(333,123,cs),
(342,107,o),
(348,89,o),
(355,73,c),
(319,64,o),
(280,64,o),
(244,74,cs),
(204,84,o),
(166,110,o),
(141,144,cs),
(113,183,o),
(91,230,o),
(82,278,cs),
(71,340,o),
(80,406,o),
(102,465,cs),
(113,495,o),
(126,524,o),
(141,552,cs),
(156,579,o),
(181,600,o),
(206,617,c),
(218,609,o),
(233,627,o),
(224,637,cs),
(222,640,o),
(217,641,o),
(213,640,c),
(203,641,o),
(196,632,o),
(202,624,cs),
(203,622,o),
(206,619,o),
(205,618,cs),
(200,614,o),
(195,611,o),
(191,608,cs),
(161,589,o),
(133,565,o),
(111,537,c),
(117,550,o),
(148,624,o),
(156,637,cs),
(157,639,o),
(167,641,o),
(168,643,c),
(172,647,o),
(173,653,o),
(170,658,cs),
(166,664,o),
(155,664,o),
(150,657,c),
(144,653,o),
(143,643,o),
(150,639,c),
(125,601,o),
(115,555,o),
(94,516,cs),
(90,510,o),
(89,502,o),
(83,497,c),
(84,497,o),
(85,498,o),
(86,499,c),
(75,479,o),
(66,458,o),
(60,437,cs),
(56,421,o),
(53,404,o),
(50,388,cs),
(42,343,o),
(38,298,o),
(39,253,cs),
(40,206,o),
(52,156,o),
(79,117,cs),
(88,103,o),
(100,89,o),
(112,77,cs),
(124,64,o),
(137,52,o),
(153,45,cs),
(178,35,o),
(206,30,o),
(233,30,cs),
(276,31,o),
(321,44,o),
(358,65,c),
(365,49,o),
(364,31,o),
(370,15,cs),
(375,1,o),
(382,-13,o),
(391,-25,cs),
(414,-51,ls),
(434,-75,o),
(452,-103,o),
(478,-120,cs),
(482,-123,o),
(486,-124,o),
(490,-126,cs),
(499,-131,o),
(532,-153,o),
(538,-160,cs),
(554,-177,o),
(569,-195,o),
(583,-213,c),
(584,-215,o),
(582,-217,o),
(581,-219,c),
(581,-221,o),
(581,-223,o),
(582,-225,c),
(579,-234,o),
(589,-241,o),
(597,-238,cs)
);
}
);
width = 547;
}
);
note = Q;
unicode = 81;
},
{
glyphname = R;
layers = (
{
hints = (
{
horizontal = 1;
place = (681,26);
type = Stem;
},
{
horizontal = 1;
place = (5,20);
type = Stem;
},
{
place = (564,20);
type = Stem;
},
{
place = (558,26);
type = Stem;
},
{
place = (385,70);
type = Stem;
},
{
place = (163,84);
type = Stem;
},
{
place = (127,28);
type = Stem;
},
{
place = (102,10.5);
type = Stem;
},
{
place = (102,8);
type = Stem;
}
);
layerId = m01;
shapes = (
{
closed = 1;
nodes = (
(510,2,o),
(500,15,o),
(489,27,cs),
(474,42,o),
(458,57,o),
(442,71,c),
(469,58,o),
(497,46,o),
(526,37,cs),
(531,36,o),
(554,24,o),
(558,21,c),
(558,11,o),
(565,7,o),
(574,8,cs),
(594,9,o),
(582,37,o),
(564,28,c),
(555,34,o),
(545,39,o),
(536,47,cs),
(523,59,o),
(451,97,o),
(435,106,cs),
(413,118,o),
(391,132,o),
(374,150,cs),
(358,168,o),
(340,185,o),
(326,204,cs),
(324,206,o),
(317,214,o),
(316,216,cs),
(309,234,o),
(295,247,o),
(284,262,cs),
(271,279,o),
(259,297,o),
(252,317,cs),
(245,340,o),
(244,369,o),
(258,389,c),
(303,411,o),
(347,436,o),
(390,463,cs),
(416,480,o),
(445,503,o),
(452,534,cs),
(456,554,o),
(456,577,o),
(451,597,cs),
(449,609,o),
(443,622,o),
(434,630,cs),
(403,660,o),
(364,682,o),
(325,698,cs),
(291,712,o),
(252,707,o),
(216,702,cs),
(180,697,o),
(145,689,o),
(111,678,c),
(110,686,o),
(110,693,o),
(110,701,c),
(107,699,o),
(100,698,o),
(101,694,cs),
(102,688,o),
(102,681,o),
(102,675,c),
(82,668,o),
(62,660,o),
(41,656,c),
(40,655,o),
(30,650,o),
(31,650,cs),
(55,656,o),
(79,665,o),
(102,672,c),
(105,624,o),
(95,576,o),
(86,529,c),
(86,527,o),
(81,510,o),
(81,508,cs),
(76,477,o),
(65,349,o),
(71,319,c),
(71,317,o),
(75,304,o),
(75,302,cs),
(82,263,o),
(81,223,o),
(85,183,cs),
(85,177,o),
(93,144,o),
(93,138,cs),
(94,123,o),
(114,74,o),
(122,61,cs),
(129,51,o),
(133,39,o),
(136,27,c),
(131,24,o),
(129,18,o),
(127,12,cs),
(125,6,o),
(132,-3,o),
(140,-3,cs),
(155,-5,o),
(162,18,o),
(147,25,c),
(145,30,o),
(138,57,o),
(137,62,c),
(142,57,o),
(147,53,o),
(152,49,cs),
(161,42,o),
(168,33,o),
(175,25,c),
(164,9,o),
(192,-5,o),
(194,14,cs),
(195,21,o),
(192,27,o),
(186,29,c),
(180,38,o),
(174,47,o),
(169,57,cs),
(164,68,o),
(149,115,o),
(148,127,cs),
(147,132,o),
(148,167,o),
(148,172,cs),
(144,226,o),
(135,279,o),
(141,333,cs),
(142,345,o),
(146,357,o),
(146,370,cs),
(146,381,o),
(142,440,o),
(140,451,cs),
(139,459,o),
(131,501,o),
(129,508,cs),
(124,529,o),
(128,551,o),
(126,572,cs),
(124,593,o),
(116,614,o),
(114,635,cs),
(113,640,o),
(112,669,o),
(111,674,c),
(125,677,o),
(138,681,o),
(152,681,cs),
(183,682,o),
(216,684,o),
(246,674,cs),
(263,668,o),
(279,659,o),
(295,650,cs),
(318,638,o),
(341,623,o),
(360,604,cs),
(382,583,o),
(388,547,o),
(385,517,cs),
(382,494,o),
(371,473,o),
(356,456,cs),
(352,452,o),
(337,435,o),
(331,433,c),
(284,410,ls),
(270,402,o),
(196,361,o),
(183,351,cs),
(153,329,o),
(161,281,o),
(180,249,cs),
(192,231,o),
(205,213,o),
(220,197,cs),
(228,188,o),
(239,180,o),
(249,175,cs),
(256,172,o),
(293,149,o),
(300,144,cs),
(309,139,o),
(354,115,o),
(364,111,cs),
(420,87,o),
(455,29,o),
(504,-8,c),
(498,-16,o),
(504,-26,o),
(514,-26,cs),
(522,-25,o),
(528,-13,o),
(522,-8,cs)
);
}
);
width = 586;
}
);
note = R;
unicode = 82;
},
{
glyphname = S;
layers = (
{
hints = (
{
horizontal = 1;
place = (534,28);
type = Stem;
},
{
horizontal = 1;
place = (534,25);
type = Stem;
},
{
horizontal = 1;
place = (-24,20);
type = Stem;
},
{
place = (395,26);
type = Stem;
},
{
place = (342,24);
type = Stem;
},
{
place = (339,80);
type = Stem;
},
{
place = (56,62);
type = Stem;
},
{
place = (45,16);
type = Stem;
}
);
layerId = m01;
shapes = (
{
closed = 1;
nodes = (
(281,-3,o),
(309,15,o),
(337,32,cs),
(355,43,o),
(371,55,o),
(385,70,cs),
(402,89,o),
(410,115,o),
(418,139,cs),
(420,147,o),
(422,174,o),
(420,182,cs),
(415,207,o),
(406,231,o),
(392,253,cs),
(359,303,o),
(315,346,o),
(270,386,cs),
(216,434,ls),
(208,440,o),
(177,479,o),
(171,487,cs),
(158,503,o),
(148,522,o),
(137,540,cs),
(128,555,o),
(122,572,o),
(118,590,cs),
(116,605,o),
(113,622,o),
(119,637,cs),
(124,651,o),
(134,663,o),
(144,673,cs),
(146,675,o),
(152,681,o),
(155,682,cs),
(171,687,o),
(189,691,o),
(206,688,c),
(210,688,o),
(231,682,o),
(235,681,cs),
(245,677,o),
(289,654,o),
(298,648,cs),
(303,644,o),
(319,630,o),
(322,625,cs),
(332,609,o),
(333,589,o),
(337,571,cs),
(340,557,o),
(346,543,o),
(350,529,c),
(336,522,o),
(343,499,o),
(357,506,cs),
(366,510,o),
(370,520,o),
(363,527,cs),
(358,532,o),
(357,550,o),
(357,557,cs),
(357,578,o),
(363,598,o),
(362,619,c),
(375,606,o),
(384,589,o),
(394,574,cs),
(397,569,o),
(398,564,o),
(400,559,c),
(387,547,o),
(403,525,o),
(416,538,cs),
(425,547,o),
(422,561,o),
(409,562,c),
(404,579,o),
(400,596,o),
(391,612,cs),
(387,619,o),
(366,654,o),
(364,661,cs),
(362,667,o),
(353,693,o),
(350,698,cs),
(338,719,o),
(310,733,o),
(286,732,cs),
(255,732,o),
(224,723,o),
(197,710,cs),
(186,705,o),
(132,673,o),
(122,667,cs),
(100,653,o),
(79,634,o),
(66,610,cs),
(57,594,o),
(56,573,o),
(56,554,cs),
(56,530,o),
(58,505,o),
(66,482,c),
(70,474,o),
(88,437,o),
(92,430,cs),
(105,411,o),
(121,393,o),
(134,374,cs),
(145,357,o),
(219,290,o),
(233,276,cs),
(265,244,o),
(299,213,o),
(320,173,cs),
(324,166,o),
(337,128,o),
(339,120,cs),
(342,108,o),
(342,72,o),
(338,61,cs),
(330,41,o),
(316,19,o),
(295,12,cs),
(271,3,o),
(246,-3,o),
(220,-4,cs),
(200,-4,o),
(180,-3,o),
(161,3,cs),
(145,9,o),
(129,17,o),
(115,28,cs),
(83,53,o),
(65,97,o),
(61,138,cs),
(57,168,o),
(60,200,o),
(70,229,c),
(70,231,o),
(60,225,o),
(60,223,c),
(53,200,ls),
(37,144,o),
(44,75,o),
(78,28,cs),
(111,-18,o),
(198,-36,o),
(250,-15,cs)
);
}
);
width = 460;
}
);
note = S;
unicode = 83;
},
{
glyphname = T;
layers = (
{
hints = (
{
horizontal = 1;
place = (683,24);
type = Stem;
},
{
horizontal = 1;
place = (646,48);
type = Stem;
},
{
horizontal = 1;
place = (641,25);
type = Stem;
},
{
horizontal = 1;
place = (-8,25);
type = Stem;
},
{
horizontal = 1;
place = (-14,29);
type = Stem;
},
{
place = (515,23);
type = Stem;
},
{
place = (271,29);
type = Stem;
},
{
place = (234,24);
type = Stem;
},
{
place = (213,74);
type = Stem;
}
);
layerId = m01;
shapes = (
{
closed = 1;
nodes = (
(234,-5,o),
(233,5,o),
(228,9,cs),
(224,12,o),
(230,18,o),
(232,23,c),
(241,38,o),
(247,56,o),
(254,73,c),
(256,68,o),
(266,35,o),
(268,29,cs),
(269,26,o),
(273,25,o),
(276,23,c),
(279,17,l),
(270,15,o),
(268,4,o),
(275,-2,c),
(276,-2,o),
(277,-3,o),
(277,-4,c),
(285,-11,o),
(298,-9,o),
(300,1,cs),
(301,9,o),
(298,18,o),
(291,20,cs),
(285,21,o),
(291,36,o),
(289,42,cs),
(287,50,o),
(283,57,o),
(281,66,cs),
(277,79,o),
(275,93,o),
(270,107,c),
(281,136,o),
(278,170,o),
(284,201,cs),
(295,260,o),
(284,321,o),
(287,381,cs),
(291,441,o),
(294,505,o),
(275,562,cs),
(272,570,o),
(268,578,o),
(265,587,cs),
(258,605,o),
(258,626,o),
(258,646,c),
(314,645,o),
(372,647,o),
(425,665,cs),
(440,670,o),
(499,653,o),
(515,651,c),
(515,643,o),
(523,638,o),
(530,641,cs),
(537,644,o),
(542,652,o),
(538,659,cs),
(535,667,o),
(524,668,o),
(519,661,c),
(496,669,o),
(471,673,o),
(446,672,c),
(468,678,o),
(489,683,o),
(511,686,cs),
(512,686,o),
(514,689,o),
(515,688,cs),
(520,682,o),
(529,681,o),
(534,687,cs),
(538,693,o),
(537,701,o),
(530,704,c),
(523,711,o),
(513,707,o),
(512,697,c),
(505,696,o),
(465,690,o),
(458,690,cs),
(452,690,o),
(416,694,o),
(410,694,cs),
(358,692,o),
(305,688,o),
(253,693,cs),
(252,693,o),
(252,695,o),
(252,695,c),
(253,697,o),
(253,700,o),
(254,702,c),
(252,700,o),
(245,694,o),
(242,694,cs),
(229,695,o),
(159,695,o),
(146,694,cs),
(138,693,o),
(98,688,o),
(91,686,cs),
(79,683,o),
(26,671,o),
(14,672,cs),
(13,672,o),
(11,674,o),
(10,673,c),
(5,671,o),
(-3,666,o),
(3,666,cs),
(12,665,o),
(23,668,o),
(30,663,cs),
(35,659,o),
(57,656,o),
(63,655,cs),
(66,654,o),
(70,652,o),
(74,651,cs),
(126,643,o),
(181,646,o),
(234,646,c),
(232,636,o),
(230,625,o),
(231,614,cs),
(232,596,o),
(233,577,o),
(229,559,cs),
(220,518,o),
(213,475,o),
(213,433,cs),
(215,306,ls),
(214,263,o),
(213,221,o),
(215,178,cs),
(215,176,o),
(217,163,o),
(217,160,cs),
(217,146,o),
(213,85,o),
(218,71,cs),
(219,67,o),
(222,65,o),
(223,61,cs),
(227,46,o),
(218,31,o),
(217,15,c),
(209,14,o),
(204,2,o),
(207,-6,cs),
(211,-15,o),
(223,-16,o),
(230,-9,cs)
);
}
);
width = 543;
}
);
note = T;
unicode = 84;
},
{
glyphname = U;
layers = (
{
hints = (
{
horizontal = 1;
place = (725,12);
type = Stem;
},
{
horizontal = 1;
place = (11,30);
type = Stem;
},
{
place = (432,27);
type = Stem;
},
{
place = (392,10);
type = Stem;
},
{
place = (375,27);
type = Stem;
},
{
place = (53,45);
type = Stem;
}
);
layerId = m01;
shapes = (
{
closed = 1;
nodes = (
(299,24,o),
(343,50,o),
(351,55,cs),
(362,62,o),
(372,72,o),
(381,82,cs),
(420,127,o),
(441,187,o),
(455,245,cs),
(468,299,o),
(469,355,o),
(467,411,cs),
(466,446,o),
(460,482,o),
(452,516,cs),
(450,524,o),
(443,569,o),
(441,577,cs),
(438,593,o),
(444,611,o),
(449,627,cs),
(455,650,o),
(449,675,o),
(451,698,cs),
(451,700,o),
(454,701,o),
(455,703,cs),
(465,717,o),
(453,735,o),
(439,726,cs),
(429,719,o),
(430,702,o),
(441,697,c),
(439,692,o),
(439,687,o),
(437,682,cs),
(433,667,o),
(427,654,o),
(423,640,c),
(414,662,o),
(403,684,o),
(397,708,c),
(403,712,o),
(403,721,o),
(397,725,c),
(398,736,o),
(385,742,o),
(378,733,cs),
(375,729,o),
(375,723,o),
(375,717,cs),
(374,711,o),
(380,706,o),
(386,706,c),
(387,696,o),
(392,643,o),
(392,633,cs),
(392,624,o),
(394,583,o),
(395,575,cs),
(400,543,o),
(411,513,o),
(413,481,cs),
(417,427,o),
(389,203,o),
(374,150,cs),
(363,111,o),
(345,71,o),
(317,41,c),
(288,35,o),
(256,41,o),
(230,54,cs),
(203,67,o),
(182,90,o),
(166,115,cs),
(138,160,o),
(121,212,o),
(114,264,cs),
(104,341,o),
(101,419,o),
(98,498,cs),
(96,562,o),
(98,627,o),
(103,691,cs),
(103,694,o),
(103,699,o),
(101,698,cs),
(100,697,o),
(92,693,o),
(91,692,c),
(93,690,o),
(92,688,o),
(91,686,c),
(87,656,o),
(75,626,o),
(69,596,cs),
(68,593,o),
(65,574,o),
(64,570,cs),
(61,552,o),
(53,454,o),
(53,435,cs),
(51,356,o),
(52,276,o),
(70,199,cs),
(80,160,o),
(96,122,o),
(116,88,cs),
(127,70,o),
(141,54,o),
(157,41,cs),
(177,23,o),
(205,14,o),
(232,11,cs),
(251,9,o),
(273,11,o),
(290,20,cs)
);
}
);
width = 517;
}
);
note = U;
unicode = (85,217,218,219,220);
},
{
glyphname = V;
kernRight = V;
layers = (
{
hints = (
{
horizontal = 1;
place = (687,27);
type = Stem;
},
{
horizontal = 1;
place = (673,26);
type = Stem;
},
{
horizontal = 1;
place = (669,30);
type = Stem;
},
{
place = (459,25);
type = Stem;
},
{
place = (414.5,13.5);
type = Stem;
},
{
place = (37,12);
type = Stem;
}
);
layerId = m01;
shapes = (
{
closed = 1;
nodes = (
(233,36,o),
(269,56,o),
(275,60,cs),
(288,67,o),
(295,83,o),
(301,96,cs),
(306,109,o),
(324,177,o),
(327,191,cs),
(341,247,o),
(365,300,o),
(382,355,cs),
(389,378,o),
(390,403,o),
(395,427,cs),
(404,470,o),
(417,512,o),
(425,555,cs),
(426,558,o),
(427,569,o),
(428,571,cs),
(435,583,o),
(444,593,o),
(449,606,cs),
(456,627,o),
(461,649,o),
(469,669,c),
(480,668,o),
(485,679,o),
(484,689,cs),
(483,702,o),
(463,703,o),
(459,691,c),
(458,685,o),
(458,677,o),
(462,673,c),
(455,655,o),
(443,638,o),
(431,622,c),
(431,630,o),
(425,679,o),
(425,687,c),
(432,692,o),
(434,705,o),
(429,710,cs),
(421,718,o),
(408,715,o),
(407,705,cs),
(406,701,o),
(406,696,o),
(408,692,c),
(410,690,o),
(416,688,o),
(415,686,c),
(415,678,o),
(414,671,o),
(414,663,cs),
(413,655,o),
(405,619,o),
(402,612,cs),
(393,590,o),
(388,567,o),
(384,543,cs),
(380,523,o),
(349,417,o),
(342,397,cs),
(330,362,o),
(311,329,o),
(300,294,cs),
(284,244,o),
(270,194,o),
(260,142,cs),
(254,117,o),
(253,92,o),
(247,67,c),
(228,91,o),
(192,211,o),
(182,240,cs),
(172,269,o),
(128,457,o),
(118,486,cs),
(116,492,o),
(103,524,o),
(100,530,cs),
(78,572,o),
(60,617,o),
(51,664,cs),
(49,672,o),
(44,698,o),
(47,706,c),
(44,704,o),
(37,702,o),
(37,699,c),
(33,686,o),
(43,633,o),
(45,620,cs),
(50,593,o),
(55,567,o),
(57,540,cs),
(57,529,o),
(60,464,o),
(62,453,cs),
(68,403,o),
(77,353,o),
(86,304,cs),
(95,253,o),
(105,201,o),
(119,151,cs),
(130,110,o),
(153,33,o),
(194,27,cs),
(205,26,o),
(217,27,o),
(227,32,cs)
);
}
);
width = 497;
}
);
note = V;
unicode = 86;
},
{
glyphname = W;
kernRight = W;
layers = (
{
hints = (
{
horizontal = 1;
place = (687,27);
type = Stem;
},
{
horizontal = 1;
place = (19,19);
type = Stem;
},
{
place = (715,25);
type = Stem;
},
{
place = (678,18);
type = Stem;
},
{
place = (357,87);
type = Stem;
},
{
place = (38,10);
type = Stem;
}
);
layerId = m01;
shapes = (
{
closed = 1;
nodes = (
(218,14,o),
(248,31,o),
(254,36,cs),
(293,72,o),
(319,232,o),
(328,283,cs),
(333,310,o),
(353,466,o),
(357,492,c),
(357,420,o),
(359,348,o),
(367,276,cs),
(368,263,o),
(380,195,o),
(383,182,cs),
(394,142,o),
(401,100,o),
(417,62,c),
(417,60,o),
(422,55,o),
(423,54,c),
(439,28,o),
(470,10,o),
(497,24,c),
(501,27,o),
(526,41,o),
(531,44,cs),
(543,52,o),
(553,65,o),
(561,78,cs),
(604,145,o),
(616,227,o),
(638,303,cs),
(642,316,o),
(667,396,o),
(670,410,cs),
(671,415,o),
(678,445,o),
(680,451,cs),
(688,471,o),
(692,492,o),
(697,513,cs),
(708,570,o),
(711,629,o),
(727,685,c),
(740,686,o),
(745,704,o),
(735,711,cs),
(720,722,o),
(707,700,o),
(720,687,c),
(719,683,o),
(710,659,o),
(708,654,cs),
(705,645,o),
(690,586,o),
(687,576,c),
(687,591,o),
(686,678,o),
(687,693,c),
(698,696,o),
(699,711,o),
(689,717,cs),
(683,721,o),
(673,719,o),
(670,713,cs),
(667,706,o),
(671,696,o),
(678,694,c),
(672,667,o),
(654,502,o),
(649,474,cs),
(648,467,o),
(637,423,o),
(635,416,cs),
(615,324,o),
(593,233,o),
(561,145,cs),
(557,133,o),
(532,68,o),
(526,57,cs),
(523,50,o),
(519,44,o),
(514,38,c),
(507,38,o),
(500,40,o),
(496,45,cs),
(489,52,o),
(477,77,o),
(477,87,c),
(475,101,o),
(471,115,o),
(469,130,cs),
(463,168,o),
(445,380,o),
(444,419,cs),
(443,444,o),
(433,565,o),
(427,589,cs),
(426,595,o),
(420,620,o),
(417,625,cs),
(411,634,o),
(404,641,o),
(396,647,cs),
(392,650,o),
(384,654,o),
(380,652,cs),
(374,648,o),
(350,635,o),
(345,629,cs),
(341,624,o),
(332,595,o),
(330,589,cs),
(314,540,o),
(283,295,o),
(277,244,cs),
(272,191,o),
(263,139,o),
(252,87,cs),
(249,70,o),
(243,54,o),
(235,39,c),
(235,37,o),
(234,39,o),
(232,41,cs),
(229,44,o),
(220,60,o),
(218,64,cs),
(215,72,o),
(201,117,o),
(198,125,c),
(184,179,o),
(168,233,o),
(156,287,cs),
(144,345,o),
(137,403,o),
(123,460,cs),
(122,465,o),
(114,491,o),
(112,495,c),
(107,516,o),
(103,537,o),
(95,558,cs),
(88,575,o),
(53,668,o),
(49,686,cs),
(48,689,o),
(47,693,o),
(48,697,cs),
(48,698,o),
(38,692,o),
(38,691,cs),
(39,672,o),
(44,654,o),
(46,636,cs),
(55,575,o),
(57,512,o),
(60,450,cs),
(61,413,o),
(69,376,o),
(75,340,cs),
(79,320,o),
(104,200,o),
(109,180,cs),
(117,139,o),
(125,98,o),
(140,59,cs),
(145,45,o),
(167,13,o),
(181,8,cs),
(187,5,o),
(205,7,o),
(211,11,c)
);
}
);
width = 759;
}
);
note = W;
unicode = 87;
},
{
glyphname = X;
layers = (
{
hints = (
{
horizontal = 1;
place = (3,24);
type = Stem;
},
{
place = (440,7);
type = Stem;
},
{
place = (402,25);
type = Stem;
},
{
place = (86,9);
type = Stem;
},
{
place = (12,23);
type = Stem;
}
);
layerId = m01;
shapes = (
{
closed = 1;
nodes = (
(415,4,o),
(401,42,o),
(401,52,c),
(406,48,o),
(435,23,o),
(439,19,c),
(441,18,o),
(439,15,o),
(440,13,c),
(441,-1,o),
(461,0,o),
(462,14,c),
(463,14,o),
(463,15,o),
(463,16,cs),
(465,25,o),
(455,32,o),
(447,27,c),
(433,41,o),
(416,52,o),
(402,65,c),
(405,84,o),
(401,104,o),
(395,122,c),
(395,124,o),
(392,134,o),
(392,136,c),
(367,193,l),
(357,223,o),
(345,252,o),
(330,280,cs),
(324,290,o),
(288,351,o),
(282,361,c),
(325,434,ls),
(336,454,o),
(400,573,o),
(410,593,cs),
(420,613,o),
(454,675,o),
(452,696,c),
(436,688,l),
(431,684,o),
(414,662,o),
(410,657,cs),
(383,627,o),
(355,598,o),
(333,565,cs),
(303,519,o),
(276,471,o),
(250,423,c),
(242,438,o),
(201,513,o),
(191,526,cs),
(184,535,o),
(146,583,o),
(138,591,cs),
(119,611,o),
(106,635,o),
(94,659,c),
(91,663,o),
(83,685,o),
(80,689,c),
(78,688,o),
(71,684,o),
(70,683,c),
(70,682,o),
(71,682,o),
(72,681,c),
(82,646,o),
(102,615,o),
(109,580,cs),
(112,565,o),
(125,495,o),
(132,481,cs),
(155,433,o),
(177,384,o),
(202,337,c),
(172,282,ls),
(143,232,o),
(111,184,o),
(85,133,cs),
(83,130,o),
(79,115,o),
(78,112,cs),
(72,98,o),
(63,86,o),
(57,71,c),
(57,70,o),
(60,70,o),
(59,67,c),
(59,64,o),
(50,55,o),
(48,52,cs),
(45,49,o),
(32,29,o),
(30,25,c),
(24,27,o),
(18,25,o),
(15,20,c),
(8,13,o),
(13,2,o),
(24,-1,cs),
(35,-4,o),
(40,10,o),
(35,20,c),
(44,25,o),
(49,35,o),
(54,43,cs),
(65,60,o),
(78,75,o),
(93,88,c),
(92,86,o),
(88,73,o),
(88,71,c),
(83,57,o),
(85,40,o),
(86,25,cs),
(86,23,o),
(81,22,o),
(81,21,c),
(78,17,o),
(75,8,o),
(76,5,cs),
(78,-3,o),
(87,-5,o),
(94,-2,cs),
(104,3,o),
(105,20,o),
(95,24,c),
(95,42,o),
(97,60,o),
(101,77,c),
(103,82,o),
(107,99,o),
(111,102,c),
(128,121,o),
(141,143,o),
(157,163,cs),
(166,174,o),
(176,185,o),
(185,197,cs),
(203,221,o),
(218,248,o),
(234,274,c),
(248,247,o),
(262,220,o),
(279,194,cs),
(283,187,o),
(309,150,o),
(312,143,c),
(320,130,o),
(355,67,o),
(365,56,cs),
(369,51,o),
(375,48,o),
(380,44,cs),
(387,38,o),
(402,3,o),
(406,-6,c),
(398,-11,o),
(401,-22,o),
(409,-27,cs),
(423,-37,o),
(435,-10,o),
(419,-5,c)
);
}
);
width = 482;
}
);
note = X;
unicode = 88;
},
{
glyphname = Y;
layers = (
{
hints = (
{
horizontal = 1;
place = (372,8);
type = Stem;
},
{
horizontal = 1;
place = (354,26);
type = Stem;
},
{
horizontal = 1;
place = (-5,30);
type = Stem;
},
{
horizontal = 1;
place = (-5,26);
type = Stem;
},
{
place = (194,26);
type = Stem;
},
{
place = (143,12);
type = Stem;
}
);
layerId = m01;
shapes = (
{
closed = 1;
nodes = (
(212,321,o),
(211,325,o),
(211,327,c),
(207,341,o),
(205,356,o),
(204,372,c),
(215,366,l),
(214,351,o),
(234,349,o),
(238,364,c),
(247,376,o),
(230,387,o),
(220,375,c),
(216,377,o),
(204,381,o),
(203,386,cs),
(201,404,o),
(190,420,o),
(185,438,cs),
(183,447,o),
(183,456,o),
(181,465,cs),
(174,488,o),
(164,511,o),
(155,534,cs),
(145,560,o),
(129,584,o),
(116,609,cs),
(104,633,o),
(84,652,o),
(67,673,cs),
(60,681,o),
(50,686,o),
(41,692,cs),
(39,693,o),
(30,700,o),
(28,700,c),
(24,702,o),
(20,698,o),
(16,696,c),
(15,695,o),
(18,690,o),
(19,687,cs),
(22,676,o),
(20,664,o),
(21,653,cs),
(21,650,o),
(25,631,o),
(26,628,cs),
(30,607,o),
(35,586,o),
(47,569,cs),
(60,549,o),
(70,527,o),
(84,507,cs),
(104,480,o),
(124,452,o),
(149,428,cs),
(157,420,o),
(183,375,o),
(189,365,cs),
(192,360,o),
(199,331,o),
(201,325,c),
(189,319,o),
(193,301,o),
(206,298,cs),
(220,294,o),
(226,315,o),
(214,321,c)
);
},
{
closed = 1;
nodes = (
(77,23,o),
(87,12,o),
(100,15,cs),
(109,18,o),
(111,28,o),
(106,35,c),
(111,42,o),
(145,80,o),
(151,87,c),
(147,77,o),
(143,66,o),
(143,55,c),
(142,49,o),
(145,26,o),
(146,21,c),
(130,4,o),
(157,-17,o),
(167,4,cs),
(171,13,o),
(165,24,o),
(155,25,c),
(154,33,o),
(154,40,o),
(155,48,cs),
(160,69,o),
(166,89,o),
(175,109,cs),
(177,114,o),
(193,142,o),
(195,147,cs),
(199,157,o),
(232,204,o),
(238,213,c),
(252,242,ls),
(283,311,o),
(313,381,o),
(347,448,cs),
(361,475,o),
(374,502,o),
(385,529,cs),
(407,582,o),
(430,634,o),
(454,686,cs),
(456,691,o),
(458,695,o),
(461,699,c),
(455,696,o),
(449,691,o),
(445,685,cs),
(437,676,o),
(395,617,o),
(388,607,cs),
(365,575,o),
(345,541,o),
(324,507,cs),
(314,490,o),
(265,388,o),
(256,371,cs),
(223,306,o),
(191,240,o),
(162,172,cs),
(158,163,o),
(159,152,o),
(156,143,cs),
(152,129,o),
(108,60,o),
(103,47,c),
(103,45,o),
(102,40,o),
(101,41,cs),
(95,45,o),
(85,41,o),
(82,35,cs)
);
}
);
width = 468;
}
);
note = Y;
unicode = (89,221,376);
},
{
glyphname = Z;
layers = (
{
hints = (
{
horizontal = 1;
place = (648,38);
type = Stem;
},
{
horizontal = 1;
place = (62,29);
type = Stem;
},
{
horizontal = 1;
place = (34,20);
type = Stem;
},
{
horizontal = 1;
place = (10,22);
type = Stem;
},
{
place = (406,27);
type = Stem;
},
{
place = (406,7);
type = Stem;
},
{
place = (359,57);
type = Stem;
}
);
layerId = m01;
shapes = (
{
closed = 1;
nodes = (
(455,29,o),
(448,43,o),
(436,40,c),
(429,40,o),
(426,38,o),
(423,32,c),
(394,34,o),
(366,41,o),
(337,44,c),
(363,51,o),
(388,59,o),
(413,68,c),
(419,59,o),
(432,61,o),
(433,71,cs),
(433,75,o),
(434,79,o),
(433,83,c),
(424,101,o),
(395,85,o),
(410,70,c),
(394,66,o),
(315,55,o),
(299,54,cs),
(281,54,o),
(170,50,o),
(152,49,cs),
(143,49,o),
(105,47,o),
(97,50,cs),
(93,52,o),
(87,57,o),
(86,60,cs),
(84,71,o),
(94,102,o),
(98,112,cs),
(110,141,o),
(128,168,o),
(145,195,cs),
(218,306,o),
(295,415,o),
(365,528,cs),
(383,557,o),
(399,588,o),
(412,619,cs),
(415,625,o),
(415,632,o),
(416,638,cs),
(416,642,o),
(410,651,o),
(407,655,cs),
(406,657,o),
(401,666,o),
(398,667,c),
(382,676,l),
(379,677,o),
(364,681,o),
(361,681,cs),
(352,682,o),
(301,686,o),
(292,686,cs),
(266,687,o),
(118,683,o),
(91,682,c),
(88,681,o),
(85,680,o),
(82,678,c),
(79,677,o),
(75,675,o),
(78,675,c),
(78,675,o),
(76,674,o),
(77,673,c),
(77,672,o),
(80,671,o),
(81,671,c),
(97,665,o),
(176,652,o),
(194,651,cs),
(215,650,o),
(321,653,o),
(341,648,c),
(344,648,o),
(352,646,o),
(354,643,cs),
(356,640,ls),
(361,633,o),
(358,616,o),
(355,609,cs),
(341,574,o),
(246,424,o),
(225,394,cs),
(170,311,o),
(112,230,o),
(60,146,cs),
(40,114,o),
(21,80,o),
(15,43,c),
(14,40,o),
(13,31,o),
(15,28,c),
(16,24,o),
(25,16,o),
(28,14,cs),
(32,12,o),
(38,12,o),
(43,12,cs),
(118,9,o),
(194,21,o),
(269,30,cs),
(273,31,o),
(292,35,o),
(296,34,c),
(317,33,o),
(339,30,o),
(360,28,cs),
(381,26,o),
(403,20,o),
(423,25,c),
(425,26,o),
(425,23,o),
(426,22,cs),
(428,20,o),
(428,18,o),
(429,16,cs),
(433,7,o),
(445,8,o),
(450,17,cs)
);
}
);
width = 468;
}
);
note = Z;
unicode = 90;
},
{
glyphname = underscore;
layers = (
{
hints = (
{
horizontal = 1;
place = (-20,25);
type = Stem;
},
{
horizontal = 1;
place = (-55,28);
type = Stem;
},
{
horizontal = 1;
place = (-67,40);
type = Stem;
},
{
horizontal = 1;
place = (-70,21);
type = Stem;
},
{
horizontal = 1;
place = (-74,47);
type = Stem;
},
{
place = (-650,679);
type = Stem;
}
);
layerId = m01;
shapes = (
{
closed = 1;
nodes = (
(-208,-71,o),
(-211,-72,o),
(-210,-72,cs),
(-203,-70,o),
(-170,-67,o),
(-163,-67,c),
(-139,-64,o),
(-114,-58,o),
(-91,-51,cs),
(-78,-47,o),
(-18,-55,o),
(-4,-55,c),
(-7,-70,o),
(17,-75,o),
(18,-60,cs),
(19,-51,o),
(9,-43,o),
(2,-46,cs),
(0,-47,o),
(-7,-45,o),
(-9,-44,c),
(-43,-36,l),
(-25,-30,o),
(-8,-23,o),
(8,-14,c),
(16,-29,o),
(34,-16,o),
(27,-1,cs),
(22,11,o),
(5,6,o),
(6,-7,c),
(-30,-15,l),
(-72,-20,o),
(-307,-25,o),
(-348,-27,cs),
(-365,-27,o),
(-466,-35,o),
(-483,-37,cs),
(-514,-40,o),
(-545,-49,o),
(-576,-49,cs),
(-602,-49,o),
(-628,-58,o),
(-650,-72,cs),
(-651,-73,o),
(-647,-73,o),
(-646,-73,cs),
(-633,-75,o),
(-621,-74,o),
(-608,-72,cs),
(-594,-70,o),
(-579,-70,o),
(-565,-70,cs),
(-559,-70,o),
(-530,-67,o),
(-524,-66,cs),
(-470,-59,o),
(-415,-71,o),
(-360,-74,cs),
(-310,-75,o),
(-260,-75,o),
(-210,-71,cs)
);
}
);
width = 33;
}
);
note = underscore;
unicode = 95;
},
{
glyphname = a;
layers = (
{
hints = (
{
horizontal = 1;
place = (470,11);
type = Stem;
},
{
horizontal = 1;
place = (19,40);
type = Stem;
},
{
horizontal = 1;
place = (-11,22);
type = Stem;
},
{
place = (369,21);
type = Stem;
},
{
place = (314,25);
type = Stem;
},
{
place = (314,12);
type = Stem;
},
{
place = (299,29);
type = Stem;
},
{
place = (296,32);
type = Stem;
},
{
place = (26,65);
type = Stem;
}
);
layerId = m01;
shapes = (
{
closed = 1;
nodes = (
(327,34,o),
(324,56,o),
(326,78,c),
(335,59,o),
(345,41,o),
(357,25,c),
(361,21,o),
(365,17,o),
(369,12,c),
(364,2,o),
(374,-8,o),
(384,-4,cs),
(394,1,o),
(391,17,o),
(379,18,cs),
(377,18,o),
(375,24,o),
(374,26,cs),
(364,49,o),
(349,70,o),
(339,93,c),
(337,96,o),
(331,108,o),
(331,112,cs),
(331,121,o),
(328,180,o),
(328,189,cs),
(328,228,o),
(330,268,o),
(341,306,cs),
(344,318,o),
(347,371,o),
(346,384,cs),
(346,391,o),
(338,427,o),
(337,434,cs),
(337,436,o),
(337,439,o),
(335,438,cs),
(331,436,o),
(310,424,o),
(306,421,c),
(305,416,l),
(298,407,o),
(290,364,o),
(286,354,cs),
(276,322,o),
(271,288,o),
(266,254,cs),
(264,241,o),
(249,176,o),
(245,164,cs),
(235,126,o),
(219,88,o),
(193,59,c),
(173,57,o),
(152,62,o),
(136,74,cs),
(120,87,o),
(111,107,o),
(104,127,cs),
(100,141,o),
(95,154,o),
(94,169,c),
(85,229,o),
(97,295,o),
(122,351,cs),
(135,380,o),
(152,408,o),
(174,430,cs),
(177,433,o),
(191,446,o),
(195,448,cs),
(204,454,o),
(250,465,o),
(260,468,cs),
(269,470,o),
(279,470,o),
(289,470,cs),
(291,470,o),
(293,472,o),
(295,471,cs),
(299,470,o),
(304,474,o),
(308,476,c),
(309,477,o),
(306,477,o),
(305,477,c),
(304,478,o),
(306,480,o),
(305,481,cs),
(297,486,o),
(273,481,o),
(263,479,cs),
(228,470,o),
(193,453,o),
(164,432,cs),
(124,402,o),
(91,362,o),
(70,317,cs),
(40,256,o),
(25,186,o),
(26,118,cs),
(26,98,o),
(30,79,o),
(39,62,cs),
(45,50,o),
(53,37,o),
(65,31,cs),
(92,16,o),
(130,15,o),
(157,29,cs),
(192,47,o),
(229,67,o),
(255,97,cs),
(275,119,o),
(288,146,o),
(299,173,c),
(299,164,o),
(296,109,o),
(296,99,cs),
(296,96,o),
(297,80,o),
(298,76,c),
(307,59,ls),
(310,53,o),
(320,18,o),
(322,11,c),
(309,8,o),
(312,-11,o),
(325,-11,cs),
(339,-11,o),
(345,7,o),
(333,13,c)
);
}
);
width = 410;
}
);
note = a;
unicode = (97,224,225,226,227,228,229);
},
{
glyphname = b;
kernLeft = b;
layers = (
{
hints = (
{
horizontal = 1;
place = (474,23);
type = Stem;
},
{
horizontal = 1;
place = (343,21);
type = Stem;
},
{
horizontal = 1;
place = (343,18);
type = Stem;
},
{
horizontal = 1;
place = (341,21);
type = Stem;
},
{
place = (389,55);
type = Stem;
},
{
place = (166,23);
type = Stem;
},
{
place = (81,10);
type = Stem;
},
{
place = (53,57);
type = Stem;
}
);
layerId = m01;
shapes = (
{
closed = 1;
nodes = (
(220,-3,o),
(245,15,o),
(270,29,cs),
(293,43,o),
(314,59,o),
(332,78,cs),
(375,122,o),
(406,178,o),
(425,235,cs),
(434,263,o),
(442,291,o),
(444,320,cs),
(448,358,o),
(448,397,o),
(437,434,cs),
(432,448,o),
(423,461,o),
(412,472,cs),
(402,481,o),
(356,492,o),
(342,494,cs),
(319,498,o),
(295,500,o),
(274,492,cs),
(261,487,o),
(218,462,o),
(208,452,cs),
(185,425,o),
(171,392,o),
(150,364,c),
(141,371,o),
(130,362,o),
(133,351,cs),
(138,335,o),
(159,346,o),
(152,361,c),
(156,365,o),
(175,389,o),
(178,393,cs),
(187,406,o),
(196,420,o),
(206,434,c),
(202,425,o),
(184,371,o),
(180,362,c),
(162,365,o),
(161,340,o),
(180,341,cs),
(189,342,o),
(192,353,o),
(186,359,c),
(191,370,o),
(212,434,o),
(218,445,cs),
(222,451,o),
(232,468,o),
(239,470,cs),
(270,478,o),
(308,473,o),
(334,454,cs),
(348,444,o),
(373,402,o),
(378,386,cs),
(387,351,o),
(393,313,o),
(389,277,cs),
(383,218,o),
(360,159,o),
(328,109,cs),
(308,77,o),
(283,47,o),
(254,23,cs),
(251,21,o),
(241,19,o),
(238,18,cs),
(174,5,o),
(125,63,o),
(113,128,cs),
(104,175,o),
(103,224,o),
(103,272,cs),
(103,292,o),
(110,418,o),
(110,439,cs),
(110,448,o),
(104,495,o),
(103,504,cs),
(95,563,o),
(102,623,o),
(94,681,c),
(92,689,o),
(90,698,o),
(91,706,cs),
(91,707,o),
(81,701,o),
(81,700,cs),
(82,685,o),
(85,671,o),
(85,656,cs),
(85,615,o),
(86,573,o),
(82,531,cs),
(80,516,o),
(64,427,o),
(62,411,cs),
(56,365,o),
(55,318,o),
(53,270,cs),
(51,237,o),
(44,204,o),
(45,170,cs),
(47,133,o),
(50,93,o),
(67,59,cs),
(80,33,o),
(99,7,o),
(126,-4,cs),
(146,-13,o),
(170,-15,o),
(192,-10,cs)
);
}
);
width = 476;
}
);
note = b;
unicode = 98;
},
{
glyphname = c;
layers = (
{
hints = (
{
horizontal = 1;
place = (201,22);
type = Stem;
},
{
horizontal = 1;
place = (201,11);
type = Stem;
},
{
horizontal = 1;
place = (190,22);
type = Stem;
},
{
place = (329,23);
type = Stem;
},
{
place = (303,23);
type = Stem;
},
{
place = (303,11);
type = Stem;
},
{
place = (247,7.5);
type = Stem;
},
{
place = (30,57);
type = Stem;
}
);
layerId = m01;
shapes = (
{
closed = 1;
nodes = (
(237,53,l),
(248,61,o),
(257,71,o),
(266,82,cs),
(280,99,o),
(291,119,o),
(299,140,cs),
(303,149,o),
(332,182,o),
(338,190,c),
(350,189,o),
(357,202,o),
(348,209,cs),
(337,219,o),
(322,203,o),
(333,192,c),
(324,179,o),
(314,167,o),
(305,154,c),
(309,167,o),
(313,181,o),
(314,195,cs),
(314,197,o),
(312,201,o),
(314,201,cs),
(328,202,o),
(330,221,o),
(316,223,cs),
(305,224,o),
(299,211,o),
(307,203,c),
(288,179,o),
(279,148,o),
(265,120,cs),
(251,92,o),
(231,67,o),
(209,46,c),
(198,45,o),
(186,46,o),
(176,49,cs),
(165,53,o),
(156,63,o),
(147,72,cs),
(126,96,o),
(114,129,o),
(101,159,cs),
(90,184,o),
(91,212,o),
(87,238,cs),
(85,255,o),
(87,272,o),
(87,289,cs),
(86,311,ls),
(85,334,o),
(89,358,o),
(96,379,cs),
(107,412,o),
(127,442,o),
(150,468,cs),
(153,472,o),
(169,488,o),
(173,490,cs),
(191,500,o),
(215,494,o),
(225,477,cs),
(237,459,o),
(244,438,o),
(247,417,c),
(248,418,o),
(255,422,o),
(256,423,c),
(253,437,ls),
(249,459,o),
(233,494,o),
(212,499,cs),
(191,504,o),
(168,490,o),
(153,476,cs),
(108,433,o),
(80,373,o),
(61,315,cs),
(59,310,o),
(48,279,o),
(47,273,c),
(43,261,o),
(32,203,o),
(31,190,cs),
(29,166,o),
(30,142,o),
(29,118,cs),
(28,77,o),
(49,14,o),
(88,1,cs),
(96,-2,o),
(104,-2,o),
(112,-2,cs),
(132,-1,o),
(151,5,o),
(169,14,cs)
);
}
);
width = 366;
}
);
note = c;
unicode = (99,231);
},
{
glyphname = d;
layers = (
{
hints = (
{
horizontal = 1;
place = (438,23);
type = Stem;
},
{
horizontal = 1;
place = (327,18);
type = Stem;
},
{
horizontal = 1;
place = (12,45);
type = Stem;
},
{
place = (370,61);
type = Stem;
},
{
place = (359,52);
type = Stem;
},
{
place = (359,46);
type = Stem;
},
{
place = (308,22);
type = Stem;
},
{
place = (282,20);
type = Stem;
},
{
place = (29,63);
type = Stem;
}
);
layerId = m01;
shapes = (
{
closed = 1;
nodes = (
(308,41,o),
(376,80,o),
(390,95,cs),
(413,120,o),
(421,157,o),
(426,191,cs),
(436,265,o),
(431,343,o),
(416,417,cs),
(401,491,o),
(404,567,o),
(411,642,cs),
(412,651,o),
(419,694,o),
(421,703,c),
(421,705,o),
(423,706,o),
(425,707,cs),
(419,704,o),
(412,702,o),
(410,696,cs),
(407,688,o),
(393,638,o),
(391,630,cs),
(378,588,o),
(368,545,o),
(363,501,cs),
(360,476,o),
(360,450,o),
(359,424,cs),
(357,366,o),
(368,309,o),
(370,251,cs),
(372,212,o),
(373,172,o),
(365,134,cs),
(360,109,o),
(351,84,o),
(334,65,c),
(304,59,o),
(273,56,o),
(243,57,cs),
(218,58,o),
(192,62,o),
(171,73,cs),
(157,81,o),
(122,122,o),
(115,137,cs),
(99,167,o),
(93,203,o),
(92,238,cs),
(92,273,o),
(96,310,o),
(109,342,cs),
(120,371,o),
(137,397,o),
(157,419,cs),
(159,421,o),
(165,428,o),
(167,429,cs),
(180,433,o),
(218,443,o),
(231,438,cs),
(239,435,o),
(246,428,o),
(250,421,cs),
(257,408,o),
(259,393,o),
(262,380,cs),
(264,373,o),
(279,350,o),
(282,345,c),
(274,334,o),
(289,321,o),
(299,330,c),
(304,336,o),
(302,344,o),
(295,347,c),
(294,348,o),
(293,354,o),
(292,355,c),
(285,371,o),
(287,390,o),
(282,407,c),
(308,371,l),
(306,361,o),
(314,353,o),
(323,357,cs),
(331,361,o),
(332,371,o),
(325,376,c),
(322,380,ls),
(303,400,o),
(287,422,o),
(269,443,cs),
(267,446,o),
(266,449,o),
(263,451,cs),
(261,453,o),
(250,459,o),
(247,461,c),
(242,462,o),
(226,458,o),
(221,457,cs),
(190,448,o),
(160,431,o),
(133,413,cs),
(113,400,o),
(98,381,o),
(84,362,cs),
(64,337,o),
(50,307,o),
(42,276,cs),
(34,240,o),
(29,202,o),
(29,165,cs),
(29,151,o),
(29,136,o),
(32,123,cs),
(35,105,o),
(43,88,o),
(51,72,cs),
(59,59,o),
(67,45,o),
(78,35,cs),
(97,18,o),
(125,14,o),
(150,12,cs),
(197,8,o),
(247,14,o),
(290,33,cs)
);
}
);
width = 477;
}
);
note = d;
unicode = 100;
},
{
glyphname = e;
layers = (
{
hints = (
{
horizontal = 1;
place = (463.5,35.5);
type = Stem;
},
{
horizontal = 1;
place = (293,12);
type = Stem;
},
{
horizontal = 1;
place = (60,24);
type = Stem;
},
{
horizontal = 1;
place = (60,12);
type = Stem;
},
{
horizontal = 1;
place = (6,37);
type = Stem;
},
{
place = (376,20);
type = Stem;
},
{
place = (369,22);
type = Stem;
},
{
place = (322,30);
type = Stem;
},
{
place = (30,71);
type = Stem;
},
{
place = (27,74);
type = Stem;
}
);
layerId = m01;
shapes = (
{
closed = 1;
nodes = (
(274,30,o),
(324,55,o),
(335,57,c),
(340,59,o),
(371,65,o),
(376,66,c),
(382,54,o),
(398,61,o),
(396,75,cs),
(395,86,o),
(381,88,o),
(376,79,cs),
(375,77,o),
(376,72,o),
(374,72,cs),
(364,70,o),
(354,67,o),
(344,64,cs),
(336,62,o),
(301,42,o),
(293,41,c),
(300,45,o),
(336,66,o),
(342,70,cs),
(356,81,o),
(368,94,o),
(378,108,c),
(392,105,o),
(397,121,o),
(385,129,cs),
(373,138,o),
(361,119,o),
(374,111,c),
(366,102,o),
(319,60,o),
(310,53,c),
(309,53,l),
(276,41,o),
(202,37,o),
(174,58,cs),
(167,63,o),
(162,69,o),
(156,76,cs),
(134,104,o),
(117,139,o),
(108,174,cs),
(92,236,o),
(103,306,o),
(127,366,cs),
(141,400,o),
(160,434,o),
(187,460,c),
(214,467,o),
(242,471,o),
(269,467,cs),
(277,465,o),
(286,463,o),
(292,459,cs),
(302,452,o),
(320,424,o),
(322,412,cs),
(325,396,o),
(320,379,o),
(314,365,cs),
(304,345,o),
(288,328,o),
(270,315,cs),
(255,303,o),
(235,300,o),
(216,298,cs),
(201,297,o),
(160,295,o),
(148,305,c),
(147,305,o),
(147,309,o),
(146,308,c),
(144,308,o),
(137,303,o),
(136,303,c),
(143,295,o),
(155,293,o),
(166,293,cs),
(196,291,o),
(229,291,o),
(255,305,cs),
(286,321,o),
(315,344,o),
(333,374,cs),
(345,394,o),
(352,418,o),
(352,442,cs),
(351,458,o),
(338,485,o),
(323,491,cs),
(291,505,o),
(250,498,o),
(219,483,cs),
(209,478,o),
(157,448,o),
(148,442,cs),
(116,421,o),
(92,388,o),
(74,354,cs),
(53,315,o),
(37,273,o),
(30,229,cs),
(24,193,o),
(28,155,o),
(38,119,cs),
(48,82,o),
(65,42,o),
(97,20,cs),
(117,6,o),
(145,5,o),
(169,6,cs),
(201,7,o),
(234,13,o),
(264,26,cs)
);
}
);
width = 416;
}
);
note = e;
unicode = (101,232,233,234,235);
},
{
glyphname = f;
kernRight = f;
layers = (
{
hints = (
{
horizontal = 1;
place = (691,12);
type = Stem;
},
{
horizontal = 1;
place = (441,22);
type = Stem;
},
{
horizontal = 1;
place = (423,8.5);
type = Stem;
},
{
horizontal = 1;
place = (417.5,27.5);
type = Stem;
},
{
horizontal = 1;
place = (14,22);
type = Stem;
},
{
horizontal = 1;
place = (12,21);
type = Stem;
},
{
place = (387,10);
type = Stem;
},
{
place = (334,21);
type = Stem;
},
{
place = (157,7);
type = Stem;
},
{
place = (130,34);
type = Stem;
},
{
place = (111,21);
type = Stem;
},
{
place = (105,46);
type = Stem;
}
);
layerId = m01;
shapes = (
{
closed = 1;
nodes = (
(132,27,o),
(135,27,o),
(135,29,cs),
(137,40,o),
(153,101,o),
(157,112,c),
(160,87,o),
(164,61,o),
(170,36,c),
(154,28,o),
(169,5,o),
(182,17,c),
(185,21,o),
(186,27,o),
(183,32,c),
(181,34,o),
(179,48,o),
(178,52,cs),
(172,79,o),
(168,108,o),
(164,136,c),
(168,154,o),
(175,247,o),
(176,265,cs),
(179,304,o),
(173,342,o),
(167,380,c),
(167,386,o),
(158,413,o),
(157,418,c),
(189,420,o),
(220,426,o),
(251,431,c),
(271,429,ls),
(279,428,o),
(328,423,o),
(337,423,c),
(339,412,o),
(352,410,o),
(357,419,cs),
(365,437,o),
(341,447,o),
(337,429,c),
(316,431,o),
(294,431,o),
(273,434,c),
(280,436,o),
(328,445,o),
(336,446,c),
(343,436,o),
(356,442,o),
(355,454,cs),
(354,469,o),
(336,465,o),
(334,451,c),
(311,449,o),
(288,446,o),
(265,444,cs),
(246,443,o),
(226,446,o),
(207,446,cs),
(151,447,l),
(146,472,o),
(143,497,o),
(145,521,cs),
(150,586,o),
(189,679,o),
(253,691,cs),
(287,697,o),
(324,680,o),
(351,658,cs),
(369,642,o),
(382,619,o),
(387,595,c),
(387,593,o),
(397,599,o),
(397,600,cs),
(396,604,o),
(396,608,o),
(395,612,cs),
(385,658,o),
(331,703,o),
(285,703,cs),
(273,704,o),
(261,700,o),
(251,695,cs),
(226,683,o),
(201,670,o),
(182,650,cs),
(162,630,o),
(148,605,o),
(136,579,cs),
(117,537,o),
(105,491,o),
(105,445,c),
(90,443,o),
(75,442,o),
(60,439,cs),
(54,438,o),
(30,431,o),
(23,433,c),
(20,433,o),
(15,429,o),
(12,427,cs),
(11,426,o),
(16,427,o),
(18,426,cs),
(25,421,o),
(59,420,o),
(67,418,cs),
(80,416,o),
(92,416,o),
(105,417,c),
(105,407,o),
(110,345,o),
(111,335,cs),
(113,301,o),
(113,267,o),
(121,233,cs),
(125,213,o),
(129,192,o),
(130,171,cs),
(130,165,o),
(129,132,o),
(130,127,cs),
(131,111,o),
(134,95,o),
(133,80,cs),
(132,64,o),
(129,48,o),
(127,32,cs),
(127,31,o),
(125,33,o),
(124,33,cs),
(113,36,o),
(106,23,o),
(114,16,cs),
(122,8,o),
(135,14,o),
(132,25,c)
);
}
);
width = 417;
}
);
note = f;
unicode = 102;
},
{
glyphname = g;
layers = (
{
hints = (
{
horizontal = 1;
place = (468,11);
type = Stem;
},
{
horizontal = 1;
place = (41,42);
type = Stem;
},
{
horizontal = 1;
place = (-77,21);
type = Stem;
},
{
horizontal = 1;
place = (-114,22);
type = Stem;
},
{
horizontal = 1;
place = (-171,14);
type = Stem;
},
{
horizontal = 1;
place = (-185,28);
type = Stem;
},
{
place = (328,72);
type = Stem;
},
{
place = (61,23);
type = Stem;
},
{
place = (61,13);
type = Stem;
},
{
place = (26,53);
type = Stem;
}
);
layerId = m01;
shapes = (
{
closed = 1;
nodes = (
(261,-167,o),
(316,-135,o),
(327,-126,cs),
(336,-118,o),
(344,-109,o),
(350,-99,cs),
(360,-82,o),
(383,1,o),
(388,19,cs),
(401,70,o),
(403,123,o),
(400,175,cs),
(400,185,o),
(393,240,o),
(393,249,cs),
(392,257,o),
(383,297,o),
(382,305,cs),
(379,317,o),
(373,372,o),
(368,383,cs),
(365,388,o),
(363,419,o),
(361,424,c),
(354,420,o),
(324,404,o),
(319,398,cs),
(302,380,o),
(292,357,o),
(283,334,cs),
(273,305,o),
(267,274,o),
(262,244,cs),
(260,229,o),
(243,159,o),
(237,144,cs),
(228,122,o),
(213,100,o),
(196,83,c),
(176,78,o),
(152,81,o),
(134,91,cs),
(116,101,o),
(103,119,o),
(95,138,cs),
(87,159,o),
(80,181,o),
(79,203,cs),
(78,242,o),
(88,283,o),
(106,318,cs),
(131,364,o),
(166,405,o),
(207,437,cs),
(212,441,o),
(217,445,o),
(223,447,cs),
(250,459,o),
(280,466,o),
(310,468,cs),
(312,468,o),
(313,467,o),
(314,467,cs),
(317,467,o),
(323,472,o),
(324,473,c),
(325,473,o),
(322,477,o),
(321,478,c),
(317,480,o),
(305,479,o),
(301,479,cs),
(281,477,o),
(261,471,o),
(244,461,cs),
(236,457,o),
(194,433,o),
(187,428,cs),
(142,398,o),
(104,356,o),
(77,309,cs),
(51,265,o),
(35,216,o),
(26,166,cs),
(21,140,o),
(24,112,o),
(35,88,cs),
(54,46,o),
(103,29,o),
(145,49,cs),
(160,56,o),
(235,99,o),
(248,109,cs),
(281,132,o),
(303,171,o),
(317,209,c),
(319,195,o),
(323,182,o),
(324,168,cs),
(325,146,o),
(328,125,o),
(328,103,cs),
(330,37,o),
(331,-30,o),
(315,-94,cs),
(312,-108,o),
(295,-142,o),
(283,-150,cs),
(261,-163,o),
(207,-158,o),
(184,-146,cs),
(177,-143,o),
(151,-120,o),
(146,-116,cs),
(126,-98,o),
(105,-83,o),
(84,-68,c),
(84,-58,o),
(71,-52,o),
(64,-59,cs),
(57,-66,o),
(64,-78,o),
(74,-77,c),
(83,-87,o),
(96,-94,o),
(104,-105,cs),
(108,-111,o),
(110,-117,o),
(112,-124,cs),
(114,-129,o),
(128,-144,o),
(133,-148,c),
(114,-141,o),
(95,-132,o),
(77,-123,cs),
(59,-113,o),
(40,-103,o),
(20,-102,c),
(19,-90,o),
(4,-89,o),
(-1,-100,cs),
(-7,-113,o),
(11,-121,o),
(18,-109,c),
(42,-115,o),
(63,-130,o),
(85,-141,cs),
(108,-154,o),
(132,-163,o),
(156,-171,c),
(157,-171,o),
(162,-175,o),
(163,-175,c),
(167,-178,o),
(182,-184,o),
(187,-185,cs),
(207,-188,o),
(229,-181,o),
(248,-172,cs)
);
}
);
width = 433;
}
);
note = g;
unicode = 103;
},
{
glyphname = h;
layers = (
{
hints = (
{
horizontal = 1;
place = (475,33);
type = Stem;
},
{
horizontal = 1;
place = (19,20);
type = Stem;
},
{
horizontal = 1;
place = (11,19);
type = Stem;
},
{
place = (455,20);
type = Stem;
},
{
place = (403,17);
type = Stem;
},
{
place = (334,78);
type = Stem;
},
{
place = (94,33.5);
type = Stem;
}
);
layerId = m01;
shapes = (
{
closed = 1;
nodes = (
(86,8,o),
(122,29,o),
(128,33,cs),
(134,37,o),
(132,49,o),
(130,56,cs),
(127,72,o),
(121,87,o),
(118,103,cs),
(115,122,o),
(115,142,o),
(119,161,cs),
(125,191,o),
(138,219,o),
(154,245,cs),
(190,307,o),
(225,369,o),
(266,428,cs),
(277,444,o),
(290,460,o),
(304,475,c),
(306,476,o),
(309,475,o),
(311,475,cs),
(315,474,o),
(320,471,o),
(322,468,cs),
(328,461,o),
(334,439,o),
(334,431,cs),
(334,344,ls),
(334,331,o),
(335,271,o),
(338,258,cs),
(349,221,o),
(358,183,o),
(372,147,cs),
(373,144,o),
(383,125,o),
(384,122,cs),
(391,102,o),
(396,82,o),
(399,62,cs),
(401,51,o),
(401,39,o),
(407,30,c),
(395,17,o),
(414,4,o),
(426,16,cs),
(431,22,o),
(429,31,o),
(421,33,c),
(419,34,o),
(420,37,o),
(420,39,cs),
(420,49,o),
(409,88,o),
(406,97,c),
(408,95,o),
(421,86,o),
(423,84,cs),
(430,78,o),
(453,47,o),
(458,39,c),
(448,25,o),
(468,10,o),
(475,26,cs),
(478,33,o),
(476,40,o),
(469,43,c),
(444,96,ls),
(443,99,o),
(441,117,o),
(440,120,cs),
(438,128,o),
(437,135,o),
(436,143,c),
(429,164,ls),
(423,189,o),
(413,213,o),
(410,239,cs),
(408,260,o),
(409,281,o),
(412,302,cs),
(413,318,o),
(413,390,o),
(410,406,c),
(410,411,o),
(406,444,o),
(405,449,cs),
(404,455,o),
(395,476,o),
(392,480,cs),
(390,484,o),
(378,499,o),
(375,502,cs),
(369,508,o),
(359,510,o),
(350,508,cs),
(337,504,o),
(283,471,o),
(271,463,cs),
(257,455,o),
(244,443,o),
(233,431,cs),
(179,373,o),
(140,301,o),
(105,229,c),
(105,297,o),
(117,365,o),
(125,433,cs),
(129,469,o),
(132,506,o),
(130,542,cs),
(128,577,o),
(111,678,o),
(88,703,cs),
(84,708,o),
(75,703,o),
(70,699,c),
(77,699,o),
(77,699,o),
(80,694,cs),
(83,688,o),
(88,658,o),
(89,651,cs),
(101,587,o),
(90,522,o),
(84,458,cs),
(82,441,o),
(73,335,o),
(71,317,cs),
(60,230,o),
(39,144,o),
(39,57,cs),
(39,53,o),
(43,33,o),
(44,29,cs),
(46,17,o),
(53,3,o),
(65,5,cs),
(70,6,o),
(75,3,o),
(79,5,cs)
);
}
);
width = 497;
}
);
note = h;
unicode = 104;
},
{
glyphname = i;
kernLeft = b;
layers = (
{
hints = (
{
horizontal = 1;
place = (680,19);
type = Stem;
},
{
horizontal = 1;
place = (561,20);
type = Stem;
},
{
place = (145,26);
type = Stem;
},
{
place = (102,26);
type = Stem;
},
{
place = (93,9);
type = Stem;
},
{
place = (61,24);
type = Stem;
},
{
place = (57,80);
type = Stem;
},
{
place = (53,26);
type = Stem;
}
);
layerId = m01;
shapes = (
{
closed = 1;
nodes = (
(134,573,o),
(162,589,o),
(168,596,cs),
(177,609,o),
(175,649,o),
(171,665,cs),
(168,676,o),
(161,688,o),
(150,693,cs),
(135,702,o),
(115,701,o),
(99,694,cs),
(93,691,o),
(69,679,o),
(65,673,cs),
(62,668,o),
(61,662,o),
(61,656,cs),
(60,647,o),
(63,631,o),
(71,628,cs),
(79,625,o),
(88,629,o),
(94,633,c),
(97,636,o),
(97,636,o),
(94,634,c),
(92,637,o),
(86,650,o),
(85,653,cs),
(82,662,o),
(83,672,o),
(87,680,c),
(97,681,o),
(108,680,o),
(118,675,cs),
(127,669,o),
(135,660,o),
(140,650,cs),
(146,635,o),
(148,596,o),
(141,581,c),
(111,578,o),
(86,587,o),
(66,609,cs),
(64,611,o),
(57,620,o),
(55,621,c),
(52,620,o),
(44,617,o),
(43,614,cs),
(42,610,o),
(40,607,o),
(40,604,cs),
(39,593,o),
(46,580,o),
(55,574,cs),
(76,559,o),
(103,557,o),
(126,569,cs)
);
},
{
closed = 1;
nodes = (
(68,-11,o),
(82,0,o),
(75,10,cs),
(73,12,o),
(76,12,o),
(77,13,cs),
(78,14,o),
(79,16,o),
(79,17,c),
(89,35,o),
(95,56,o),
(102,75,c),
(106,56,o),
(112,36,o),
(116,16,c),
(116,14,o),
(113,13,o),
(111,11,cs),
(105,5,o),
(109,-7,o),
(118,-8,cs),
(127,-9,o),
(133,-2,o),
(132,7,cs),
(131,11,o),
(128,14,o),
(128,17,cs),
(124,47,o),
(117,78,o),
(119,108,cs),
(120,117,o),
(132,172,o),
(133,181,c),
(134,183,o),
(137,193,o),
(137,195,cs),
(140,227,o),
(135,259,o),
(133,290,cs),
(132,299,o),
(122,348,o),
(122,356,cs),
(121,371,o),
(121,442,o),
(118,456,cs),
(116,465,o),
(102,503,o),
(102,512,c),
(100,512,o),
(93,508,o),
(92,507,cs),
(91,506,o),
(92,504,o),
(93,502,c),
(93,500,o),
(91,492,o),
(90,490,c),
(90,487,o),
(86,469,o),
(85,466,cs),
(84,459,o),
(71,415,o),
(69,407,cs),
(67,396,o),
(66,334,o),
(66,323,cs),
(64,293,o),
(57,265,o),
(57,236,cs),
(57,219,o),
(53,156,o),
(60,141,cs),
(71,117,o),
(63,88,o),
(65,61,cs),
(67,46,o),
(66,31,o),
(65,15,c),
(54,16,o),
(48,3,o),
(57,-4,cs)
);
}
);
width = 205;
}
);
note = i;
unicode = (105,236,237,238,239);
},
{
glyphname = j;
layers = (
{
hints = (
{
horizontal = 1;
place = (697.5,16.5);
type = Stem;
},
{
horizontal = 1;
place = (-214,49);
type = Stem;
},
{
place = (136,32.5);
type = Stem;
},
{
place = (94,39);
type = Stem;
},
{
place = (78,20);
type = Stem;
},
{
place = (73,84);
type = Stem;
},
{
place = (32,34);
type = Stem;
},
{
place = (-113,27);
type = Stem;
},
{
place = (-113,19);
type = Stem;
}
);
layerId = m01;
shapes = (
{
closed = 1;
nodes = (
(90,558,o),
(141,588,o),
(151,594,cs),
(159,600,o),
(167,609,o),
(169,620,c),
(168,634,ls),
(166,649,o),
(166,664,o),
(161,678,cs),
(156,693,o),
(140,715,o),
(125,714,cs),
(118,714,o),
(98,701,o),
(92,697,cs),
(83,691,o),
(79,666,o),
(78,655,cs),
(78,644,o),
(78,631,o),
(88,631,cs),
(94,631,o),
(99,634,o),
(104,637,c),
(96,651,o),
(96,684,o),
(104,698,cs),
(105,700,o),
(107,698,o),
(108,697,c),
(132,682,o),
(142,646,o),
(136,619,cs),
(134,609,o),
(128,600,o),
(123,591,c),
(111,595,o),
(101,603,o),
(90,610,cs),
(84,613,o),
(70,631,o),
(66,638,cs),
(63,644,o),
(67,654,o),
(73,659,c),
(66,656,o),
(59,652,o),
(54,646,cs),
(41,630,o),
(32,608,o),
(32,587,cs),
(32,584,o),
(32,570,o),
(33,568,c),
(35,546,o),
(61,543,o),
(80,553,cs)
);
},
{
closed = 1;
nodes = (
(-146,-96,o),
(-139,-100,o),
(-134,-99,cs),
(-133,-99,o),
(-130,-104,o),
(-129,-105,cs),
(-123,-112,o),
(-82,-143,o),
(-76,-151,cs),
(-69,-160,o),
(-73,-173,o),
(-71,-184,cs),
(-69,-192,o),
(-61,-198,o),
(-56,-205,cs),
(-45,-220,o),
(-19,-213,o),
(-3,-204,cs),
(7,-199,o),
(63,-167,o),
(72,-161,cs),
(98,-144,o),
(117,-116,o),
(127,-87,cs),
(155,-4,o),
(156,86,o),
(157,173,cs),
(157,201,o),
(155,228,o),
(155,255,cs),
(156,268,o),
(149,322,o),
(145,334,c),
(144,340,o),
(133,370,o),
(133,377,c),
(130,398,o),
(119,484,o),
(125,505,c),
(122,503,o),
(115,501,o),
(115,498,cs),
(114,490,o),
(103,448,o),
(102,440,cs),
(99,423,o),
(97,406,o),
(94,389,c),
(94,385,o),
(93,357,o),
(92,352,cs),
(90,340,o),
(77,269,o),
(76,256,cs),
(75,249,o),
(73,214,o),
(73,208,cs),
(80,106,o),
(72,2,o),
(51,-98,cs),
(46,-121,o),
(40,-144,o),
(29,-165,c),
(27,-165,o),
(16,-162,o),
(15,-162,cs),
(4,-159,o),
(-5,-151,o),
(-15,-149,c),
(-43,-140,l),
(-48,-127,o),
(-77,-69,o),
(-86,-57,c),
(-82,-49,o),
(-89,-41,o),
(-98,-43,cs),
(-121,-49,o),
(-116,-76,o),
(-94,-66,c),
(-87,-83,o),
(-83,-102,o),
(-77,-119,c),
(-82,-115,o),
(-111,-94,o),
(-117,-91,cs),
(-119,-90,o),
(-126,-87,o),
(-127,-84,cs),
(-129,-80,o),
(-136,-76,o),
(-140,-75,cs),
(-150,-72,o),
(-157,-85,o),
(-150,-92,cs)
);
}
);
width = 212;
}
);
note = j;
unicode = 106;
},
{
glyphname = k;
kernLeft = k;
kernRight = k;
layers = (
{
hints = (
{
horizontal = 1;
place = (20,23);
type = Stem;
},
{
horizontal = 1;
place = (-18,24);
type = Stem;
},
{
horizontal = 1;
place = (-32,25);
type = Stem;
},
{
place = (386,24);
type = Stem;
},
{
place = (94,24);
type = Stem;
},
{
place = (75,13);
type = Stem;
},
{
place = (62,59);
type = Stem;
},
{
place = (54,15);
type = Stem;
}
);
layerId = m01;
shapes = (
{
closed = 1;
nodes = (
(62,-10,o),
(69,-10,o),
(69,-7,cs),
(69,2,o),
(85,44,o),
(88,53,c),
(94,37,o),
(98,21,o),
(103,4,c),
(87,-3,o),
(94,-26,o),
(110,-19,cs),
(118,-15,o),
(121,-5,o),
(115,2,c),
(110,39,o),
(105,76,o),
(104,113,c),
(115,154,o),
(122,197,o),
(121,239,cs),
(121,282,o),
(122,325,o),
(117,368,cs),
(114,395,o),
(107,554,o),
(102,581,cs),
(100,590,o),
(97,599,o),
(95,609,cs),
(91,628,o),
(90,648,o),
(88,668,cs),
(88,673,o),
(84,698,o),
(85,703,cs),
(85,705,o),
(75,699,o),
(75,697,cs),
(78,670,o),
(81,642,o),
(78,614,cs),
(74,582,o),
(64,551,o),
(59,520,cs),
(54,478,o),
(56,437,o),
(56,395,c),
(55,388,o),
(60,344,o),
(61,336,cs),
(63,291,o),
(64,246,o),
(62,200,cs),
(61,175,o),
(61,149,o),
(62,123,cs),
(63,107,o),
(62,91,o),
(59,75,cs),
(56,52,o),
(50,30,o),
(54,7,c),
(54,2,o),
(56,-2,o),
(56,-7,c),
(46,-5,o),
(40,-16,o),
(44,-26,cs),
(51,-40,o),
(70,-28,o),
(63,-13,cs)
);
},
{
closed = 1;
nodes = (
(128,260,o),
(133,236,o),
(137,230,cs),
(145,215,o),
(159,202,o),
(172,191,cs),
(179,185,o),
(220,153,o),
(227,148,cs),
(236,141,o),
(291,107,o),
(299,98,c),
(301,97,o),
(309,87,o),
(310,86,cs),
(325,72,o),
(342,60,o),
(358,47,cs),
(365,42,o),
(388,13,o),
(392,6,c),
(378,-4,o),
(392,-27,o),
(404,-14,cs),
(412,-7,o),
(412,6,o),
(401,9,c),
(396,18,o),
(390,27,o),
(383,35,c),
(388,33,o),
(406,29,o),
(409,25,cs),
(411,22,o),
(415,21,o),
(418,20,cs),
(430,17,o),
(439,28,o),
(432,39,c),
(426,46,o),
(416,43,o),
(410,37,c),
(399,42,o),
(388,49,o),
(378,56,cs),
(368,63,o),
(358,70,o),
(348,78,cs),
(334,91,o),
(321,106,o),
(305,117,cs),
(295,124,o),
(287,135,o),
(280,146,cs),
(266,167,o),
(250,186,o),
(235,206,cs),
(228,215,o),
(187,262,o),
(182,272,cs),
(175,284,o),
(172,299,o),
(175,312,cs),
(178,325,o),
(186,336,o),
(195,345,cs),
(223,374,o),
(257,395,o),
(288,421,cs),
(297,429,o),
(343,471,o),
(351,480,cs),
(359,490,o),
(365,502,o),
(372,512,cs),
(373,513,o),
(363,508,o),
(362,506,cs),
(337,471,o),
(305,441,o),
(270,416,cs),
(260,409,o),
(250,403,o),
(240,397,cs),
(217,381,o),
(196,363,o),
(174,345,cs),
(160,333,o),
(146,320,o),
(138,304,cs),
(133,292,o),
(129,280,o),
(129,267,cs)
);
}
);
width = 449;
}
);
note = k;
unicode = 107;
},
{
glyphname = l;
kernLeft = b;
layers = (
{
hints = (
{
horizontal = 1;
place = (-18,728);
type = Stem;
},
{
place = (115,8);
type = Stem;
},
{
place = (85,11);
type = Stem;
},
{
place = (72,24);
type = Stem;
},
{
place = (48,78);
type = Stem;
}
);
layerId = m01;
shapes = (
{
closed = 1;
nodes = (
(96,-12,o),
(100,1,o),
(93,8,c),
(93,9,o),
(96,9,o),
(96,10,cs),
(96,27,o),
(99,43,o),
(103,59,c),
(107,46,o),
(111,32,o),
(116,19,c),
(117,19,o),
(115,12,o),
(114,11,cs),
(107,0,o),
(121,-10,o),
(132,-4,cs),
(143,1,o),
(144,18,o),
(133,21,cs),
(131,22,o),
(132,26,o),
(131,28,cs),
(123,51,o),
(117,75,o),
(109,98,c),
(110,105,ls),
(114,125,o),
(114,146,o),
(117,167,cs),
(118,177,o),
(120,234,o),
(122,244,cs),
(126,266,o),
(126,373,o),
(126,395,cs),
(126,409,o),
(129,488,o),
(129,502,cs),
(128,543,o),
(125,584,o),
(124,626,cs),
(124,640,o),
(122,655,o),
(123,670,cs),
(123,675,o),
(125,705,o),
(127,710,c),
(127,712,o),
(118,707,o),
(117,705,c),
(115,703,o),
(115,691,o),
(115,688,c),
(109,653,o),
(94,619,o),
(82,585,cs),
(72,558,o),
(65,530,o),
(59,502,cs),
(47,445,o),
(45,385,o),
(48,327,cs),
(50,297,o),
(48,267,o),
(51,237,cs),
(52,221,o),
(57,205,o),
(61,189,cs),
(63,181,o),
(66,174,o),
(67,166,cs),
(67,157,o),
(68,148,o),
(70,139,cs),
(72,127,o),
(75,59,o),
(76,47,c),
(85,10,l),
(78,8,o),
(73,0,o),
(72,-7,cs),
(72,-14,o),
(80,-20,o),
(87,-17,cs)
);
}
);
width = 188;
}
);
note = l;
unicode = 108;
},
{
glyphname = m;
layers = (
{
hints = (
{
horizontal = 1;
place = (16,9);
type = Stem;
},
{
horizontal = 1;
place = (-8,33);
type = Stem;
},
{
horizontal = 1;
place = (-31,34);
type = Stem;
},
{
horizontal = 1;
place = (-31,23);
type = Stem;
},
{
place = (579,21);
type = Stem;
},
{
place = (571,29);
type = Stem;
},
{
place = (524,76);
type = Stem;
},
{
place = (524,29);
type = Stem;
},
{
place = (457,51);
type = Stem;
},
{
place = (229,84);
type = Stem;
},
{
place = (18,9.5);
type = Stem;
}
);
layerId = m01;
shapes = (
{
closed = 1;
nodes = (
(551,-3,o),
(546,-2,o),
(545,2,cs),
(543,10,o),
(531,58,o),
(530,66,c),
(538,53,o),
(546,40,o),
(558,29,cs),
(563,25,o),
(567,21,o),
(571,16,c),
(562,-3,o),
(584,-18,o),
(595,-1,cs),
(601,7,o),
(603,18,o),
(594,24,c),
(591,27,o),
(583,27,o),
(579,25,c),
(571,44,ls),
(565,57,o),
(529,109,o),
(526,123,cs),
(518,163,o),
(508,203,o),
(508,244,cs),
(508,276,o),
(509,309,o),
(515,340,c),
(516,360,ls),
(517,370,o),
(520,379,o),
(520,388,cs),
(520,400,o),
(520,460,o),
(518,472,cs),
(517,480,o),
(501,494,o),
(493,498,cs),
(487,502,o),
(478,498,o),
(471,495,cs),
(461,490,o),
(412,461,o),
(404,456,cs),
(384,444,o),
(369,425,o),
(355,407,cs),
(339,385,o),
(325,362,o),
(313,338,c),
(313,357,o),
(315,378,o),
(308,397,cs),
(306,402,o),
(297,431,o),
(295,436,cs),
(289,448,o),
(274,464,o),
(261,462,cs),
(247,460,o),
(200,432,o),
(188,425,cs),
(160,408,o),
(141,379,o),
(125,351,cs),
(119,342,o),
(96,298,o),
(92,288,c),
(87,269,o),
(54,160,o),
(49,141,cs),
(46,127,o),
(29,53,o),
(24,40,cs),
(23,36,o),
(17,22,o),
(18,17,c),
(19,18,o),
(27,22,o),
(28,23,c),
(28,24,o),
(27,25,o),
(27,26,cs),
(28,30,o),
(35,49,o),
(36,52,cs),
(46,82,o),
(52,113,o),
(61,143,cs),
(89,239,o),
(129,334,o),
(190,413,cs),
(193,417,o),
(207,433,o),
(211,436,cs),
(222,442,o),
(228,428,o),
(229,416,cs),
(230,405,o),
(231,361,o),
(230,351,cs),
(226,333,o),
(219,234,o),
(219,215,cs),
(218,189,o),
(218,163,o),
(219,137,c),
(226,85,ls),
(228,67,o),
(238,50,o),
(249,35,cs),
(251,32,o),
(255,32,o),
(258,32,c),
(268,29,o),
(291,45,o),
(301,51,cs),
(306,55,o),
(314,73,o),
(316,79,cs),
(324,97,o),
(326,117,o),
(328,137,cs),
(333,203,o),
(335,272,o),
(356,335,cs),
(372,382,o),
(400,425,o),
(432,463,c),
(437,461,o),
(441,457,o),
(442,452,cs),
(452,419,o),
(451,384,o),
(452,349,cs),
(452,341,o),
(456,333,o),
(457,325,cs),
(457,323,o),
(458,309,o),
(459,307,c),
(463,289,o),
(462,271,o),
(465,253,cs),
(469,221,o),
(473,189,o),
(480,158,cs),
(483,146,o),
(490,100,o),
(497,90,cs),
(500,85,o),
(505,80,o),
(508,74,cs),
(513,67,o),
(526,19,o),
(530,10,cs),
(531,8,o),
(534,5,o),
(532,3,c),
(528,1,o),
(526,-4,o),
(527,-8,c),
(523,-14,o),
(523,-19,o),
(528,-26,cs),
(538,-40,o),
(560,-22,o),
(553,-7,cs)
);
}
);
width = 613;
}
);
note = m;
unicode = 109;
},
{
glyphname = n;
layers = (
{
hints = (
{
horizontal = 1;
place = (460,32);
type = Stem;
},
{
place = (351,18);
type = Stem;
},
{
place = (288,68);
type = Stem;
},
{
place = (58,10);
type = Stem;
},
{
place = (40,48);
type = Stem;
},
{
place = (40,40);
type = Stem;
}
);
layerId = m01;
shapes = (
{
closed = 1;
nodes = (
(376,28,o),
(374,29,o),
(373,30,c),
(369,46,o),
(370,62,o),
(369,79,c),
(372,75,o),
(382,60,o),
(385,58,cs),
(393,53,l),
(388,41,o),
(397,30,o),
(409,33,cs),
(415,35,o),
(420,42,o),
(420,48,cs),
(419,55,o),
(413,63,o),
(406,64,cs),
(405,64,o),
(405,71,o),
(404,72,c),
(400,85,o),
(361,149,o),
(358,162,cs),
(356,169,o),
(354,199,o),
(354,206,cs),
(356,221,l),
(356,260,o),
(359,298,o),
(356,336,cs),
(355,359,o),
(347,381,o),
(346,404,cs),
(344,429,o),
(342,455,o),
(331,479,cs),
(324,496,o),
(296,494,o),
(278,489,cs),
(258,484,o),
(193,445,o),
(178,431,cs),
(139,398,o),
(109,353,o),
(88,307,c),
(88,318,o),
(86,379,o),
(85,390,cs),
(84,401,o),
(76,448,o),
(72,458,cs),
(70,462,o),
(68,467,o),
(68,472,c),
(67,471,o),
(60,467,o),
(58,466,c),
(61,419,o),
(51,372,o),
(46,325,cs),
(35,236,o),
(38,145,o),
(40,55,cs),
(40,44,o),
(42,33,o),
(48,23,cs),
(49,21,o),
(55,18,o),
(57,17,c),
(80,32,l),
(82,50,o),
(81,69,o),
(83,87,cs),
(83,93,o),
(90,128,o),
(91,133,cs),
(96,173,o),
(102,213,o),
(112,251,cs),
(125,296,o),
(144,340,o),
(168,380,cs),
(185,408,o),
(204,435,o),
(228,457,c),
(232,462,o),
(250,460,o),
(256,460,cs),
(285,459,o),
(293,418,o),
(296,389,cs),
(297,378,o),
(298,367,o),
(296,356,cs),
(292,315,o),
(283,273,o),
(291,233,cs),
(295,214,o),
(296,195,o),
(303,178,cs),
(307,170,o),
(318,118,o),
(321,110,cs),
(323,103,o),
(337,69,o),
(340,63,cs),
(343,58,o),
(359,33,o),
(361,28,c),
(347,22,o),
(348,1,o),
(363,3,c),
(380,-2,o),
(395,21,o),
(378,28,c)
);
}
);
width = 439;
}
);
note = n;
unicode = (110,241);
},
{
glyphname = o;
layers = (
{
hints = (
{
horizontal = 1;
place = (502,7);
type = Stem;
},
{
horizontal = 1;
place = (27,36);
type = Stem;
},
{
place = (340,71);
type = Stem;
},
{
place = (336.5,74.5);
type = Stem;
},
{
place = (170,29);
type = Stem;
},
{
place = (170,28);
type = Stem;
},
{
place = (164,28);
type = Stem;
},
{
place = (26,57);
type = Stem;
}
);
layerId = m01;
shapes = (
{
closed = 1;
nodes = (
(260,59,o),
(304,84,o),
(312,89,cs),
(344,111,o),
(366,148,o),
(382,184,cs),
(397,218,o),
(408,255,o),
(411,293,cs),
(411,301,o),
(407,341,o),
(407,349,cs),
(405,366,o),
(397,382,o),
(390,397,cs),
(387,403,o),
(383,407,o),
(379,412,cs),
(374,418,o),
(370,426,o),
(366,433,cs),
(360,445,o),
(351,456,o),
(340,463,cs),
(332,468,o),
(322,472,o),
(312,475,cs),
(289,484,o),
(267,499,o),
(242,503,cs),
(228,506,o),
(212,509,o),
(198,504,c),
(196,508,o),
(189,507,o),
(185,509,cs),
(175,514,o),
(165,501,o),
(173,493,cs),
(184,482,o),
(203,486,o),
(199,502,c),
(221,501,o),
(272,471,o),
(287,456,c),
(278,457,o),
(269,457,o),
(259,455,cs),
(244,452,o),
(195,434,o),
(184,422,c),
(179,425,o),
(172,423,o),
(170,418,c),
(155,411,o),
(168,390,o),
(183,397,cs),
(191,400,o),
(195,410,o),
(189,417,cs),
(187,419,o),
(188,422,o),
(191,424,c),
(196,431,o),
(213,436,o),
(221,434,cs),
(246,430,o),
(272,417,o),
(287,397,cs),
(294,387,o),
(317,341,o),
(320,329,cs),
(326,309,o),
(334,290,o),
(336,270,cs),
(340,246,o),
(341,221,o),
(337,197,cs),
(331,161,o),
(314,128,o),
(294,97,cs),
(291,92,o),
(280,74,o),
(273,71,cs),
(248,62,o),
(219,61,o),
(194,67,cs),
(173,73,o),
(153,85,o),
(136,99,cs),
(123,109,o),
(111,121,o),
(105,136,cs),
(72,212,o),
(77,309,o),
(114,382,cs),
(134,420,o),
(165,452,o),
(200,476,c),
(201,478,o),
(212,483,o),
(214,484,c),
(204,482,o),
(174,459,o),
(166,452,cs),
(113,408,o),
(67,348,o),
(46,281,cs),
(34,244,o),
(30,205,o),
(26,167,cs),
(24,146,o),
(24,123,o),
(34,105,cs),
(45,82,o),
(66,64,o),
(88,51,cs),
(106,40,o),
(124,31,o),
(145,27,cs),
(181,22,o),
(220,37,o),
(253,55,cs)
);
}
);
width = 437;
}
);
note = o;
unicode = (111,242,243,244,245,246,248);
},
{
glyphname = p;
kernLeft = k;
layers = (
{
hints = (
{
horizontal = 1;
place = (481,25);
type = Stem;
},
{
horizontal = 1;
place = (481,21);
type = Stem;
},
{
horizontal = 1;
place = (298,15);
type = Stem;
},
{
horizontal = 1;
place = (-203,30);
type = Stem;
},
{
horizontal = 1;
place = (-203,29);
type = Stem;
},
{
horizontal = 1;
place = (-228,25);
type = Stem;
},
{
place = (356,64);
type = Stem;
},
{
place = (242,28);
type = Stem;
},
{
place = (130,12.5);
type = Stem;
},
{
place = (124,69);
type = Stem;
},
{
place = (67,33);
type = Stem;
},
{
place = (51,57.5);
type = Stem;
},
{
place = (48,27);
type = Stem;
},
{
place = (45,59.5);
type = Stem;
},
{
place = (22,28);
type = Stem;
}
);
layerId = m01;
shapes = (
{
closed = 1;
nodes = (
(197,23,o),
(211,27,o),
(224,33,cs),
(241,41,o),
(321,87,o),
(336,98,cs),
(368,123,o),
(389,162,o),
(403,199,cs),
(422,249,o),
(425,304,o),
(420,356,cs),
(417,387,o),
(412,420,o),
(396,446,cs),
(383,468,o),
(365,488,o),
(342,499,cs),
(326,508,o),
(305,507,o),
(288,502,cs),
(261,493,o),
(237,478,o),
(213,462,cs),
(182,442,o),
(161,408,o),
(144,375,cs),
(141,369,o),
(131,346,o),
(130,340,cs),
(130,339,o),
(133,334,o),
(133,334,c),
(134,335,o),
(141,339,o),
(143,340,c),
(142,344,l),
(147,358,o),
(183,414,o),
(192,426,cs),
(201,438,o),
(229,473,o),
(243,477,cs),
(252,479,o),
(262,482,o),
(273,481,cs),
(295,481,o),
(316,462,o),
(328,443,cs),
(338,428,o),
(343,410,o),
(346,392,cs),
(351,369,o),
(356,345,o),
(356,322,cs),
(354,266,o),
(347,208,o),
(327,156,cs),
(315,126,o),
(298,99,o),
(277,75,c),
(276,73,o),
(270,74,o),
(268,74,cs),
(256,73,o),
(245,81,o),
(235,87,cs),
(219,97,o),
(212,115,o),
(204,132,cs),
(201,138,o),
(194,166,o),
(193,173,cs),
(189,203,o),
(192,233,o),
(197,262,cs),
(200,275,o),
(204,288,o),
(213,298,c),
(217,299,o),
(222,300,o),
(227,298,cs),
(234,294,o),
(240,288,o),
(244,281,cs),
(245,279,o),
(242,273,o),
(242,272,cs),
(242,268,o),
(243,259,o),
(245,257,c),
(257,240,o),
(279,267,o),
(267,284,c),
(267,285,o),
(261,288,o),
(260,289,c),
(257,296,o),
(246,311,o),
(238,313,c),
(236,314,o),
(231,313,o),
(229,312,cs),
(223,310,o),
(195,293,o),
(190,290,cs),
(167,277,o),
(150,254,o),
(140,230,cs),
(128,201,o),
(125,168,o),
(124,137,cs),
(124,117,o),
(123,96,o),
(125,76,cs),
(126,65,o),
(129,53,o),
(135,44,cs),
(144,29,o),
(165,19,o),
(183,22,cs)
);
},
{
closed = 1;
nodes = (
(31,-228,o),
(40,-231,o),
(46,-224,cs),
(50,-218,o),
(52,-210,o),
(45,-206,c),
(51,-178,o),
(58,-150,o),
(63,-122,c),
(64,-138,o),
(66,-153,o),
(70,-168,c),
(71,-170,o),
(74,-173,o),
(72,-174,cs),
(65,-178,o),
(66,-189,o),
(70,-197,cs),
(75,-208,o),
(90,-204,o),
(96,-192,c),
(105,-186,o),
(100,-173,o),
(88,-173,c),
(85,-137,o),
(79,-101,o),
(75,-65,cs),
(75,-62,o),
(78,-52,o),
(79,-49,cs),
(84,-32,o),
(90,-16,o),
(94,1,cs),
(97,19,o),
(98,38,o),
(100,56,cs),
(106,115,o),
(104,174,o),
(109,233,cs),
(111,257,o),
(110,281,o),
(108,305,cs),
(106,337,o),
(98,369,o),
(92,401,cs),
(90,408,o),
(77,442,o),
(74,449,cs),
(70,459,o),
(64,469,o),
(55,476,cs),
(52,478,o),
(50,480,o),
(48,483,cs),
(47,484,o),
(50,488,o),
(48,487,cs),
(46,486,o),
(39,484,o),
(38,482,c),
(38,479,o),
(41,470,o),
(41,468,cs),
(42,459,o),
(44,412,o),
(43,403,cs),
(43,392,o),
(40,382,o),
(41,372,cs),
(45,344,o),
(53,199,o),
(51,170,cs),
(45,33,ls),
(45,23,o),
(41,-28,o),
(43,-38,cs),
(45,-51,o),
(48,-63,o),
(48,-76,cs),
(48,-97,o),
(43,-119,o),
(40,-141,cs),
(37,-161,o),
(38,-182,o),
(36,-203,c),
(25,-202,o),
(17,-214,o),
(25,-221,cs)
);
}
);
width = 450;
}
);
note = p;
unicode = 112;
},
{
glyphname = q;
layers = (
{
hints = (
{
horizontal = 1;
place = (463,22);
type = Stem;
},
{
horizontal = 1;
place = (34,29);
type = Stem;
},
{
horizontal = 1;
place = (-212,27);
type = Stem;
},
{
horizontal = 1;
place = (-237,8);
type = Stem;
},
{
place = (421,20);
type = Stem;
},
{
place = (421,15);
type = Stem;
},
{
place = (414,22);
type = Stem;
},
{
place = (413,23);
type = Stem;
},
{
place = (337,26);
type = Stem;
},
{
place = (255,59);
type = Stem;
},
{
place = (248,67);
type = Stem;
},
{
place = (142,28);
type = Stem;
},
{
place = (26,65);
type = Stem;
}
);
layerId = m01;
shapes = (
{
closed = 1;
nodes = (
(176,47,o),
(222,73,o),
(230,80,cs),
(265,108,o),
(287,153,o),
(299,196,cs),
(310,235,o),
(316,275,o),
(314,314,cs),
(313,326,o),
(306,365,o),
(300,374,cs),
(285,396,o),
(251,398,o),
(228,386,cs),
(221,382,o),
(187,363,o),
(180,358,cs),
(173,353,o),
(167,346,o),
(161,339,cs),
(155,331,o),
(149,322,o),
(146,312,cs),
(140,285,o),
(140,255,o),
(151,229,cs),
(155,219,o),
(163,210,o),
(173,206,cs),
(182,203,o),
(193,208,o),
(201,213,c),
(192,212,l),
(189,213,o),
(183,220,o),
(181,222,cs),
(169,238,o),
(168,261,o),
(170,280,cs),
(173,305,o),
(176,333,o),
(191,353,cs),
(195,359,o),
(200,366,o),
(205,361,cs),
(210,357,o),
(217,355,o),
(222,350,cs),
(233,337,o),
(246,323,o),
(249,306,cs),
(253,280,o),
(255,254,o),
(255,229,c),
(256,221,o),
(250,185,o),
(250,178,c),
(245,136,o),
(224,95,o),
(194,65,c),
(187,64,o),
(179,63,o),
(171,63,cs),
(156,64,o),
(140,72,o),
(131,84,cs),
(114,107,o),
(104,135,o),
(98,163,cs),
(84,225,o),
(92,296,o),
(121,353,cs),
(140,390,o),
(162,426,o),
(193,453,c),
(215,460,o),
(240,461,o),
(263,462,cs),
(268,462,o),
(272,464,o),
(277,464,cs),
(278,464,o),
(277,463,o),
(278,463,cs),
(279,463,o),
(287,468,o),
(288,469,c),
(285,470,o),
(291,474,o),
(291,477,c),
(290,479,o),
(288,480,o),
(286,481,cs),
(272,490,o),
(237,481,o),
(221,473,cs),
(214,469,o),
(170,444,o),
(163,439,cs),
(133,421,o),
(109,394,o),
(88,367,cs),
(49,316,o),
(25,249,o),
(26,185,cs),
(26,161,o),
(32,137,o),
(39,113,cs),
(45,94,o),
(52,75,o),
(63,59,cs),
(68,52,o),
(87,38,o),
(95,36,cs),
(100,34,o),
(125,34,o),
(131,34,cs),
(143,34,o),
(156,36,o),
(167,42,cs)
);
},
{
closed = 1;
nodes = (
(257,-207,o),
(265,-221,o),
(273,-233,cs),
(278,-241,o),
(298,-251,o),
(307,-252,cs),
(320,-254,o),
(333,-252,o),
(345,-247,cs),
(355,-242,o),
(401,-238,o),
(412,-237,c),
(413,-236,o),
(413,-238,o),
(413,-240,cs),
(414,-247,o),
(421,-252,o),
(429,-250,cs),
(438,-249,o),
(439,-239,o),
(436,-231,c),
(434,-221,o),
(421,-221,o),
(414,-229,c),
(399,-228,o),
(384,-230,o),
(369,-234,c),
(380,-227,o),
(390,-219,o),
(401,-212,cs),
(404,-210,o),
(416,-207,o),
(420,-206,c),
(427,-221,o),
(451,-206,o),
(441,-193,c),
(441,-192,o),
(441,-191,o),
(440,-190,c),
(436,-182,o),
(424,-183,o),
(421,-192,cs),
(420,-195,o),
(421,-203,o),
(418,-203,c),
(399,-208,o),
(385,-225,o),
(368,-233,cs),
(364,-235,o),
(355,-234,o),
(351,-232,cs),
(346,-230,o),
(335,-222,o),
(332,-218,cs),
(329,-212,o),
(322,-184,o),
(321,-177,cs),
(310,-117,o),
(315,-54,o),
(322,7,cs),
(329,70,o),
(338,132,o),
(349,193,cs),
(359,247,o),
(362,303,o),
(363,357,cs),
(363,367,o),
(358,409,o),
(356,418,cs),
(351,440,o),
(346,464,o),
(331,481,c),
(329,480,o),
(322,476,o),
(321,475,c),
(337,458,o),
(339,399,o),
(337,375,cs),
(333,336,o),
(297,131,o),
(288,93,cs),
(276,40,o),
(262,-13,o),
(254,-67,cs),
(248,-108,o),
(245,-151,o),
(254,-192,cs)
);
}
);
width = 397;
}
);
note = q;
unicode = 113;
},
{
glyphname = r;
kernLeft = k;
kernRight = r;
layers = (
{
hints = (
{
horizontal = 1;
place = (520,23);
type = Stem;
},
{
horizontal = 1;
place = (498,24);
type = Stem;
},
{
horizontal = 1;
place = (-29,21);
type = Stem;
},
{
place = (336,11);
type = Stem;
},
{
place = (335,12);
type = Stem;
},
{
place = (326,21);
type = Stem;
},
{
place = (128,10);
type = Stem;
},
{
place = (92,18);
type = Stem;
},
{
place = (66,24);
type = Stem;
},
{
place = (61,19);
type = Stem;
},
{
place = (52,58);
type = Stem;
}
);
layerId = m01;
shapes = (
{
closed = 1;
nodes = (
(144,315,o),
(158,330,o),
(168,347,cs),
(183,370,o),
(205,389,o),
(222,411,cs),
(229,420,o),
(236,430,o),
(242,440,cs),
(243,442,o),
(253,450,o),
(254,452,c),
(265,464,o),
(321,498,o),
(336,505,c),
(339,494,o),
(354,496,o),
(358,507,c),
(363,528,o),
(334,527,o),
(335,506,c),
(306,490,o),
(278,472,o),
(250,454,c),
(252,459,o),
(253,466,o),
(256,471,cs),
(261,478,o),
(269,484,o),
(275,491,c),
(291,504,o),
(308,515,o),
(326,526,c),
(335,511,o),
(356,527,o),
(343,540,cs),
(335,547,o),
(322,540,o),
(325,530,c),
(325,528,o),
(326,527,o),
(325,526,c),
(305,514,o),
(284,501,o),
(265,486,cs),
(253,476,o),
(196,423,o),
(186,411,cs),
(175,398,o),
(163,385,o),
(152,371,cs),
(147,364,o),
(145,355,o),
(143,347,cs),
(142,341,o),
(128,315,o),
(128,309,cs),
(127,303,o),
(129,296,o),
(127,290,c),
(127,289,o),
(138,295,o),
(138,296,c)
);
},
{
closed = 1;
nodes = (
(40,483,o),
(46,477,o),
(48,470,cs),
(54,450,o),
(52,428,o),
(49,407,cs),
(46,370,o),
(53,172,o),
(55,135,cs),
(55,127,o),
(54,118,o),
(57,110,cs),
(60,104,o),
(61,96,o),
(62,89,cs),
(66,73,o),
(67,56,o),
(66,39,cs),
(65,23,o),
(61,8,o),
(61,-8,c),
(54,-9,o),
(51,-19,o),
(55,-25,cs),
(63,-36,o),
(78,-25,o),
(72,-12,c),
(74,-1,o),
(77,11,o),
(80,22,c),
(83,9,o),
(85,-5,o),
(92,-16,c),
(94,-35,o),
(118,-28,o),
(113,-10,cs),
(112,-7,o),
(110,-6,o),
(110,-4,c),
(102,14,o),
(95,33,o),
(90,52,c),
(93,62,o),
(96,71,o),
(98,81,cs),
(101,100,o),
(98,119,o),
(102,136,cs),
(105,146,o),
(104,155,o),
(106,165,cs),
(115,238,o),
(111,313,o),
(96,385,cs),
(93,400,o),
(92,415,o),
(87,429,cs),
(82,449,o),
(73,468,o),
(59,484,cs),
(57,486,o),
(50,495,o),
(46,495,c),
(44,496,o),
(38,491,o),
(36,490,c)
);
}
);
width = 369;
}
);
note = r;
unicode = 114;
},
{
glyphname = s;
layers = (
{
hints = (
{
horizontal = 1;
place = (495,15);
type = Stem;
},
{
horizontal = 1;
place = (419,18);
type = Stem;
},
{
horizontal = 1;
place = (406,31);
type = Stem;
},
{
horizontal = 1;
place = (4,24);
type = Stem;
},
{
place = (272,14);
type = Stem;
},
{
place = (259,49);
type = Stem;
},
{
place = (40,50);
type = Stem;
},
{
place = (29,10);
type = Stem;
}
);
layerId = m01;
shapes = (
{
closed = 1;
nodes = (
(204,21,o),
(244,44,o),
(251,49,cs),
(270,62,o),
(289,77,o),
(299,97,cs),
(310,121,o),
(310,151,o),
(302,176,cs),
(293,205,o),
(273,230,o),
(252,252,cs),
(238,267,o),
(221,280,o),
(206,294,c),
(203,296,o),
(191,309,o),
(189,311,cs),
(164,333,o),
(139,356,o),
(117,382,cs),
(110,390,o),
(92,421,o),
(90,432,cs),
(87,453,o),
(101,477,o),
(117,491,c),
(134,496,o),
(155,498,o),
(169,488,cs),
(184,479,o),
(197,468,o),
(208,455,cs),
(227,433,o),
(241,408,o),
(262,389,c),
(259,379,o),
(266,368,o),
(276,371,cs),
(292,375,o),
(289,397,o),
(272,396,c),
(262,408,o),
(254,422,o),
(248,436,c),
(253,432,o),
(275,421,o),
(281,419,c),
(280,408,o),
(296,401,o),
(302,411,cs),
(305,415,o),
(310,418,o),
(310,423,cs),
(311,435,o),
(297,442,o),
(288,433,c),
(281,437,o),
(275,439,o),
(268,441,c),
(260,445,o),
(237,461,o),
(232,469,cs),
(221,486,o),
(208,505,o),
(188,510,cs),
(170,515,o),
(150,511,o),
(133,503,cs),
(128,500,o),
(101,485,o),
(96,481,cs),
(76,466,o),
(59,446,o),
(49,424,cs),
(40,403,o),
(36,377,o),
(44,356,cs),
(50,339,o),
(63,325,o),
(77,315,cs),
(92,306,o),
(105,294,o),
(118,283,cs),
(126,275,o),
(137,268,o),
(147,262,cs),
(170,246,o),
(235,179,o),
(247,153,cs),
(257,131,o),
(264,105,o),
(259,81,cs),
(256,68,o),
(235,42,o),
(224,35,cs),
(219,32,o),
(199,27,o),
(193,28,c),
(167,29,o),
(141,36,o),
(120,50,cs),
(91,68,o),
(69,95,o),
(50,123,cs),
(42,135,o),
(37,151,o),
(39,166,c),
(36,165,o),
(29,163,o),
(29,159,cs),
(29,150,ls),
(28,135,o),
(32,83,o),
(37,70,cs),
(46,49,o),
(61,30,o),
(80,18,cs),
(98,8,o),
(121,5,o),
(141,4,cs),
(160,3,o),
(179,9,o),
(196,17,cs)
);
}
);
width = 338;
}
);
note = s;
unicode = 115;
},
{
glyphname = t;
layers = (
{
hints = (
{
horizontal = 1;
place = (477,22);
type = Stem;
},
{
horizontal = 1;
place = (461,8.5);
type = Stem;
},
{
horizontal = 1;
place = (451,7);
type = Stem;
},
{
horizontal = 1;
place = (445,24.5);
type = Stem;
},
{
horizontal = 1;
place = (441,27);
type = Stem;
},
{
horizontal = 1;
place = (440,28);
type = Stem;
},
{
horizontal = 1;
place = (440,27);
type = Stem;
},
{
horizontal = 1;
place = (129,19);
type = Stem;
},
{
horizontal = 1;
place = (125,23);
type = Stem;
},
{
horizontal = 1;
place = (115,20);
type = Stem;
},
{
horizontal = 1;
place = (15,26);
type = Stem;
},
{
place = (375,26);
type = Stem;
},
{
place = (338,23);
type = Stem;
},
{
place = (175,10);
type = Stem;
},
{
place = (172,13);
type = Stem;
},
{
place = (152,16);
type = Stem;
},
{
place = (113,37);
type = Stem;
}
);
layerId = m01;
shapes = (
{
closed = 1;
nodes = (
(229,14,o),
(242,22,o),
(246,22,cs),
(258,22,o),
(293,44,o),
(303,50,cs),
(318,60,o),
(334,71,o),
(346,85,cs),
(350,90,o),
(370,116,o),
(375,120,c),
(379,114,o),
(387,113,o),
(393,115,cs),
(403,118,o),
(403,132,o),
(393,135,c),
(392,135,o),
(389,138,o),
(388,138,c),
(378,143,o),
(371,132,o),
(374,121,c),
(364,115,o),
(356,105,o),
(348,96,cs),
(331,76,o),
(311,58,o),
(289,43,c),
(271,37,l),
(283,44,o),
(295,50,o),
(304,60,cs),
(323,78,o),
(335,102,o),
(346,125,c),
(354,123,o),
(361,129,o),
(361,137,cs),
(363,158,o),
(329,146,o),
(341,129,c),
(337,126,o),
(323,111,o),
(320,107,cs),
(314,99,o),
(308,89,o),
(302,81,cs),
(291,66,o),
(279,53,o),
(266,41,c),
(247,39,o),
(227,46,o),
(211,55,cs),
(189,67,o),
(172,91,o),
(165,115,cs),
(146,176,o),
(147,242,o),
(153,305,cs),
(157,350,o),
(163,396,o),
(168,441,c),
(203,445,o),
(238,452,o),
(272,461,cs),
(277,463,o),
(296,460,o),
(301,459,cs),
(308,458,o),
(316,456,o),
(323,458,cs),
(326,459,o),
(332,458,o),
(332,457,cs),
(331,446,o),
(345,440,o),
(351,449,cs),
(358,459,o),
(349,471,o),
(338,466,c),
(338,466,o),
(339,468,o),
(338,469,c),
(332,470,o),
(310,471,o),
(304,470,c),
(308,472,o),
(327,479,o),
(330,481,c),
(339,472,o),
(354,480,o),
(349,492,cs),
(342,505,o),
(325,500,o),
(328,486,c),
(277,474,o),
(224,470,o),
(172,468,c),
(179,516,o),
(185,564,o),
(185,613,cs),
(185,622,o),
(184,631,o),
(182,639,c),
(182,641,o),
(172,635,o),
(172,634,cs),
(175,623,o),
(176,611,o),
(175,600,cs),
(171,555,o),
(162,511,o),
(156,467,c),
(122,466,o),
(88,467,o),
(55,461,cs),
(50,460,o),
(28,456,o),
(23,457,c),
(22,458,l),
(17,455,o),
(8,452,o),
(14,451,cs),
(27,450,o),
(101,444,o),
(114,442,cs),
(126,440,o),
(139,440,o),
(152,440,c),
(147,408,o),
(139,377,o),
(134,346,cs),
(128,306,o),
(125,265,o),
(117,225,cs),
(111,195,o),
(110,163,o),
(113,132,cs),
(115,103,o),
(120,73,o),
(136,49,cs),
(145,34,o),
(162,21,o),
(179,15,cs),
(194,10,o),
(211,9,o),
(225,13,cs)
);
}
);
width = 418;
}
);
note = t;
unicode = 116;
},
{
glyphname = u;
layers = (
{
hints = (
{
horizontal = 1;
place = (21,27);
type = Stem;
},
{
horizontal = 1;
place = (2,13);
type = Stem;
},
{
horizontal = 1;
place = (-9,24);
type = Stem;
},
{
place = (392,25);
type = Stem;
},
{
place = (392,11);
type = Stem;
},
{
place = (359,22);
type = Stem;
},
{
place = (29,63);
type = Stem;
}
);
layerId = m01;
shapes = (
{
closed = 1;
nodes = (
(374,16,o),
(376,16,o),
(376,17,c),
(371,31,o),
(369,46,o),
(367,60,c),
(392,27,ls),
(393,26,o),
(392,24,o),
(392,22,cs),
(393,17,o),
(394,13,o),
(396,8,cs),
(401,-3,o),
(418,2,o),
(417,14,cs),
(417,18,o),
(414,22,o),
(412,25,cs),
(410,29,o),
(407,33,o),
(403,33,c),
(396,44,o),
(387,52,o),
(380,62,cs),
(374,70,o),
(370,79,o),
(366,88,cs),
(365,90,o),
(365,102,o),
(364,105,cs),
(362,114,o),
(354,155,o),
(355,164,cs),
(356,176,o),
(359,248,o),
(359,260,c),
(368,325,ls),
(370,339,o),
(371,408,o),
(370,422,cs),
(368,440,o),
(359,457,o),
(355,475,c),
(346,470,o),
(337,466,o),
(332,458,c),
(312,417,o),
(298,372,o),
(286,328,cs),
(280,302,o),
(276,275,o),
(270,249,cs),
(262,217,o),
(258,184,o),
(253,152,cs),
(250,128,o),
(251,104,o),
(242,82,cs),
(237,70,o),
(229,58,o),
(220,48,c),
(199,45,o),
(175,48,o),
(157,60,cs),
(139,71,o),
(126,91,o),
(119,111,cs),
(101,160,o),
(93,213,o),
(92,265,cs),
(91,298,o),
(95,332,o),
(97,365,cs),
(97,374,o),
(103,419,o),
(105,428,cs),
(107,440,o),
(110,452,o),
(113,465,c),
(113,470,o),
(112,475,o),
(115,479,c),
(110,477,o),
(105,475,o),
(103,470,cs),
(91,444,o),
(78,419,o),
(69,393,cs),
(47,336,o),
(36,276,o),
(29,216,cs),
(27,198,o),
(30,178,o),
(33,160,cs),
(40,127,o),
(51,94,o),
(71,67,cs),
(78,58,o),
(85,49,o),
(93,42,cs),
(105,33,o),
(121,29,o),
(135,24,cs),
(155,19,o),
(178,20,o),
(195,30,cs),
(220,43,o),
(246,56,o),
(267,75,cs),
(282,88,o),
(293,106,o),
(300,125,c),
(309,106,o),
(316,85,o),
(331,70,cs),
(346,55,o),
(357,35,o),
(365,15,c),
(358,10,o),
(357,1,o),
(364,-5,cs),
(377,-18,o),
(389,5,o),
(374,15,c)
);
}
);
width = 437;
}
);
note = u;
unicode = (117,249,250,251,252);
},
{
glyphname = v;
layers = (
{
hints = (
{
horizontal = 1;
place = (11,509);
type = Stem;
},
{
place = (383,24);
type = Stem;
},
{
place = (346,21);
type = Stem;
},
{
place = (27,10);
type = Stem;
}
);
layerId = m01;
shapes = (
{
closed = 1;
nodes = (
(203,25,o),
(242,46,o),
(249,52,cs),
(269,68,o),
(291,150,o),
(298,175,cs),
(307,204,o),
(319,232,o),
(326,261,cs),
(333,286,o),
(336,311,o),
(340,336,cs),
(340,339,o),
(343,341,o),
(344,344,c),
(368,389,o),
(380,439,o),
(397,487,c),
(414,495,o),
(408,518,o),
(391,510,cs),
(381,506,o),
(379,494,o),
(389,488,c),
(378,463,o),
(367,438,o),
(357,413,c),
(359,421,o),
(365,475,o),
(367,484,c),
(367,488,o),
(369,500,o),
(368,504,c),
(373,514,o),
(363,525,o),
(354,518,cs),
(343,511,o),
(344,492,o),
(355,489,c),
(344,460,o),
(334,432,o),
(324,403,cs),
(300,333,o),
(273,264,o),
(250,194,cs),
(236,151,o),
(229,106,o),
(215,62,c),
(203,75,o),
(194,90,o),
(185,104,cs),
(160,145,o),
(142,188,o),
(122,231,cs),
(84,313,o),
(54,399,o),
(37,488,c),
(34,486,o),
(26,485,o),
(27,481,cs),
(32,453,o),
(38,425,o),
(41,396,cs),
(42,388,o),
(45,338,o),
(46,330,cs),
(56,244,ls),
(57,230,o),
(61,216,o),
(64,202,cs),
(70,162,o),
(85,124,o),
(102,87,cs),
(111,69,o),
(136,20,o),
(155,13,cs),
(158,12,o),
(170,11,o),
(173,11,cs),
(181,11,o),
(189,16,o),
(196,21,cs)
);
}
);
width = 422;
}
);
note = v;
unicode = 118;
},
{
glyphname = w;
layers = (
{
hints = (
{
horizontal = 1;
place = (516,8);
type = Stem;
},
{
horizontal = 1;
place = (496,28);
type = Stem;
},
{
place = (540,14);
type = Stem;
},
{
place = (530,24);
type = Stem;
},
{
place = (496,17);
type = Stem;
},
{
place = (37,10);
type = Stem;
}
);
layerId = m01;
shapes = (
{
closed = 1;
nodes = (
(163,9,o),
(199,30,o),
(205,34,cs),
(219,44,o),
(234,92,o),
(239,108,cs),
(249,142,o),
(255,178,o),
(261,214,c),
(267,154,o),
(285,95,o),
(312,42,cs),
(316,33,o),
(332,13,o),
(340,10,cs),
(345,9,o),
(360,8,o),
(365,9,cs),
(377,11,o),
(418,37,o),
(428,43,cs),
(438,49,o),
(444,60,o),
(448,71,cs),
(461,108,o),
(472,146,o),
(481,184,cs),
(489,219,o),
(495,254,o),
(498,290,cs),
(500,319,o),
(508,347,o),
(512,376,cs),
(514,389,o),
(518,402,o),
(521,415,cs),
(527,442,o),
(531,470,o),
(540,496,c),
(553,492,o),
(560,510,o),
(550,518,c),
(545,528,o),
(531,526,o),
(530,515,cs),
(530,512,o),
(534,501,o),
(533,498,cs),
(524,478,o),
(519,457,o),
(513,436,c),
(511,458,o),
(513,480,o),
(514,502,c),
(519,506,o),
(519,511,o),
(516,516,c),
(521,526,o),
(511,537,o),
(502,530,cs),
(492,524,o),
(494,504,o),
(505,500,c),
(503,480,o),
(484,366,o),
(481,347,cs),
(473,299,o),
(457,252,o),
(447,203,cs),
(438,154,o),
(424,106,o),
(406,59,c),
(395,79,o),
(383,99,o),
(376,121,cs),
(355,181,o),
(340,243,o),
(332,306,cs),
(330,317,o),
(327,384,o),
(325,395,cs),
(324,404,o),
(318,433,o),
(311,440,cs),
(306,445,o),
(301,459,o),
(295,456,cs),
(259,435,ls),
(248,428,o),
(240,393,o),
(238,379,cs),
(234,362,o),
(215,258,o),
(213,241,cs),
(203,176,o),
(198,108,o),
(174,47,c),
(144,84,o),
(129,131,o),
(113,175,c),
(112,180,o),
(104,204,o),
(103,209,cs),
(99,226,o),
(98,245,o),
(92,262,cs),
(87,275,o),
(87,290,o),
(85,305,cs),
(81,332,o),
(57,468,o),
(48,494,c),
(47,495,o),
(47,501,o),
(47,501,c),
(43,499,o),
(36,498,o),
(37,494,cs),
(45,462,o),
(50,429,o),
(49,396,cs),
(49,381,o),
(41,293,o),
(41,278,cs),
(41,269,o),
(42,260,o),
(43,251,cs),
(43,237,o),
(41,222,o),
(41,208,cs),
(42,192,o),
(51,122,o),
(56,107,cs),
(65,81,o),
(74,55,o),
(84,30,cs),
(91,14,o),
(102,-5,o),
(119,-8,cs),
(132,-11,o),
(145,-1,o),
(157,5,cs)
);
}
);
width = 573;
}
);
note = w;
unicode = 119;
},
